FiraSans-Bold.ufo
<glyph name="F" format="2">
  <advance width="485"/>
  <unicode hex="0046"/>
  <anchor x="146" y="0" name="bottom"/>
  <anchor x="274" y="696" name="top"/>
  <outline>
    <contour>
      <point x="43" y="0" type="line"/>
      <point x="249" y="0" type="line"/>
      <point x="249" y="258" type="line"/>
      <point x="438" y="258" type="line"/>
      <point x="438" y="401" type="line"/>
      <point x="249" y="401" type="line"/>
      <point x="249" y="553" type="line"/>
      <point x="464" y="553" type="line"/>
      <point x="485" y="696" type="line"/>
      <point x="43" y="696" type="line"/>
    </contour>
  </outline>
</glyph>
<glyph name="H" format="2">
  <advance width="657"/>
  <unicode hex="0048"/>
  <anchor x="329" y="0" name="bottom"/>
  <anchor x="624" y="0" name="bottomright"/>
  <anchor x="329" y="348" name="center"/>
  <anchor x="329" y="696" name="top"/>
  <anchor x="43" y="696" name="topleft"/>
  <outline>
    <contour>
      <point x="408" y="0" type="line"/>
      <point x="614" y="0" type="line"/>
      <point x="614" y="696" type="line"/>
      <point x="408" y="696" type="line"/>
      <point x="408" y="439" type="line"/>
      <point x="249" y="439" type="line"/>
      <point x="249" y="696" type="line"/>
      <point x="43" y="696" type="line"/>
      <point x="43" y="0" type="line"/>
      <point x="249" y="0" type="line"/>
      <point x="249" y="281" type="line"/>
      <point x="408" y="281" type="line"/>
    </contour>
  </outline>
</glyph>
<glyph name="I" format="2">
  <advance width="292"/>
  <unicode hex="0049"/>
  <anchor x="146" y="0" name="bottom"/>
  <anchor x="213" y="0" name="ogonek"/>
  <anchor x="146" y="696" name="top"/>
  <anchor x="43" y="696" name="topleft"/>
  <outline>
    <contour>
      <point x="249" y="696" type="line"/>
      <point x="43" y="696" type="line"/>
      <point x="43" y="0" type="line"/>
      <point x="249" y="0" type="line"/>
    </contour>
  </outline>
</glyph>
<glyph name="K" format="2">
  <advance width="659"/>
  <unicode hex="004B"/>
  <anchor x="330" y="0" name="bottom"/>
  <anchor x="330" y="696" name="top"/>
  <outline>
    <contour>
      <point x="661" y="696" type="line"/>
      <point x="449" y="696" type="line"/>
      <point x="255" y="371" type="line"/>
      <point x="445" y="0" type="line"/>
      <point x="679" y="0" type="line"/>
      <point x="464" y="387" type="line"/>
    </contour>
    <contour>
      <point x="249" y="696" type="line"/>
      <point x="43" y="696" type="line"/>
      <point x="43" y="0" type="line"/>
      <point x="249" y="0" type="line"/>
    </contour>
  </outline>
</glyph>
<glyph name="L" format="2">
  <advance width="522"/>
  <unicode hex="004C"/>
  <anchor x="267" y="0" name="bottom"/>
  <anchor x="403" y="404" name="center"/>
  <anchor x="146" y="696" name="top"/>
  <anchor x="259" y="696" name="topright"/>
  <outline>
    <contour>
      <point x="249" y="696" type="line"/>
      <point x="43" y="696" type="line"/>
      <point x="43" y="0" type="line"/>
      <point x="491" y="0" type="line"/>
      <point x="512" y="158" type="line"/>
      <point x="249" y="158" type="line"/>
    </contour>
  </outline>
</glyph>
<glyph name="T" format="2">
  <advance width="554"/>
  <unicode hex="0054"/>
  <anchor x="277" y="0" name="bottom"/>
  <anchor x="390" y="0" name="bottomright"/>
  <anchor x="277" y="348" name="center"/>
  <anchor x="277" y="696" name="top"/>
  <outline>
    <contour>
      <point x="559" y="696" type="line"/>
      <point x="5" y="696" type="line"/>
      <point x="5" y="542" type="line"/>
      <point x="174" y="542" type="line"/>
      <point x="174" y="0" type="line"/>
      <point x="380" y="0" type="line"/>
      <point x="380" y="542" type="line"/>
      <point x="538" y="542" type="line"/>
    </contour>
  </outline>
</glyph>
<glyph name="V" format="2">
  <advance width="579"/>
  <unicode hex="0056"/>
  <anchor x="289.5" y="0" name="bottom"/>
  <anchor x="289.5" y="696" name="top"/>
  <outline>
    <contour>
      <point x="604" y="696" type="line"/>
      <point x="393" y="696" type="line"/>
      <point x="298" y="143" type="line"/>
      <point x="192" y="696" type="line"/>
      <point x="-25" y="696" type="line"/>
      <point x="162" y="0" type="line"/>
      <point x="428" y="0" type="line"/>
    </contour>
  </outline>
</glyph>
<glyph name="X" format="2">
  <advance width="606"/>
  <unicode hex="0058"/>
  <anchor x="303" y="0" name="bottom"/>
  <anchor x="546" y="0" name="bottomright"/>
  <anchor x="303" y="696" name="top"/>
  <outline>
    <contour>
      <point x="224" y="696" type="line"/>
      <point x="3" y="696" type="line"/>
      <point x="176" y="369" type="line"/>
      <point x="298" y="239" type="line"/>
      <point x="394" y="0" type="line"/>
      <point x="616" y="0" type="line"/>
      <point x="422" y="375" type="line"/>
      <point x="300" y="496" type="line"/>
    </contour>
    <contour>
      <point x="602" y="696" type="line"/>
      <point x="385" y="696" type="line"/>
      <point x="300" y="496" type="line"/>
      <point x="176" y="369" type="line"/>
      <point x="-10" y="0" type="line"/>
      <point x="208" y="0" type="line"/>
      <point x="298" y="239" type="line"/>
      <point x="422" y="375" type="line"/>
    </contour>
  </outline>
</glyph>
<glyph name="Y" format="2">
  <advance width="620"/>
  <unicode hex="0059"/>
  <anchor x="310" y="0" name="bottom"/>
  <anchor x="310" y="696" name="top"/>
  <anchor x="-10" y="696" name="topleft"/>
  <outline>
    <contour>
      <point x="635" y="696" type="line"/>
      <point x="417" y="696" type="line"/>
      <point x="313" y="412" type="line"/>
      <point x="210" y="696" type="line"/>
      <point x="-15" y="696" type="line"/>
      <point x="207" y="256" type="line"/>
      <point x="207" y="0" type="line"/>
      <point x="413" y="0" type="line"/>
      <point x="413" y="257" type="line"/>
    </contour>
  </outline>
</glyph>
<glyph name="Z" format="2">
  <advance width="557"/>
  <unicode hex="005A"/>
  <anchor x="268" y="0" name="bottom"/>
  <anchor x="279" y="696" name="top"/>
  <outline>
    <contour>
      <point x="533" y="696" type="line"/>
      <point x="38" y="696" type="line"/>
      <point x="38" y="540" type="line"/>
      <point x="296" y="540" type="line"/>
      <point x="10" y="151" type="line"/>
      <point x="10" y="0" type="line"/>
      <point x="522" y="0" type="line"/>
      <point x="542" y="161" type="line"/>
      <point x="256" y="161" type="line"/>
      <point x="533" y="543" type="line"/>
    </contour>
  </outline>
</glyph>
<glyph name="b" format="2">
  <advance width="599"/>
  <unicode hex="0062"/>
  <anchor x="308" y="0" name="bottom"/>
  <anchor x="322" y="744" name="top"/>
  <outline>
    <contour>
      <point x="380" y="554" type="curve" smooth="yes"/>
      <point x="511" y="554"/>
      <point x="577" y="445"/>
      <point x="577" y="266" type="curve" smooth="yes"/>
      <point x="577" y="103"/>
      <point x="498" y="-20"/>
      <point x="363" y="-20" type="curve" smooth="yes"/>
      <point x="297" y="-20"/>
      <point x="245" y="11"/>
      <point x="215" y="61" type="curve"/>
      <point x="231" y="178" type="line"/>
      <point x="247" y="139"/>
      <point x="272" y="121"/>
      <point x="303" y="121" type="curve" smooth="yes"/>
      <point x="345" y="121"/>
      <point x="374" y="154"/>
      <point x="374" y="266" type="curve" smooth="yes"/>
      <point x="374" y="391"/>
      <point x="346" y="412"/>
      <point x="310" y="412" type="curve" smooth="yes"/>
      <point x="282" y="412"/>
      <point x="251" y="392"/>
      <point x="229" y="340" type="curve"/>
      <point x="232" y="474" type="line"/>
      <point x="258" y="521"/>
      <point x="318" y="554"/>
    </contour>
    <contour>
      <point x="240" y="764" type="line"/>
      <point x="240" y="152" type="line"/>
      <point x="218" y="0" type="line"/>
      <point x="42" y="0" type="line"/>
      <point x="42" y="744" type="line"/>
    </contour>
  </outline>
</glyph>
<glyph name="d" format="2">
  <advance width="601"/>
  <unicode hex="0064"/>
  <anchor x="308" y="0" name="bottom"/>
  <anchor x="301" y="267" name="center"/>
  <anchor x="296" y="744" name="top"/>
  <anchor x="569" y="744" name="topright"/>
  <outline>
    <contour>
      <point x="245" y="554" type="curve" smooth="yes"/>
      <point x="112" y="554"/>
      <point x="22" y="436"/>
      <point x="22" y="270" type="curve" smooth="yes"/>
      <point x="22" y="94"/>
      <point x="86" y="-20"/>
      <point x="225" y="-20" type="curve" smooth="yes"/>
      <point x="309" y="-20"/>
      <point x="356" y="25"/>
      <point x="383" y="66" type="curve"/>
      <point x="371" y="188" type="line"/>
      <point x="350" y="142"/>
      <point x="323" y="122"/>
      <point x="292" y="122" type="curve" smooth="yes"/>
      <point x="256" y="122"/>
      <point x="225" y="140"/>
      <point x="225" y="268" type="curve" smooth="yes"/>
      <point x="225" y="376"/>
      <point x="259" y="413"/>
      <point x="302" y="413" type="curve" smooth="yes"/>
      <point x="332" y="413"/>
      <point x="350" y="396"/>
      <point x="374" y="368" type="curve"/>
      <point x="372" y="501" type="line"/>
      <point x="342" y="535"/>
      <point x="297" y="554"/>
    </contour>
    <contour>
      <point x="361" y="764" type="line"/>
      <point x="361" y="156" type="line"/>
      <point x="374" y="68" type="line"/>
      <point x="383" y="0" type="line"/>
      <point x="559" y="0" type="line"/>
      <point x="559" y="744" type="line"/>
    </contour>
  </outline>
</glyph>
<glyph name="q" format="2">
  <advance width="601"/>
  <unicode hex="0071"/>
  <anchor x="303" y="-215" name="bottom"/>
  <anchor x="303" y="534" name="top"/>
  <outline>
    <contour>
      <point x="361" y="458" type="line"/>
      <point x="361" y="-207" type="line"/>
      <point x="559" y="-227" type="line"/>
      <point x="559" y="534" type="line"/>
      <point x="386" y="534" type="line"/>
      <point x="377" y="496" type="line"/>
    </contour>
    <contour>
      <point x="246" y="554" type="curve" smooth="yes"/>
      <point x="111" y="554"/>
      <point x="22" y="436"/>
      <point x="22" y="270" type="curve" smooth="yes"/>
      <point x="22" y="94"/>
      <point x="87" y="-20"/>
      <point x="225" y="-20" type="curve" smooth="yes"/>
      <point x="309" y="-20"/>
      <point x="355" y="25"/>
      <point x="383" y="72" type="curve"/>
      <point x="371" y="188" type="line"/>
      <point x="350" y="142"/>
      <point x="323" y="122"/>
      <point x="292" y="122" type="curve" smooth="yes"/>
      <point x="256" y="122"/>
      <point x="225" y="140"/>
      <point x="225" y="268" type="curve" smooth="yes"/>
      <point x="225" y="376"/>
      <point x="259" y="413"/>
      <point x="303" y="413" type="curve" smooth="yes"/>
      <point x="333" y="413"/>
      <point x="350" y="396"/>
      <point x="374" y="368" type="curve"/>
      <point x="386" y="487" type="line"/>
      <point x="345" y="536"/>
      <point x="298" y="554"/>
    </contour>
  </outline>
</glyph>
<glyph name="u" format="2">
  <advance width="566"/>
  <unicode hex="0075"/>
  <anchor x="281" y="0" name="bottom"/>
  <anchor x="534" y="0" name="ogonek"/>
  <anchor x="281" y="534" name="top"/>
  <anchor x="534" y="534" name="topright"/>
  <outline>
    <contour>
      <point x="524" y="534" type="line"/>
      <point x="326" y="534" type="line"/>
      <point x="326" y="168" type="line"/>
      <point x="308" y="137"/>
      <point x="286" y="124"/>
      <point x="268" y="124" type="curve" smooth="yes"/>
      <point x="249" y="124"/>
      <point x="235" y="134"/>
      <point x="235" y="176" type="curve" smooth="yes"/>
      <point x="235" y="534" type="line"/>
      <point x="37" y="534" type="line"/>
      <point x="37" y="150" type="line" smooth="yes"/>
      <point x="37" y="48"/>
      <point x="82" y="-20"/>
      <point x="186" y="-20" type="curve" smooth="yes"/>
      <point x="253" y="-20"/>
      <point x="307" y="6"/>
      <point x="344" y="58" type="curve"/>
      <point x="351" y="0" type="line"/>
      <point x="524" y="0" type="line"/>
    </contour>
  </outline>
</glyph>
<glyph name="v" format="2">
  <advance width="526"/>
  <unicode hex="0076"/>
  <anchor x="265" y="0" name="bottom"/>
  <anchor x="271" y="534" name="top"/>
  <outline>
    <contour>
      <point x="541" y="534" type="line"/>
      <point x="341" y="534" type="line"/>
      <point x="267" y="143" type="line"/>
      <point x="200" y="534" type="line"/>
      <point x="-15" y="534" type="line"/>
      <point x="148" y="0" type="line"/>
      <point x="382" y="0" type="line"/>
    </contour>
  </outline>
</glyph>
<glyph name="w" format="2">
  <advance width="768"/>
  <unicode hex="0077"/>
  <anchor x="385" y="0" name="bottom"/>
  <anchor x="384" y="534" name="top"/>
  <outline>
    <contour>
      <point x="773" y="534" type="line"/>
      <point x="583" y="534" type="line"/>
      <point x="538" y="151" type="line"/>
      <point x="482" y="534" type="line"/>
      <point x="297" y="534" type="line"/>
      <point x="227" y="151" type="line"/>
      <point x="195" y="534" type="line"/>
      <point x="-5" y="534" type="line"/>
      <point x="102" y="0" type="line"/>
      <point x="328" y="0" type="line"/>
      <point x="383" y="358" type="line"/>
      <point x="441" y="0" type="line"/>
      <point x="668" y="0" type="line"/>
    </contour>
  </outline>
</glyph>
<glyph name="x" format="2">
  <advance width="528"/>
  <unicode hex="0078"/>
  <anchor x="260" y="0" name="bottom"/>
  <anchor x="478" y="0" name="bottomright"/>
  <anchor x="263" y="534" name="top"/>
  <outline>
    <contour>
      <point x="213" y="534" type="line"/>
      <point x="-6" y="534" type="line"/>
      <point x="143" y="280" type="line"/>
      <point x="257" y="184" type="line"/>
      <point x="327" y="0" type="line"/>
      <point x="548" y="0" type="line"/>
      <point x="383" y="286" type="line"/>
      <point x="265" y="377" type="line"/>
    </contour>
    <contour>
      <point x="519" y="534" type="line"/>
      <point x="312" y="534" type="line"/>
      <point x="265" y="377" type="line"/>
      <point x="143" y="280" type="line"/>
      <point x="-20" y="0" type="line"/>
      <point x="193" y="0" type="line"/>
      <point x="257" y="184" type="line"/>
      <point x="383" y="286" type="line"/>
    </contour>
  </outline>
</glyph>
<glyph name="y" format="2">
  <advance width="534"/>
  <unicode hex="0079"/>
  <anchor x="262" y="-215" name="bottom"/>
  <anchor x="267" y="534" name="top"/>
  <outline>
    <contour>
      <point x="549" y="534" type="line"/>
      <point x="345" y="534" type="line"/>
      <point x="262" y="121" type="line"/>
      <point x="195" y="534" type="line"/>
      <point x="-15" y="534" type="line"/>
      <point x="137" y="0" type="line"/>
      <point x="205" y="0" type="line"/>
      <point x="177" y="-60"/>
      <point x="134" y="-83"/>
      <point x="32" y="-93" type="curve"/>
      <point x="53" y="-228" type="line"/>
      <point x="232" y="-223"/>
      <point x="340" y="-147"/>
      <point x="385" y="1" type="curve" smooth="yes"/>
    </contour>
  </outline>
</glyph>
<glyph name="z" format="2">
  <advance width="472"/>
  <unicode hex="007A"/>
  <anchor x="227" y="0" name="bottom"/>
  <anchor x="241" y="534" name="top"/>
  <outline>
    <contour>
      <point x="455" y="534" type="line"/>
      <point x="25" y="534" type="line"/>
      <point x="25" y="390" type="line"/>
      <point x="227" y="390" type="line"/>
      <point x="5" y="138" type="line"/>
      <point x="5" y="0" type="line"/>
      <point x="445" y="0" type="line"/>
      <point x="462" y="146" type="line"/>
      <point x="236" y="146" type="line"/>
      <point x="455" y="397" type="line"/>
    </contour>
  </outline>
</glyph>
<glyph name="cent" format="2">
  <advance width="479"/>
  <unicode hex="00A2"/>
  <anchor x="277" y="0" name="bottom"/>
  <anchor x="292" y="534" name="top"/>
  <outline>
    <contour>
      <point x="356" y="696" type="line"/>
      <point x="222" y="696" type="line"/>
      <point x="222" y="535" type="line"/>
      <point x="356" y="538" type="line"/>
    </contour>
    <contour>
      <point x="221" y="-1" type="line"/>
      <point x="221" y="-165" type="line"/>
      <point x="356" y="-165" type="line"/>
      <point x="356" y="-5" type="line"/>
    </contour>
    <component base="c"/>
  </outline>
</glyph>
<glyph name="paragraph" format="2">
  <advance width="820"/>
  <unicode hex="00B6"/>
  <outline>
    <contour>
      <point x="720" y="696" type="line"/>
      <point x="323" y="696" type="line"/>
      <point x="298" y="662" type="line"/>
      <point x="298" y="-227" type="line"/>
      <point x="470" y="-206" type="line"/>
      <point x="470" y="563" type="line"/>
      <point x="548" y="563" type="line"/>
      <point x="548" y="-227" type="line"/>
      <point x="720" y="-206" type="line"/>
    </contour>
    <contour>
      <point x="323" y="696" type="line"/>
      <point x="148" y="696"/>
      <point x="50" y="610"/>
      <point x="50" y="473" type="curve" smooth="yes"/>
      <point x="50" y="338"/>
      <point x="144" y="246"/>
      <point x="319" y="252" type="curve"/>
    </contour>
  </outline>
</glyph>
<glyph name="Eth" format="2">
  <advance width="671"/>
  <unicode hex="00D0"/>
  <anchor x="325" y="0" name="bottom"/>
  <anchor x="343" y="348" name="center"/>
  <anchor x="306" y="696" name="top"/>
  <outline>
    <contour>
      <point x="385" y="411" type="line"/>
      <point x="59" y="411" type="line"/>
      <point x="10" y="411" type="line"/>
      <point x="10" y="295" type="line"/>
      <point x="385" y="295" type="line"/>
    </contour>
    <component base="D" xOffset="15"/>
  </outline>
</glyph>
<glyph name="multiply" format="2">
  <advance width="530"/>
  <unicode hex="00D7"/>
  <outline>
    <contour>
      <point x="378" y="525" type="line"/>
      <point x="262" y="406" type="line"/>
      <point x="152" y="525" type="line"/>
      <point x="46" y="419" type="line"/>
      <point x="159" y="303" type="line"/>
      <point x="46" y="193" type="line"/>
      <point x="152" y="87" type="line"/>
      <point x="267" y="206" type="line"/>
      <point x="378" y="87" type="line"/>
      <point x="484" y="193" type="line"/>
      <point x="370" y="309" type="line"/>
      <point x="484" y="419" type="line"/>
    </contour>
  </outline>
</glyph>
<glyph name="Thorn" format="2">
  <advance width="611"/>
  <unicode hex="00DE"/>
  <anchor x="305.5" y="0" name="bottom"/>
  <anchor x="305.5" y="696" name="top"/>
  <outline>
    <contour>
      <point x="294" y="593" type="curve" smooth="yes"/>
      <point x="243" y="593" type="line"/>
      <point x="249" y="450" type="line"/>
      <point x="291" y="450" type="line" smooth="yes"/>
      <point x="359" y="450"/>
      <point x="386" y="416"/>
      <point x="386" y="358" type="curve" smooth="yes"/>
      <point x="386" y="283"/>
      <point x="355" y="251"/>
      <point x="297" y="251" type="curve" smooth="yes"/>
      <point x="233" y="251" type="line"/>
      <point x="233" y="106" type="line"/>
      <point x="317" y="106" type="line" smooth="yes"/>
      <point x="482" y="106"/>
      <point x="596" y="188"/>
      <point x="596" y="358" type="curve" smooth="yes"/>
      <point x="596" y="515"/>
      <point x="481" y="593"/>
    </contour>
    <contour>
      <point x="249" y="696" type="line"/>
      <point x="43" y="696" type="line"/>
      <point x="43" y="0" type="line"/>
      <point x="249" y="0" type="line"/>
    </contour>
  </outline>
</glyph>
<glyph name="dcroat" format="2">
  <advance width="611"/>
  <unicode hex="0111"/>
  <anchor x="308" y="0" name="bottom"/>
  <anchor x="301" y="267" name="center"/>
  <anchor x="296" y="744" name="top"/>
  <anchor x="569" y="744" name="topright"/>
  <outline>
    <contour>
      <point x="611" y="696" type="line"/>
      <point x="237" y="696" type="line"/>
      <point x="237" y="590" type="line"/>
      <point x="559" y="590" type="line"/>
      <point x="611" y="590" type="line"/>
    </contour>
    <component base="d"/>
  </outline>
</glyph>
<glyph name="Hbar" format="2">
  <advance width="671"/>
  <unicode hex="0126"/>
  <anchor x="336" y="0" name="bottom"/>
  <anchor x="631" y="0" name="bottomright"/>
  <anchor x="336" y="348" name="center"/>
  <anchor x="336" y="696" name="top"/>
  <anchor x="50" y="696" name="topleft"/>
  <outline>
    <contour>
      <point x="671" y="601" type="line"/>
      <point x="622" y="601" type="line"/>
      <point x="0" y="601" type="line"/>
      <point x="0" y="495" type="line"/>
      <point x="49" y="495" type="line"/>
      <point x="671" y="495" type="line"/>
    </contour>
    <component base="H" xOffset="7"/>
  </outline>
</glyph>
<glyph name="hbar" format="2">
  <advance width="582"/>
  <unicode hex="0127"/>
  <anchor x="299" y="0" name="bottom"/>
  <anchor x="296" y="267" name="center"/>
  <anchor x="296" y="744" name="top"/>
  <outline>
    <contour>
      <point x="372" y="696" type="line"/>
      <point x="0" y="696" type="line"/>
      <point x="0" y="590" type="line"/>
      <point x="52" y="590" type="line"/>
      <point x="372" y="590" type="line"/>
    </contour>
    <component base="h" xOffset="10"/>
  </outline>
</glyph>
<glyph name="dotlessi" format="2">
  <advance width="282"/>
  <unicode hex="0131"/>
  <anchor x="141" y="0" name="bottom"/>
  <anchor x="210" y="0" name="ogonek"/>
  <anchor x="141" y="534" name="top"/>
  <outline>
    <contour>
      <point x="240" y="534" type="line"/>
      <point x="42" y="534" type="line"/>
      <point x="42" y="0" type="line"/>
      <point x="240" y="0" type="line"/>
    </contour>
  </outline>
</glyph>
<glyph name="Lslash" format="2">
  <advance width="576"/>
  <unicode hex="0141"/>
  <anchor x="321" y="0" name="bottom"/>
  <anchor x="457" y="404" name="center"/>
  <anchor x="200" y="696" name="top"/>
  <anchor x="313" y="696" name="topright"/>
  <outline>
    <contour>
      <point x="411" y="541" type="line"/>
      <point x="97" y="347" type="line"/>
      <point x="0" y="287" type="line"/>
      <point x="63" y="184" type="line"/>
      <point x="475" y="439" type="line"/>
    </contour>
    <component base="L" xOffset="54"/>
  </outline>
</glyph>
<glyph name="lslash" format="2">
  <advance width="386"/>
  <unicode hex="0142"/>
  <anchor x="228" y="0" name="bottom"/>
  <anchor x="431" y="373" name="center"/>
  <anchor x="178" y="744" name="top"/>
  <anchor x="287" y="744" name="topright"/>
  <outline>
    <contour>
      <point x="43" y="227" type="line"/>
      <point x="392" y="440" type="line"/>
      <point x="329" y="542" type="line"/>
      <point x="79" y="391" type="line"/>
      <point x="-20" y="329" type="line"/>
    </contour>
    <component base="l" xOffset="42"/>
  </outline>
</glyph>
<glyph name="Tbar" format="2">
  <advance width="554"/>
  <unicode hex="0166"/>
  <anchor x="277" y="0" name="bottom"/>
  <anchor x="390" y="0" name="bottomright"/>
  <anchor x="277" y="348" name="center"/>
  <anchor x="277" y="696" name="top"/>
  <outline>
    <contour>
      <point x="489" y="391" type="line"/>
      <point x="64" y="391" type="line"/>
      <point x="64" y="285" type="line"/>
      <point x="174" y="285" type="line"/>
      <point x="489" y="285" type="line"/>
    </contour>
    <component base="T"/>
  </outline>
</glyph>
<glyph name="tbar" format="2">
  <advance width="401"/>
  <unicode hex="0167"/>
  <anchor x="234" y="0" name="bottom"/>
  <anchor x="198" y="267" name="center"/>
  <anchor x="161" y="646" name="top"/>
  <anchor x="253" y="799" name="topright"/>
  <outline>
    <contour>
      <point x="360" y="364" type="line"/>
      <point x="62" y="364" type="line"/>
      <point x="5" y="364" type="line"/>
      <point x="5" y="240" type="line"/>
      <point x="360" y="240" type="line"/>
    </contour>
    <component base="t"/>
  </outline>
</glyph>
<glyph name="bstroke" format="2">
  <advance width="609"/>
  <unicode hex="0180"/>
  <anchor x="318" y="0" name="bottom"/>
  <anchor x="332" y="744" name="top"/>
  <outline>
    <contour>
      <point x="372" y="696" type="line"/>
      <point x="0" y="696" type="line"/>
      <point x="0" y="590" type="line"/>
      <point x="52" y="590" type="line"/>
      <point x="372" y="590" type="line"/>
    </contour>
    <component base="b" xOffset="10"/>
  </outline>
</glyph>
<glyph name="Dtopbar" format="2">
  <advance width="606"/>
  <unicode hex="018B"/>
  <anchor x="303" y="0" name="bottom"/>
  <anchor x="303" y="696" name="top"/>
  <outline>
    <contour>
      <point x="103" y="696" type="line"/>
      <point x="103" y="543" type="line"/>
      <point x="373" y="543" type="line"/>
      <point x="563" y="696" type="line"/>
    </contour>
    <component base="Komide-cy"/>
  </outline>
</glyph>
<glyph name="Iotaafrican" format="2">
  <advance width="406"/>
  <unicode hex="0196"/>
  <anchor x="213" y="0" name="bottom"/>
  <anchor x="136" y="696" name="top"/>
  <outline>
    <contour>
      <point x="239" y="696" type="line"/>
      <point x="33" y="696" type="line"/>
      <point x="33" y="207" type="line"/>
      <point x="239" y="207" type="line"/>
    </contour>
    <component base="hookHELPER.case" xScale="-1" xOffset="451" yOffset="207"/>
  </outline>
</glyph>
<glyph name="Nhookleft" format="2">
  <advance width="651"/>
  <unicode hex="019D"/>
  <anchor x="326" y="0" name="bottom"/>
  <anchor x="326" y="696" name="top"/>
  <outline>
    <contour>
      <point x="16" y="-227" type="curve" smooth="yes"/>
      <point x="140" y="-227"/>
      <point x="225" y="-157"/>
      <point x="225" y="-16" type="curve" smooth="yes"/>
      <point x="225" y="1" type="line"/>
      <point x="43" y="1" type="line"/>
      <point x="43" y="-34" type="line" smooth="yes"/>
      <point x="43" y="-69"/>
      <point x="24" y="-87"/>
      <point x="-9" y="-87" type="curve" smooth="yes"/>
      <point x="-37" y="-87"/>
      <point x="-53" y="-79"/>
      <point x="-77" y="-67" type="curve"/>
      <point x="-141" y="-182" type="line"/>
      <point x="-105" y="-208"/>
      <point x="-56" y="-227"/>
    </contour>
    <component base="N"/>
  </outline>
</glyph>
<glyph name="nlegrightlong" format="2">
  <advance width="572"/>
  <unicode hex="019E"/>
  <anchor x="286" y="0" name="bottom"/>
  <anchor x="291" y="534" name="top"/>
  <anchor x="33" y="534" name="topleft"/>
  <outline>
    <contour>
      <point x="535" y="1" type="line"/>
      <point x="337" y="1" type="line"/>
      <point x="337" y="-207" type="line"/>
      <point x="535" y="-227" type="line"/>
    </contour>
    <component base="n"/>
  </outline>
</glyph>
<glyph name="Zstroke" format="2">
  <advance width="557"/>
  <unicode hex="01B5"/>
  <anchor x="278.5" y="0" name="bottom"/>
  <anchor x="278.5" y="696" name="top"/>
  <outline>
    <contour>
      <point x="533" y="696" type="line"/>
      <point x="38" y="696" type="line"/>
      <point x="38" y="540" type="line"/>
      <point x="316" y="540" type="line"/>
      <point x="10" y="141" type="line"/>
      <point x="10" y="0" type="line"/>
      <point x="522" y="0" type="line"/>
      <point x="542" y="161" type="line"/>
      <point x="236" y="161" type="line"/>
      <point x="533" y="553" type="line"/>
    </contour>
    <component base="hyphen" xScale="1.3" yScale="0.8" xOffset="1" yOffset="97"/>
  </outline>
</glyph>
<glyph name="zstroke" format="2">
  <advance width="472"/>
  <unicode hex="01B6"/>
  <anchor x="236" y="0" name="bottom"/>
  <anchor x="236" y="534" name="top"/>
  <outline>
    <contour>
      <point x="455" y="534" type="line"/>
      <point x="25" y="534" type="line"/>
      <point x="25" y="400" type="line"/>
      <point x="237" y="400" type="line"/>
      <point x="5" y="128" type="line"/>
      <point x="5" y="0" type="line"/>
      <point x="445" y="0" type="line"/>
      <point x="462" y="136" type="line"/>
      <point x="226" y="136" type="line"/>
      <point x="455" y="407" type="line"/>
    </contour>
    <component base="hyphen" xScale="1.2" yScale="0.7" xOffset="-14" yOffset="59"/>
  </outline>
</glyph>
<glyph name="glottalinvertedstroke" format="2">
  <advance width="512"/>
  <unicode hex="01BE"/>
  <anchor x="228" y="0" name="bottom"/>
  <anchor x="224" y="744" name="top"/>
  <outline>
    <contour>
      <point x="63" y="626" type="line"/>
      <point x="63" y="520" type="line"/>
      <point x="130" y="520" type="line"/>
      <point x="417" y="520" type="line"/>
      <point x="417" y="626" type="line"/>
    </contour>
    <component base="glottalstopinverted"/>
  </outline>
</glyph>
<glyph name="Zhook" format="2">
  <advance width="548"/>
  <unicode hex="0224"/>
  <anchor x="274" y="-215" name="bottom"/>
  <anchor x="274" y="696" name="top"/>
  <outline>
    <contour>
      <point x="533" y="696" type="line"/>
      <point x="38" y="696" type="line"/>
      <point x="38" y="540" type="line"/>
      <point x="296" y="540" type="line"/>
      <point x="10" y="151" type="line"/>
      <point x="10" y="0" type="line"/>
      <point x="533" y="0" type="line"/>
      <point x="533" y="161" type="line"/>
      <point x="256" y="161" type="line"/>
      <point x="533" y="543" type="line"/>
    </contour>
    <contour>
      <point x="302" y="-227" type="curve" smooth="yes"/>
      <point x="440" y="-227"/>
      <point x="533" y="-157"/>
      <point x="533" y="-16" type="curve" smooth="yes"/>
      <point x="533" y="1" type="line"/>
      <point x="337" y="1" type="line"/>
      <point x="337" y="-29" type="line" smooth="yes"/>
      <point x="337" y="-64"/>
      <point x="318" y="-82"/>
      <point x="282" y="-82" type="curve" smooth="yes"/>
      <point x="249" y="-82"/>
      <point x="233" y="-74"/>
      <point x="209" y="-62" type="curve"/>
      <point x="145" y="-182" type="line"/>
      <point x="181" y="-208"/>
      <point x="230" y="-227"/>
    </contour>
  </outline>
</glyph>
<glyph name="Cstroke" format="2">
  <advance width="584"/>
  <unicode hex="023B"/>
  <anchor x="292" y="0" name="bottom"/>
  <anchor x="375" y="354" name="center"/>
  <anchor x="292" y="696" name="top"/>
  <outline>
    <contour>
      <point x="415" y="759" type="line"/>
      <point x="198" y="-62" type="line"/>
      <point x="264" y="-77" type="line"/>
      <point x="480" y="744" type="line"/>
    </contour>
    <component base="C"/>
  </outline>
</glyph>
<glyph name="cstroke" format="2">
  <advance width="479"/>
  <unicode hex="023C"/>
  <anchor x="277" y="0" name="bottom"/>
  <anchor x="292" y="534" name="top"/>
  <outline>
    <contour>
      <point x="358" y="604" type="line"/>
      <point x="182" y="-62" type="line"/>
      <point x="245" y="-77" type="line"/>
      <point x="420" y="589" type="line"/>
    </contour>
    <component base="c"/>
  </outline>
</glyph>
<glyph name="zswashtail" format="2">
  <advance width="457"/>
  <unicode hex="0240"/>
  <anchor x="228.5" y="-215" name="bottom"/>
  <anchor x="228.5" y="534" name="top"/>
  <outline>
    <contour>
      <point x="398" y="-226" type="curve" smooth="yes"/>
      <point x="450" y="-226"/>
      <point x="484" y="-212"/>
      <point x="507" y="-196" type="curve"/>
      <point x="474" y="-78" type="line"/>
      <point x="459" y="-82"/>
      <point x="447" y="-86"/>
      <point x="423" y="-86" type="curve" smooth="yes"/>
      <point x="336" y="-86"/>
      <point x="336" y="43"/>
      <point x="189" y="103" type="curve"/>
      <point x="455" y="397" type="line"/>
      <point x="455" y="534" type="line"/>
      <point x="25" y="534" type="line"/>
      <point x="25" y="390" type="line"/>
      <point x="227" y="390" type="line"/>
      <point x="5" y="138" type="line"/>
      <point x="5" y="0" type="line"/>
      <point x="228" y="-14"/>
      <point x="188" y="-226"/>
    </contour>
  </outline>
</glyph>
<glyph name="Bstroke" format="2">
  <advance width="638"/>
  <unicode hex="0243"/>
  <anchor x="326" y="0" name="bottom"/>
  <anchor x="307" y="696" name="top"/>
  <outline>
    <contour>
      <point x="355" y="266" type="line"/>
      <point x="59" y="266" type="line"/>
      <point x="10" y="266" type="line"/>
      <point x="10" y="180" type="line"/>
      <point x="355" y="180" type="line"/>
    </contour>
    <component base="B" xOffset="16"/>
  </outline>
</glyph>
<glyph name="Ubar" format="2">
  <advance width="676"/>
  <unicode hex="0244"/>
  <anchor x="338" y="0" name="bottom"/>
  <anchor x="476" y="0" name="ogonek"/>
  <anchor x="338" y="696" name="top"/>
  <anchor x="637" y="696" name="topright"/>
  <outline>
    <contour>
      <point x="676" y="601" type="line"/>
      <point x="627" y="601" type="line"/>
      <point x="0" y="601" type="line"/>
      <point x="0" y="495" type="line"/>
      <point x="49" y="495" type="line"/>
      <point x="676" y="495" type="line"/>
    </contour>
    <component base="U" xOffset="16"/>
  </outline>
</glyph>
<glyph name="Estroke" format="2">
  <advance width="520"/>
  <unicode hex="0246"/>
  <anchor x="260" y="0" name="bottom"/>
  <anchor x="465" y="0" name="ogonek"/>
  <anchor x="260" y="696" name="top"/>
  <anchor x="43" y="696" name="topleft"/>
  <outline>
    <contour>
      <point x="405" y="759" type="line"/>
      <point x="188" y="-62" type="line"/>
      <point x="254" y="-77" type="line"/>
      <point x="470" y="744" type="line"/>
    </contour>
    <component base="E"/>
  </outline>
</glyph>
<glyph name="Rstroke" format="2">
  <advance width="640"/>
  <unicode hex="024C"/>
  <anchor x="328" y="0" name="bottom"/>
  <anchor x="328" y="696" name="top"/>
  <outline>
    <contour>
      <point x="317" y="248" type="line"/>
      <point x="219" y="386" type="line"/>
      <point x="59" y="386" type="line"/>
      <point x="10" y="386" type="line"/>
      <point x="10" y="248" type="line"/>
    </contour>
    <component base="R" xOffset="16"/>
  </outline>
</glyph>
<glyph name="Ystroke" format="2">
  <advance width="621"/>
  <unicode hex="024E"/>
  <anchor x="310.5" y="0" name="bottom"/>
  <anchor x="310.5" y="696" name="top"/>
  <outline>
    <contour>
      <point x="636" y="621" type="line"/>
      <point x="599" y="621" type="line"/>
      <point x="24" y="621" type="line"/>
      <point x="-15" y="621" type="line"/>
      <point x="-15" y="515" type="line"/>
      <point x="636" y="515" type="line"/>
    </contour>
    <contour>
      <point x="636" y="696" type="line"/>
      <point x="428" y="696" type="line"/>
      <point x="314" y="392" type="line"/>
      <point x="201" y="696" type="line"/>
      <point x="-14" y="696" type="line"/>
      <point x="208" y="256" type="line"/>
      <point x="208" y="0" type="line"/>
      <point x="414" y="0" type="line"/>
      <point x="414" y="257" type="line"/>
    </contour>
  </outline>
</glyph>
<glyph name="ystroke" format="2">
  <advance width="564"/>
  <unicode hex="024F"/>
  <anchor x="277" y="-215" name="bottom"/>
  <anchor x="282" y="534" name="top"/>
  <outline>
    <contour>
      <point x="0" y="294" type="line"/>
      <point x="562" y="294" type="line"/>
      <point x="562" y="399" type="line"/>
      <point x="522" y="399" type="line"/>
      <point x="39" y="399" type="line"/>
      <point x="0" y="399" type="line"/>
    </contour>
    <component base="y" xOffset="15"/>
  </outline>
</glyph>
<glyph name="jdotlessstroke" format="2">
  <advance width="342"/>
  <unicode hex="025F"/>
  <anchor x="174" y="-215" name="bottom"/>
  <anchor x="174" y="534" name="top"/>
  <outline>
    <contour>
      <point x="2" y="194" type="line"/>
      <point x="342" y="194" type="line"/>
      <point x="342" y="329" type="line"/>
      <point x="2" y="329" type="line"/>
    </contour>
    <component base="dotlessj" xOffset="33"/>
  </outline>
</glyph>
<glyph name="hturned" format="2">
  <advance width="572"/>
  <unicode hex="0265"/>
  <anchor x="281" y="-215" name="bottom"/>
  <anchor x="281" y="534" name="top"/>
  <outline>
    <contour>
      <point x="181" y="-20" type="curve" smooth="yes"/>
      <point x="251" y="-20"/>
      <point x="302" y="8"/>
      <point x="356" y="75" type="curve"/>
      <point x="332" y="177" type="line"/>
      <point x="309" y="141"/>
      <point x="286" y="124"/>
      <point x="265" y="124" type="curve" smooth="yes"/>
      <point x="247" y="124"/>
      <point x="235" y="134"/>
      <point x="235" y="176" type="curve"/>
      <point x="235" y="534" type="line"/>
      <point x="37" y="534" type="line"/>
      <point x="37" y="140" type="line" smooth="yes"/>
      <point x="37" y="38"/>
      <point x="92" y="-20"/>
    </contour>
    <contour>
      <point x="332" y="-207" type="line"/>
      <point x="530" y="-227" type="line"/>
      <point x="530" y="534" type="line"/>
      <point x="332" y="534" type="line"/>
    </contour>
  </outline>
</glyph>
<glyph name="Ismall" format="2">
  <advance width="340"/>
  <unicode hex="026A"/>
  <anchor x="170" y="0" name="bottom"/>
  <anchor x="170" y="534" name="top"/>
  <outline>
    <contour>
      <point x="71" y="0" type="line"/>
      <point x="269" y="0" type="line"/>
      <point x="269" y="534" type="line"/>
      <point x="71" y="534" type="line"/>
    </contour>
    <contour>
      <point x="10" y="0" type="line"/>
      <point x="330" y="0" type="line"/>
      <point x="330" y="140" type="line"/>
      <point x="10" y="140" type="line"/>
    </contour>
    <contour>
      <point x="10" y="396" type="line"/>
      <point x="330" y="396" type="line"/>
      <point x="330" y="534" type="line"/>
      <point x="10" y="534" type="line"/>
    </contour>
  </outline>
</glyph>
<glyph name="lhookretroflex" format="2">
  <advance width="282"/>
  <unicode hex="026D"/>
  <anchor x="251" y="-215" name="bottom"/>
  <anchor x="141" y="744" name="top"/>
  <outline>
    <contour>
      <point x="42" y="0" type="line"/>
      <point x="240" y="0" type="line"/>
      <point x="240" y="764" type="line"/>
      <point x="42" y="744" type="line"/>
    </contour>
    <component base="hookHELPER" xScale="-1" xOffset="444"/>
  </outline>
</glyph>
<glyph name="mlonglegturned" format="2">
  <advance width="837"/>
  <unicode hex="0270"/>
  <anchor x="419" y="534" name="top"/>
  <anchor x="413" y="-215" name="bottom"/>
  <outline>
    <contour>
      <point x="597" y="98" type="line"/>
      <point x="597" y="-207" type="line"/>
      <point x="795" y="-227" type="line"/>
      <point x="795" y="98" type="line"/>
    </contour>
    <component base="mturned"/>
  </outline>
</glyph>
<glyph name="Nsmall" format="2">
  <advance width="583"/>
  <unicode hex="0274"/>
  <anchor x="292" y="0" name="bottom"/>
  <anchor x="292" y="534" name="top"/>
  <outline>
    <contour>
      <point x="541" y="534" type="line"/>
      <point x="368" y="534" type="line"/>
      <point x="368" y="427" type="line" smooth="yes"/>
      <point x="368" y="313"/>
      <point x="382" y="256"/>
      <point x="399" y="166" type="curve"/>
      <point x="272" y="534" type="line"/>
      <point x="42" y="534" type="line"/>
      <point x="42" y="0" type="line"/>
      <point x="215" y="0" type="line"/>
      <point x="215" y="115" type="line" smooth="yes"/>
      <point x="215" y="221"/>
      <point x="198" y="302"/>
      <point x="184" y="369" type="curve"/>
      <point x="308" y="0" type="line"/>
      <point x="541" y="0" type="line"/>
    </contour>
  </outline>
</glyph>
<glyph name="rlonglegturned" format="2">
  <advance width="410"/>
  <unicode hex="027A"/>
  <anchor x="269" y="744" name="top"/>
  <anchor x="157" y="0" name="bottom"/>
  <outline>
    <contour>
      <point x="170" y="533" type="line"/>
      <point x="368" y="533" type="line"/>
      <point x="368" y="744" type="line"/>
      <point x="170" y="764" type="line"/>
    </contour>
    <component base="rturned"/>
  </outline>
</glyph>
<glyph name="rhookturned" format="2">
  <advance width="410"/>
  <unicode hex="027B"/>
  <anchor x="214" y="-215" name="bottom"/>
  <anchor x="269" y="534" name="top"/>
  <outline>
    <contour>
      <point x="44" y="-17" type="curve" smooth="yes"/>
      <point x="108" y="-17"/>
      <point x="166" y="38"/>
      <point x="183" y="117" type="curve"/>
      <point x="174" y="311" type="line"/>
      <point x="159" y="233"/>
      <point x="140" y="175"/>
      <point x="70" y="175" type="curve" smooth="yes"/>
      <point x="53" y="175"/>
      <point x="38" y="178"/>
      <point x="21" y="183" type="curve"/>
      <point x="-10" y="-8" type="line"/>
      <point x="9" y="-14"/>
      <point x="23" y="-17"/>
    </contour>
    <contour>
      <point x="170" y="0" type="line"/>
      <point x="368" y="0" type="line"/>
      <point x="368" y="534" type="line"/>
      <point x="170" y="534" type="line"/>
      <point x="170" y="275" type="line"/>
      <point x="170" y="115" type="line"/>
    </contour>
    <component base="hookHELPER" xScale="-1" xOffset="572"/>
  </outline>
</glyph>
<glyph name="rlongleg" format="2">
  <advance width="410"/>
  <unicode hex="027C"/>
  <anchor x="141" y="-215" name="bottom"/>
  <anchor x="231" y="534" name="top"/>
  <outline>
    <contour>
      <point x="42" y="1" type="line"/>
      <point x="42" y="-227" type="line"/>
      <point x="240" y="-207" type="line"/>
      <point x="240" y="1" type="line"/>
    </contour>
    <component base="r"/>
  </outline>
</glyph>
<glyph name="rfishhook" format="2">
  <advance width="407"/>
  <unicode hex="027E"/>
  <anchor x="136" y="0" name="bottom"/>
  <anchor x="264" y="534" name="top"/>
  <outline>
    <contour>
      <point x="235" y="328" type="line"/>
      <point x="37" y="328" type="line"/>
      <point x="37" y="0" type="line"/>
      <point x="235" y="0" type="line"/>
    </contour>
    <component base="hookHELPER" xScale="-1" yScale="-1" xOffset="439" yOffset="328"/>
  </outline>
</glyph>
<glyph name="Rsmallinverted" format="2">
  <advance width="542"/>
  <unicode hex="0281"/>
  <anchor x="274" y="0" name="bottom"/>
  <anchor x="274" y="534" name="top"/>
  <outline>
    <contour>
      <point x="262" y="0" type="line" smooth="yes"/>
      <point x="416" y="0"/>
      <point x="504" y="56"/>
      <point x="504" y="187" type="curve" smooth="yes"/>
      <point x="504" y="294"/>
      <point x="425" y="346"/>
      <point x="339" y="362" type="curve"/>
      <point x="226" y="362" type="line"/>
      <point x="226" y="236" type="line"/>
      <point x="255" y="236" type="line" smooth="yes"/>
      <point x="293" y="236"/>
      <point x="312" y="221"/>
      <point x="312" y="181" type="curve" smooth="yes"/>
      <point x="312" y="143"/>
      <point x="292" y="132"/>
      <point x="257" y="132" type="curve" smooth="yes"/>
      <point x="230" y="132" type="line"/>
      <point x="230" y="534" type="line"/>
      <point x="42" y="534" type="line"/>
      <point x="42" y="0" type="line"/>
    </contour>
    <contour>
      <point x="407" y="312" type="line"/>
      <point x="542" y="534" type="line"/>
      <point x="349" y="534" type="line"/>
      <point x="255" y="350" type="line"/>
    </contour>
  </outline>
</glyph>
<glyph name="esh" format="2">
  <advance width="338"/>
  <unicode hex="0283"/>
  <anchor x="72" y="-215" name="bottom"/>
  <anchor x="282" y="744" name="top"/>
  <outline>
    <contour>
      <point x="268" y="534" type="line"/>
      <point x="70" y="534" type="line"/>
      <point x="70" y="0" type="line"/>
      <point x="268" y="0" type="line"/>
    </contour>
    <component base="hookaboveHELPER2" xOffset="40"/>
    <component base="hookHELPER" xOffset="-134"/>
  </outline>
</glyph>
<glyph name="jdotlessstrokehook" format="2">
  <advance width="342"/>
  <unicode hex="0284"/>
  <anchor x="174" y="-215" name="bottom"/>
  <anchor x="282" y="744" name="top"/>
  <outline>
    <contour>
      <point x="31" y="-227" type="line"/>
      <point x="163" y="-184"/>
      <point x="273" y="-111"/>
      <point x="273" y="77" type="curve" smooth="yes"/>
      <point x="273" y="534" type="line"/>
      <point x="75" y="534" type="line"/>
      <point x="75" y="32" type="line" smooth="yes"/>
      <point x="75" y="-36"/>
      <point x="32" y="-70"/>
      <point x="-34" y="-96" type="curve"/>
    </contour>
    <contour>
      <point x="-2" y="0" type="line"/>
      <point x="338" y="0" type="line"/>
      <point x="338" y="135" type="line"/>
      <point x="-2" y="135" type="line"/>
    </contour>
    <component base="hookaboveHELPER2" xOffset="45"/>
  </outline>
</glyph>
<glyph name="eshsquatreversed" format="2">
  <advance width="512"/>
  <unicode hex="0285"/>
  <anchor x="374" y="0" name="bottom"/>
  <anchor x="130" y="534" name="top"/>
  <outline>
    <contour>
      <point x="145" y="325" type="line"/>
      <point x="145" y="208" type="line"/>
      <point x="343" y="208" type="line"/>
      <point x="343" y="325" type="line"/>
    </contour>
    <component base="hookaboveHELPER2" xScale="-1" xOffset="373" yOffset="-210"/>
    <component base="hookHELPER" xScale="-1" xOffset="547" yOffset="207"/>
  </outline>
</glyph>
<glyph name="tretroflexhook" format="2">
  <advance width="401"/>
  <unicode hex="0288"/>
  <anchor x="260" y="-215" name="bottom"/>
  <anchor x="161" y="644" name="top"/>
  <outline>
    <contour>
      <point x="62" y="0" type="line"/>
      <point x="260" y="0" type="line"/>
      <point x="260" y="669" type="line"/>
      <point x="62" y="646" type="line"/>
    </contour>
    <contour>
      <point x="-2" y="400" type="line"/>
      <point x="360" y="400" type="line"/>
      <point x="380" y="534" type="line"/>
      <point x="-2" y="534" type="line"/>
    </contour>
    <component base="hookHELPER" xScale="-1" xOffset="464"/>
  </outline>
</glyph>
<glyph name="ubar" format="2">
  <advance width="622"/>
  <unicode hex="0289"/>
  <anchor x="311" y="0" name="bottom"/>
  <anchor x="562" y="0" name="ogonek"/>
  <anchor x="311" y="534" name="top"/>
  <anchor x="562" y="534" name="topright"/>
  <outline>
    <contour>
      <point x="-5" y="284" type="line"/>
      <point x="65" y="284" type="line"/>
      <point x="622" y="284" type="line"/>
      <point x="622" y="399" type="line"/>
      <point x="551" y="399" type="line"/>
      <point x="-5" y="399" type="line"/>
    </contour>
    <component base="u" xOffset="28"/>
  </outline>
</glyph>
<glyph name="yturned" format="2">
  <advance width="534"/>
  <unicode hex="028E"/>
  <anchor x="264" y="0" name="bottom"/>
  <anchor x="258" y="744" name="top"/>
  <outline>
    <contour>
      <point x="-15" y="0" type="line"/>
      <point x="189" y="0" type="line"/>
      <point x="272" y="413" type="line"/>
      <point x="339" y="0" type="line"/>
      <point x="549" y="0" type="line"/>
      <point x="397" y="534" type="line"/>
      <point x="324" y="534" type="line"/>
      <point x="348" y="594"/>
      <point x="390" y="623"/>
      <point x="498" y="633" type="curve"/>
      <point x="481" y="762" type="line"/>
      <point x="304" y="757"/>
      <point x="195" y="683"/>
      <point x="149" y="533" type="curve" smooth="yes"/>
    </contour>
  </outline>
</glyph>
<glyph name="Ysmall" format="2">
  <advance width="522"/>
  <unicode hex="028F"/>
  <anchor x="261" y="0" name="bottom"/>
  <anchor x="261" y="534" name="top"/>
  <outline>
    <contour>
      <point x="542" y="534" type="line"/>
      <point x="333" y="534" type="line"/>
      <point x="264" y="321" type="line"/>
      <point x="195" y="534" type="line"/>
      <point x="-20" y="534" type="line"/>
      <point x="162" y="188" type="line"/>
      <point x="162" y="0" type="line"/>
      <point x="360" y="0" type="line"/>
      <point x="360" y="189" type="line"/>
    </contour>
  </outline>
</glyph>
<glyph name="bilabialclick" format="2">
  <advance width="801"/>
  <unicode hex="0298"/>
  <anchor x="399.2" y="345.0" name="_center"/>
  <anchor x="400.5" y="696" name="top"/>
  <anchor x="400.5" y="0" name="bottom"/>
  <outline>
    <contour>
      <point x="401" y="716" type="curve" smooth="yes"/>
      <point x="172" y="716"/>
      <point x="20" y="560"/>
      <point x="20" y="349" type="curve" smooth="yes"/>
      <point x="20" y="128"/>
      <point x="172" y="-20"/>
      <point x="401" y="-20" type="curve" smooth="yes"/>
      <point x="630" y="-20"/>
      <point x="781" y="138"/>
      <point x="781" y="349" type="curve" smooth="yes"/>
      <point x="781" y="570"/>
      <point x="630" y="716"/>
    </contour>
    <contour>
      <point x="401" y="584" type="curve" smooth="yes"/>
      <point x="509" y="584"/>
      <point x="587" y="514"/>
      <point x="587" y="349" type="curve" smooth="yes"/>
      <point x="587" y="184"/>
      <point x="521" y="112"/>
      <point x="401" y="112" type="curve" smooth="yes"/>
      <point x="283" y="112"/>
      <point x="214" y="184"/>
      <point x="214" y="349" type="curve" smooth="yes"/>
      <point x="214" y="514"/>
      <point x="283" y="584"/>
    </contour>
    <component base="dotaccentcomb" xScale="0.8" yScale="0.8" xOffset="288" yOffset="-231"/>
  </outline>
</glyph>
<glyph name="kturned" format="2">
  <advance width="576"/>
  <unicode hex="029E"/>
  <anchor x="268" y="-215" name="bottom"/>
  <anchor x="279" y="534" name="top"/>
  <outline>
    <contour>
      <point x="-7" y="0" type="line"/>
      <point x="189" y="0" type="line"/>
      <point x="332" y="242" type="line"/>
      <point x="204" y="534" type="line"/>
      <point x="-15" y="534" type="line"/>
      <point x="134" y="234" type="line"/>
    </contour>
    <contour>
      <point x="336" y="-207" type="line"/>
      <point x="534" y="-227" type="line"/>
      <point x="534" y="534" type="line"/>
      <point x="336" y="534" type="line"/>
    </contour>
  </outline>
</glyph>
<glyph name="Lsmall" format="2">
  <advance width="459"/>
  <unicode hex="029F"/>
  <anchor x="230" y="0" name="bottom"/>
  <anchor x="141" y="534" name="top"/>
  <outline>
    <contour>
      <point x="240" y="534" type="line"/>
      <point x="42" y="534" type="line"/>
      <point x="42" y="0" type="line"/>
      <point x="434" y="0" type="line"/>
      <point x="454" y="148" type="line"/>
      <point x="240" y="148" type="line"/>
    </contour>
  </outline>
</glyph>
<glyph name="glottalstopstroke" format="2">
  <advance width="500"/>
  <unicode hex="02A1"/>
  <anchor x="228" y="0" name="bottom"/>
  <anchor x="224" y="744" name="top"/>
  <outline>
    <contour>
      <point x="63" y="226" type="line"/>
      <point x="63" y="120" type="line"/>
      <point x="130" y="120" type="line"/>
      <point x="417" y="120" type="line"/>
      <point x="417" y="226" type="line"/>
    </contour>
    <component base="glottalstop"/>
  </outline>
</glyph>
<glyph name="dzaltone" format="2">
  <advance width="1022"/>
  <unicode hex="02A3"/>
  <anchor x="511" y="0" name="bottom"/>
  <anchor x="301" y="267" name="center"/>
  <anchor x="511" y="744" name="top"/>
  <anchor x="569" y="744" name="topright"/>
  <outline>
    <contour>
      <point x="1005" y="534" type="line"/>
      <point x="545" y="534" type="line"/>
      <point x="545" y="390" type="line"/>
      <point x="787" y="390" type="line"/>
      <point x="555" y="133" type="line"/>
      <point x="555" y="0" type="line"/>
      <point x="995" y="0" type="line"/>
      <point x="1012" y="146" type="line"/>
      <point x="776" y="146" type="line"/>
      <point x="1005" y="397" type="line"/>
    </contour>
    <component base="d"/>
  </outline>
</glyph>
<glyph name="tesh" format="2">
  <advance width="658"/>
  <unicode hex="02A7"/>
  <anchor x="321" y="-215" name="bottom"/>
  <anchor x="321" y="744" name="top"/>
  <outline>
    <contour>
      <point x="260" y="669" type="line"/>
      <point x="62" y="646" type="line"/>
      <point x="62" y="197" type="line" smooth="yes"/>
      <point x="62" y="56"/>
      <point x="130" y="-19"/>
      <point x="266" y="-20" type="curve" smooth="yes"/>
      <point x="316" y="-20"/>
      <point x="372" y="-5"/>
      <point x="416" y="22" type="curve"/>
      <point x="396" y="144" type="line"/>
      <point x="372" y="139"/>
      <point x="350" y="135"/>
      <point x="321" y="135" type="curve" smooth="yes"/>
      <point x="281" y="135"/>
      <point x="260" y="149"/>
      <point x="260" y="195" type="curve" smooth="yes"/>
    </contour>
    <contour>
      <point x="460" y="534" type="line"/>
      <point x="-2" y="534" type="line"/>
      <point x="-2" y="400" type="line"/>
      <point x="440" y="400" type="line"/>
    </contour>
    <component base="esh" xOffset="320"/>
  </outline>
</glyph>
<glyph name="fengdigraph" format="2">
  <advance width="887"/>
  <unicode hex="02A9"/>
  <anchor x="460" y="-215" name="bottom"/>
  <anchor x="439" y="744" name="top"/>
  <anchor x="348" y="534" name="topleft"/>
  <outline>
    <contour>
      <point x="296" y="764" type="curve" smooth="yes"/>
      <point x="143" y="764"/>
      <point x="70" y="675"/>
      <point x="70" y="565" type="curve" smooth="yes"/>
      <point x="70" y="0" type="line"/>
      <point x="268" y="0" type="line"/>
      <point x="268" y="555" type="line" smooth="yes"/>
      <point x="268" y="605"/>
      <point x="285" y="622"/>
      <point x="323" y="622" type="curve" smooth="yes"/>
      <point x="345" y="622"/>
      <point x="373" y="617"/>
      <point x="401" y="602" type="curve"/>
      <point x="453" y="727" type="line"/>
      <point x="416" y="747"/>
      <point x="354" y="764"/>
    </contour>
    <contour>
      <point x="442" y="534" type="line"/>
      <point x="-2" y="534" type="line"/>
      <point x="-2" y="400" type="line"/>
      <point x="420" y="400" type="line"/>
    </contour>
    <component base="eng" xOffset="315"/>
  </outline>
</glyph>
<glyph name="turnedhfishhook" format="2">
  <advance width="707"/>
  <unicode hex="02AE"/>
  <anchor x="411" y="-215" name="bottom"/>
  <anchor x="401" y="534" name="top"/>
  <outline>
    <contour>
      <point x="316" y="-20" type="curve" smooth="yes"/>
      <point x="386" y="-20"/>
      <point x="437" y="8"/>
      <point x="491" y="75" type="curve"/>
      <point x="467" y="177" type="line"/>
      <point x="444" y="141"/>
      <point x="421" y="124"/>
      <point x="400" y="124" type="curve" smooth="yes"/>
      <point x="382" y="124"/>
      <point x="370" y="134"/>
      <point x="370" y="176" type="curve"/>
      <point x="370" y="328" type="line"/>
      <point x="172" y="328" type="line"/>
      <point x="172" y="140" type="line" smooth="yes"/>
      <point x="172" y="38"/>
      <point x="227" y="-20"/>
    </contour>
    <contour>
      <point x="467" y="-207" type="line"/>
      <point x="665" y="-227" type="line"/>
      <point x="665" y="534" type="line"/>
      <point x="467" y="534" type="line"/>
    </contour>
    <component base="hookHELPER" yScale="-1" xOffset="-32" yOffset="328"/>
  </outline>
</glyph>
<glyph name="tonebarextralowmod" format="2">
  <advance width="384"/>
  <unicode hex="02E9"/>
  <outline>
    <contour>
      <point x="220" y="696" type="line"/>
      <point x="220" y="118" type="line"/>
      <point x="30" y="118" type="line"/>
      <point x="30" y="0" type="line"/>
      <point x="354" y="0" type="line"/>
      <point x="354" y="696" type="line"/>
    </contour>
  </outline>
</glyph>
<glyph name="gravecomb" format="2">
  <unicode hex="0300"/>
  <anchor x="172" y="534" name="_top"/>
  <anchor x="184" y="856" name="top"/>
  <outline>
    <contour>
      <point x="104" y="856" type="line"/>
      <point x="30" y="712" type="line"/>
      <point x="281" y="613" type="line"/>
      <point x="334" y="712" type="line"/>
    </contour>
  </outline>
</glyph>
<glyph name="acutecomb" format="2">
  <unicode hex="0301"/>
  <anchor x="192" y="534" name="_top"/>
  <anchor x="192" y="856" name="top"/>
  <outline>
    <contour>
      <point x="260" y="856" type="line"/>
      <point x="30" y="712" type="line"/>
      <point x="83" y="613" type="line"/>
      <point x="334" y="712" type="line"/>
    </contour>
  </outline>
</glyph>
<glyph name="circumflexcomb" format="2">
  <unicode hex="0302"/>
  <anchor x="234" y="534" name="_top"/>
  <anchor x="236" y="840" name="top"/>
  <outline>
    <contour>
      <point x="97" y="612" type="line"/>
      <point x="234" y="708" type="line"/>
      <point x="371" y="612" type="line"/>
      <point x="438" y="689" type="line"/>
      <point x="293" y="840" type="line"/>
      <point x="175" y="840" type="line"/>
      <point x="30" y="689" type="line"/>
    </contour>
  </outline>
</glyph>
<glyph name="macroncomb" format="2">
  <unicode hex="0304"/>
  <anchor x="193" y="534" name="_top"/>
  <anchor x="193" y="750" name="top"/>
  <outline>
    <contour>
      <point x="355" y="648" type="line"/>
      <point x="355" y="782" type="line"/>
      <point x="30" y="782" type="line"/>
      <point x="30" y="648" type="line"/>
    </contour>
  </outline>
</glyph>
<glyph name="dieresiscomb" format="2">
  <unicode hex="0308"/>
  <anchor x="248" y="534" name="_top"/>
  <anchor x="250" y="818" name="top"/>
  <outline>
    <contour>
      <point x="370" y="818" type="curve" smooth="yes"/>
      <point x="318" y="818"/>
      <point x="275" y="777"/>
      <point x="275" y="726" type="curve" smooth="yes"/>
      <point x="275" y="674"/>
      <point x="318" y="633"/>
      <point x="370" y="633" type="curve" smooth="yes"/>
      <point x="424" y="633"/>
      <point x="465" y="674"/>
      <point x="465" y="726" type="curve" smooth="yes"/>
      <point x="465" y="777"/>
      <point x="424" y="818"/>
    </contour>
    <contour>
      <point x="125" y="818" type="curve" smooth="yes"/>
      <point x="73" y="818"/>
      <point x="30" y="777"/>
      <point x="30" y="726" type="curve" smooth="yes"/>
      <point x="30" y="674"/>
      <point x="73" y="633"/>
      <point x="125" y="633" type="curve" smooth="yes"/>
      <point x="179" y="633"/>
      <point x="220" y="674"/>
      <point x="220" y="726" type="curve" smooth="yes"/>
      <point x="220" y="777"/>
      <point x="179" y="818"/>
    </contour>
  </outline>
</glyph>
<glyph name="hungarumlautcomb" format="2">
  <unicode hex="030B"/>
  <anchor x="187" y="534" name="_top"/>
  <outline>
    <contour>
      <point x="316" y="877" type="line"/>
      <point x="212" y="666" type="line"/>
      <point x="308" y="620" type="line"/>
      <point x="439" y="816" type="line"/>
    </contour>
    <contour>
      <point x="126" y="877" type="line"/>
      <point x="30" y="663" type="line"/>
      <point x="128" y="624" type="line"/>
      <point x="251" y="821" type="line"/>
    </contour>
  </outline>
</glyph>
<glyph name="caroncomb" format="2">
  <unicode hex="030C"/>
  <anchor x="234" y="534" name="_top"/>
  <anchor x="236" y="830" name="top"/>
  <outline>
    <contour>
      <point x="371" y="830" type="line"/>
      <point x="234" y="734" type="line"/>
      <point x="97" y="830" type="line"/>
      <point x="30" y="753" type="line"/>
      <point x="175" y="602" type="line"/>
      <point x="293" y="602" type="line"/>
      <point x="438" y="753" type="line"/>
    </contour>
  </outline>
</glyph>
<glyph name="verticallineabovecomb" format="2">
  <unicode hex="030D"/>
  <anchor x="115" y="534" name="_top"/>
  <anchor x="117" y="896" name="top"/>
  <outline>
    <contour>
      <point x="30" y="616" type="line"/>
      <point x="200" y="616" type="line"/>
      <point x="200" y="896" type="line"/>
      <point x="30" y="896" type="line"/>
    </contour>
  </outline>
</glyph>
<glyph name="lefttackbelowcomb" format="2">
  <unicode hex="0318"/>
  <anchor x="142" y="0" name="_bottom"/>
  <anchor x="144" y="-356" name="bottom"/>
  <outline>
    <contour>
      <point x="140" y="-55" type="line"/>
      <point x="140" y="-154" type="line"/>
      <point x="30" y="-154" type="line"/>
      <point x="30" y="-257" type="line"/>
      <point x="140" y="-257" type="line"/>
      <point x="140" y="-355" type="line"/>
      <point x="254" y="-355" type="line"/>
      <point x="254" y="-55" type="line"/>
    </contour>
  </outline>
</glyph>
<glyph name="leftangleabovecomb" format="2">
  <unicode hex="031A"/>
  <anchor x="144" y="534" name="_top"/>
  <anchor x="146" y="815" name="top"/>
  <outline>
    <contour>
      <point x="30" y="815" type="line"/>
      <point x="30" y="715" type="line"/>
      <point x="144" y="715" type="line"/>
      <point x="144" y="596" type="line"/>
      <point x="257" y="596" type="line"/>
      <point x="257" y="815" type="line"/>
    </contour>
  </outline>
</glyph>
<glyph name="bridgebelowcomb" format="2">
  <unicode hex="032A"/>
  <anchor x="190" y="0" name="_bottom"/>
  <anchor x="192" y="-259" name="bottom"/>
  <outline>
    <contour>
      <point x="30" y="-259" type="line"/>
      <point x="143" y="-259" type="line"/>
      <point x="143" y="-179" type="line"/>
      <point x="237" y="-179" type="line"/>
      <point x="237" y="-259" type="line"/>
      <point x="350" y="-259" type="line"/>
      <point x="350" y="-85" type="line"/>
      <point x="30" y="-85" type="line"/>
    </contour>
  </outline>
</glyph>
<glyph name="circumflexbelowcomb" format="2">
  <unicode hex="032D"/>
  <anchor x="234" y="0" name="_bottom"/>
  <anchor x="236" y="-288" name="bottom"/>
  <outline>
    <contour>
      <point x="97" y="-288" type="line"/>
      <point x="234" y="-192" type="line"/>
      <point x="371" y="-288" type="line"/>
      <point x="438" y="-211" type="line"/>
      <point x="293" y="-60" type="line"/>
      <point x="175" y="-60" type="line"/>
      <point x="30" y="-211" type="line"/>
    </contour>
  </outline>
</glyph>
<glyph name="squarebelowcomb" format="2">
  <unicode hex="033B"/>
  <anchor x="190" y="0" name="_bottom"/>
  <anchor x="192" y="-258" name="bottom"/>
  <outline>
    <contour>
      <point x="30" y="-258" type="line"/>
      <point x="350" y="-258" type="line"/>
      <point x="350" y="-58" type="line"/>
      <point x="30" y="-58" type="line"/>
    </contour>
    <contour>
      <point x="115" y="-189" type="line"/>
      <point x="115" y="-127" type="line"/>
      <point x="265" y="-127" type="line"/>
      <point x="265" y="-189" type="line"/>
    </contour>
  </outline>
</glyph>
<glyph name="seagullbelowcomb" format="2">
  <unicode hex="033C"/>
  <anchor x="253" y="0" name="_bottom"/>
  <anchor x="255" y="-246" name="bottom"/>
  <outline>
    <contour>
      <point x="108" y="-246" type="line"/>
      <point x="116" y="-199"/>
      <point x="128" y="-177"/>
      <point x="158" y="-177" type="curve" smooth="yes"/>
      <point x="188" y="-177"/>
      <point x="200" y="-199"/>
      <point x="208" y="-246" type="curve"/>
      <point x="276" y="-246" type="line"/>
      <point x="271" y="-137"/>
      <point x="233" y="-53"/>
      <point x="153" y="-53" type="curve" smooth="yes"/>
      <point x="73" y="-53"/>
      <point x="35" y="-137"/>
      <point x="30" y="-236" type="curve"/>
    </contour>
    <contour>
      <point x="230" y="-246" type="curve"/>
      <point x="298" y="-246" type="line"/>
      <point x="306" y="-199"/>
      <point x="318" y="-177"/>
      <point x="348" y="-177" type="curve" smooth="yes"/>
      <point x="378" y="-177"/>
      <point x="390" y="-199"/>
      <point x="398" y="-246" type="curve"/>
      <point x="476" y="-236" type="line"/>
      <point x="471" y="-137"/>
      <point x="433" y="-53"/>
      <point x="353" y="-53" type="curve" smooth="yes"/>
      <point x="273" y="-53"/>
      <point x="235" y="-137"/>
    </contour>
  </outline>
</glyph>
<glyph name="Heta" format="2">
  <advance width="523"/>
  <unicode hex="0370"/>
  <anchor x="261.5" y="0" name="bottom"/>
  <anchor x="261.5" y="696" name="top"/>
  <outline>
    <contour>
      <point x="523" y="281" type="line"/>
      <point x="523" y="439" type="line"/>
      <point x="249" y="439" type="line"/>
      <point x="249" y="696" type="line"/>
      <point x="43" y="696" type="line"/>
      <point x="43" y="0" type="line"/>
      <point x="249" y="0" type="line"/>
      <point x="249" y="281" type="line"/>
    </contour>
  </outline>
</glyph>
<glyph name="tonos" format="2">
  <advance width="302"/>
  <unicode hex="0384"/>
  <anchor x="101" y="534" name="_top"/>
  <outline>
    <contour>
      <point x="78" y="868" type="line"/>
      <point x="40" y="603" type="line"/>
      <point x="166" y="582" type="line"/>
      <point x="267" y="829" type="line"/>
    </contour>
  </outline>
</glyph>
<glyph name="Delta" format="2">
  <advance width="609"/>
  <unicode hex="0394"/>
  <anchor x="304.5" y="0" name="bottom"/>
  <anchor x="304.5" y="696" name="top"/>
  <outline>
    <contour>
      <point x="303" y="549" type="line"/>
      <point x="385" y="146" type="line"/>
      <point x="220" y="146" type="line"/>
    </contour>
    <contour>
      <point x="428" y="696" type="line"/>
      <point x="182" y="696" type="line"/>
      <point x="-25" y="0" type="line"/>
      <point x="634" y="0" type="line"/>
    </contour>
  </outline>
</glyph>
<glyph name="Lambda" format="2">
  <advance width="601"/>
  <unicode hex="039B"/>
  <anchor x="296" y="0" name="bottom"/>
  <anchor x="295" y="696" name="top"/>
  <outline>
    <contour>
      <point x="424" y="696" type="line"/>
      <point x="178" y="696" type="line"/>
      <point x="-25" y="0" type="line"/>
      <point x="190" y="0" type="line"/>
      <point x="299" y="552" type="line"/>
      <point x="408" y="0" type="line"/>
      <point x="626" y="0" type="line"/>
    </contour>
  </outline>
</glyph>
<glyph name="Xi" format="2">
  <advance width="532"/>
  <unicode hex="039E"/>
  <anchor x="266" y="0" name="bottom"/>
  <anchor x="266" y="696" name="top"/>
  <outline>
    <contour>
      <point x="512" y="174" type="line"/>
      <point x="20" y="174" type="line"/>
      <point x="20" y="0" type="line"/>
      <point x="512" y="0" type="line"/>
    </contour>
    <contour>
      <point x="446" y="431" type="line"/>
      <point x="86" y="431" type="line"/>
      <point x="86" y="276" type="line"/>
      <point x="446" y="276" type="line"/>
    </contour>
    <contour>
      <point x="517" y="696" type="line"/>
      <point x="20" y="696" type="line"/>
      <point x="20" y="528" type="line"/>
      <point x="494" y="528" type="line"/>
    </contour>
  </outline>
</glyph>
<glyph name="iota" format="2">
  <advance width="281"/>
  <unicode hex="03B9"/>
  <anchor x="140.5" y="0" name="bottom"/>
  <anchor x="136" y="534" name="top"/>
  <outline>
    <contour>
      <point x="235" y="534" type="line"/>
      <point x="37" y="534" type="line"/>
      <point x="37" y="176" type="line" smooth="yes"/>
      <point x="37" y="52"/>
      <point x="106" y="-4"/>
      <point x="220" y="-20" type="curve"/>
      <point x="276" y="121" type="line"/>
      <point x="245" y="137"/>
      <point x="235" y="157"/>
      <point x="235" y="202" type="curve" smooth="yes"/>
    </contour>
  </outline>
</glyph>
<glyph name="rho" format="2">
  <advance width="589"/>
  <unicode hex="03C1"/>
  <anchor x="292" y="-215" name="bottom"/>
  <anchor x="296" y="534" name="top"/>
  <outline>
    <contour>
      <point x="296" y="554" type="curve" smooth="yes"/>
      <point x="116" y="554"/>
      <point x="32" y="452"/>
      <point x="32" y="277" type="curve"/>
      <point x="32" y="-227" type="line"/>
      <point x="230" y="-207" type="line"/>
      <point x="230" y="263" type="line" smooth="yes"/>
      <point x="230" y="373"/>
      <point x="248" y="413"/>
      <point x="296" y="413" type="curve" smooth="yes"/>
      <point x="334" y="413"/>
      <point x="364" y="391"/>
      <point x="364" y="266" type="curve" smooth="yes"/>
      <point x="364" y="158"/>
      <point x="334" y="121"/>
      <point x="293" y="121" type="curve" smooth="yes"/>
      <point x="261" y="121"/>
      <point x="241" y="136"/>
      <point x="218" y="188" type="curve"/>
      <point x="209" y="71" type="line"/>
      <point x="250" y="2"/>
      <point x="298" y="-20"/>
      <point x="354" y="-20" type="curve"/>
      <point x="482" y="-20"/>
      <point x="567" y="103"/>
      <point x="567" y="269" type="curve" smooth="yes"/>
      <point x="567" y="458"/>
      <point x="469" y="554"/>
    </contour>
  </outline>
</glyph>
<glyph name="KaiSymbol" format="2">
  <advance width="689"/>
  <unicode hex="03CF"/>
  <anchor x="344.5" y="-215" name="bottom"/>
  <anchor x="330" y="696" name="top"/>
  <outline>
    <contour>
      <point x="483" y="154" type="line"/>
      <point x="483" y="0" type="line"/>
      <point x="689" y="0" type="line"/>
      <point x="689" y="154" type="line"/>
    </contour>
    <component base="Kappa"/>
    <component base="hookHELPER.case" xOffset="271"/>
  </outline>
</glyph>
<glyph name="koppaArchaic" format="2">
  <advance width="584"/>
  <unicode hex="03D9"/>
  <anchor x="292" y="-215" name="bottom"/>
  <anchor x="415" y="0" name="ogonek"/>
  <anchor x="292" y="534" name="top"/>
  <anchor x="509" y="534" name="topright"/>
  <outline>
    <contour>
      <point x="379" y="7" type="line"/>
      <point x="205" y="7" type="line"/>
      <point x="205" y="-227" type="line"/>
      <point x="379" y="-207" type="line"/>
    </contour>
    <component base="o"/>
  </outline>
</glyph>
<glyph name="Digamma" format="2">
  <advance width="516"/>
  <unicode hex="03DC"/>
  <anchor x="146" y="0" name="bottom"/>
  <anchor x="259" y="0" name="bottomright"/>
  <anchor x="286" y="696" name="top"/>
  <outline>
    <contour>
      <point x="429" y="242" type="curve"/>
      <point x="474" y="370" type="line"/>
      <point x="441" y="392"/>
      <point x="401" y="402"/>
      <point x="345" y="402" type="curve" smooth="yes"/>
      <point x="72" y="402" type="line"/>
      <point x="72" y="258" type="line"/>
      <point x="335" y="258" type="line" smooth="yes"/>
      <point x="376" y="258"/>
      <point x="401" y="252"/>
    </contour>
    <component base="Gamma"/>
  </outline>
</glyph>
<glyph name="Koppa" format="2">
  <advance width="518"/>
  <unicode hex="03DE"/>
  <anchor x="259" y="0" name="bottom"/>
  <anchor x="259" y="696" name="top"/>
  <outline>
    <contour>
      <point x="100" y="0" type="line"/>
      <point x="329" y="0" type="line"/>
      <point x="508" y="271" type="line"/>
      <point x="315" y="307" type="line"/>
    </contour>
    <contour>
      <point x="40" y="271" type="line"/>
      <point x="508" y="271" type="line"/>
      <point x="478" y="426" type="line"/>
      <point x="10" y="426" type="line"/>
    </contour>
    <contour>
      <point x="206" y="390" type="line"/>
      <point x="418" y="696" type="line"/>
      <point x="189" y="696" type="line"/>
      <point x="10" y="426" type="line"/>
    </contour>
  </outline>
</glyph>
<glyph name="Sampi" format="2">
  <advance width="613"/>
  <unicode hex="03E0"/>
  <anchor x="306.5" y="0" name="bottom"/>
  <anchor x="306.5" y="696" name="top"/>
  <outline>
    <contour>
      <point x="453" y="0" type="line"/>
      <point x="638" y="0" type="line"/>
      <point x="373" y="696" type="line"/>
      <point x="196" y="696" type="line"/>
      <point x="281" y="536" type="line"/>
    </contour>
    <contour>
      <point x="-25" y="0" type="line"/>
      <point x="152" y="0" type="line"/>
      <point x="363" y="666" type="line"/>
      <point x="226" y="646" type="line"/>
    </contour>
    <contour>
      <point x="219" y="0" type="line"/>
      <point x="345" y="0" type="line"/>
      <point x="443" y="389" type="line"/>
      <point x="342" y="395" type="line"/>
    </contour>
  </outline>
</glyph>
<glyph name="rhoStrokeSymbol" format="2">
  <advance width="594"/>
  <unicode hex="03FC"/>
  <anchor x="292" y="-215" name="bottom"/>
  <anchor x="296" y="534" name="top"/>
  <outline>
    <contour>
      <point x="-15" y="-46" type="line"/>
      <point x="-15" y="-152" type="line"/>
      <point x="37" y="-152" type="line"/>
      <point x="359" y="-152" type="line"/>
      <point x="359" y="-46" type="line"/>
    </contour>
    <component base="rho"/>
  </outline>
</glyph>
<glyph name="Tshe-cy" format="2">
  <advance width="770"/>
  <unicode hex="040B"/>
  <anchor x="450.5" y="0.0" name="bottom"/>
  <anchor x="760" y="0" name="bottomright"/>
  <anchor x="450.5" y="696.0" name="top"/>
  <outline>
    <contour>
      <point x="559" y="696" type="line"/>
      <point x="5" y="696" type="line"/>
      <point x="5" y="546" type="line"/>
      <point x="538" y="546" type="line"/>
    </contour>
    <component base="Shha-cy" xOffset="131"/>
  </outline>
</glyph>
<glyph name="Ge-cy" format="2">
  <advance width="511"/>
  <unicode hex="0413"/>
  <anchor x="146" y="0" name="bottom"/>
  <anchor x="259" y="0" name="bottomright"/>
  <anchor x="286" y="696" name="top"/>
  <outline>
    <contour>
      <point x="43" y="696" type="line"/>
      <point x="43" y="0" type="line"/>
      <point x="249" y="0" type="line"/>
      <point x="249" y="584" type="line"/>
    </contour>
    <contour>
      <point x="516" y="696" type="line"/>
      <point x="43" y="696" type="line"/>
      <point x="233" y="538" type="line"/>
      <point x="496" y="538" type="line"/>
    </contour>
  </outline>
</glyph>
<glyph name="Ii-cy" format="2">
  <advance width="651"/>
  <unicode hex="0418"/>
  <anchor x="325.5" y="0" name="bottom"/>
  <anchor x="618" y="0" name="bottomright"/>
  <anchor x="326" y="696" name="top"/>
  <outline>
    <contour>
      <point x="608" y="696" type="line"/>
      <point x="369" y="696" type="line"/>
      <point x="214" y="200" type="line"/>
      <point x="228" y="272"/>
      <point x="244" y="348"/>
      <point x="244" y="475" type="curve" smooth="yes"/>
      <point x="244" y="696" type="line"/>
      <point x="43" y="696" type="line"/>
      <point x="43" y="0" type="line"/>
      <point x="287" y="0" type="line"/>
      <point x="437" y="501" type="line"/>
      <point x="422" y="432"/>
      <point x="407" y="342"/>
      <point x="407" y="213" type="curve" smooth="yes"/>
      <point x="407" y="0" type="line"/>
      <point x="608" y="0" type="line"/>
    </contour>
  </outline>
</glyph>
<glyph name="Ka-cy" format="2">
  <advance width="644"/>
  <unicode hex="041A"/>
  <anchor x="322" y="0" name="bottom"/>
  <anchor x="589" y="0" name="bottomright"/>
  <anchor x="322" y="696" name="top"/>
  <outline>
    <contour>
      <point x="641" y="696" type="line"/>
      <point x="443" y="696" type="line"/>
      <point x="314" y="433" type="line"/>
      <point x="249" y="433" type="line"/>
      <point x="249" y="696" type="line"/>
      <point x="43" y="696" type="line"/>
      <point x="43" y="0" type="line"/>
      <point x="249" y="0" type="line"/>
      <point x="249" y="288" type="line"/>
      <point x="309" y="288" type="line"/>
      <point x="438" y="0" type="line"/>
      <point x="659" y="0" type="line"/>
      <point x="482" y="387" type="line"/>
    </contour>
  </outline>
</glyph>
<glyph name="El-cy" format="2">
  <advance width="653"/>
  <unicode hex="041B"/>
  <anchor x="326.5" y="0" name="bottom"/>
  <anchor x="620" y="0" name="bottomright"/>
  <anchor x="326.5" y="696" name="top"/>
  <outline>
    <contour>
      <point x="610" y="696" type="line"/>
      <point x="133" y="696" type="line"/>
      <point x="290" y="544" type="line"/>
      <point x="404" y="544" type="line"/>
      <point x="404" y="0" type="line"/>
      <point x="610" y="0" type="line"/>
    </contour>
    <contour>
      <point x="133" y="696" type="line"/>
      <point x="93" y="364" type="line" smooth="yes"/>
      <point x="74" y="208"/>
      <point x="66" y="150"/>
      <point x="-5" y="120" type="curve"/>
      <point x="43" y="-20" type="line"/>
      <point x="214" y="11"/>
      <point x="257" y="135"/>
      <point x="282" y="348" type="curve" smooth="yes"/>
      <point x="306" y="555" type="line"/>
    </contour>
  </outline>
</glyph>
<glyph name="Sha-cy" format="2">
  <advance width="900"/>
  <unicode hex="0428"/>
  <anchor x="450" y="0" name="bottom"/>
  <anchor x="867" y="0" name="bottomright"/>
  <anchor x="450" y="696" name="top"/>
  <outline>
    <contour>
      <point x="857" y="696" type="line"/>
      <point x="655" y="696" type="line"/>
      <point x="655" y="158" type="line"/>
      <point x="546" y="158" type="line"/>
      <point x="546" y="696" type="line"/>
      <point x="354" y="696" type="line"/>
      <point x="354" y="158" type="line"/>
      <point x="245" y="158" type="line"/>
      <point x="245" y="696" type="line"/>
      <point x="43" y="696" type="line"/>
      <point x="43" y="0" type="line"/>
      <point x="857" y="0" type="line"/>
    </contour>
  </outline>
</glyph>
<glyph name="Hardsign-cy" format="2">
  <advance width="732"/>
  <unicode hex="042A"/>
  <anchor x="429" y="0" name="bottom"/>
  <anchor x="429" y="696" name="top"/>
  <outline>
    <contour>
      <point x="169" y="546" type="line"/>
      <point x="375" y="696" type="line"/>
      <point x="0" y="696" type="line"/>
      <point x="0" y="546" type="line"/>
    </contour>
    <component base="Softsign-cy" xOffset="126"/>
  </outline>
</glyph>
<glyph name="ge-cy" format="2">
  <advance width="436"/>
  <unicode hex="0433"/>
  <anchor x="141" y="0" name="bottom"/>
  <anchor x="250" y="0" name="bottomright"/>
  <anchor x="244" y="534" name="top"/>
  <outline>
    <contour>
      <point x="240" y="0" type="line"/>
      <point x="240" y="387" type="line"/>
      <point x="423" y="387" type="line"/>
      <point x="446" y="534" type="line"/>
      <point x="42" y="534" type="line"/>
      <point x="42" y="0" type="line"/>
    </contour>
  </outline>
</glyph>
<glyph name="zhe-cy" format="2">
  <advance width="781"/>
  <unicode hex="0436"/>
  <anchor x="390.5" y="0" name="bottom"/>
  <anchor x="716" y="0" name="bottomright"/>
  <anchor x="391" y="534" name="top"/>
  <outline>
    <contour>
      <point x="778" y="534" type="line"/>
      <point x="597" y="534" type="line"/>
      <point x="512" y="329" type="line"/>
      <point x="475" y="329" type="line"/>
      <point x="475" y="534" type="line"/>
      <point x="306" y="534" type="line"/>
      <point x="306" y="329" type="line"/>
      <point x="269" y="329" type="line"/>
      <point x="185" y="534" type="line"/>
      <point x="3" y="534" type="line"/>
      <point x="119" y="286" type="line"/>
      <point x="-5" y="0" type="line"/>
      <point x="191" y="0" type="line"/>
      <point x="272" y="219" type="line"/>
      <point x="306" y="219" type="line"/>
      <point x="306" y="0" type="line"/>
      <point x="475" y="0" type="line"/>
      <point x="475" y="219" type="line"/>
      <point x="509" y="219" type="line"/>
      <point x="589" y="0" type="line"/>
      <point x="786" y="0" type="line"/>
      <point x="662" y="286" type="line"/>
    </contour>
  </outline>
</glyph>
<glyph name="ii-cy" format="2">
  <advance width="585"/>
  <unicode hex="0438"/>
  <anchor x="292.5" y="0" name="bottom"/>
  <anchor x="553" y="0" name="bottomright"/>
  <anchor x="293" y="534" name="top"/>
  <outline>
    <contour>
      <point x="543" y="534" type="line"/>
      <point x="350" y="534" type="line"/>
      <point x="201" y="178" type="line"/>
      <point x="217" y="233"/>
      <point x="229" y="297"/>
      <point x="229" y="370" type="curve" smooth="yes"/>
      <point x="229" y="534" type="line"/>
      <point x="42" y="534" type="line"/>
      <point x="42" y="0" type="line"/>
      <point x="234" y="0" type="line"/>
      <point x="385" y="352" type="line"/>
      <point x="370" y="297"/>
      <point x="357" y="234"/>
      <point x="357" y="160" type="curve" smooth="yes"/>
      <point x="357" y="0" type="line"/>
      <point x="543" y="0" type="line"/>
    </contour>
  </outline>
</glyph>
<glyph name="ka-cy" format="2">
  <advance width="566"/>
  <unicode hex="043A"/>
  <anchor x="283" y="0" name="bottom"/>
  <anchor x="506" y="0" name="bottomright"/>
  <anchor x="283" y="534" name="top"/>
  <outline>
    <contour>
      <point x="568" y="534" type="line"/>
      <point x="385" y="534" type="line"/>
      <point x="282" y="329" type="line"/>
      <point x="240" y="329" type="line"/>
      <point x="240" y="534" type="line"/>
      <point x="42" y="534" type="line"/>
      <point x="42" y="0" type="line"/>
      <point x="240" y="0" type="line"/>
      <point x="240" y="219" type="line"/>
      <point x="277" y="219" type="line"/>
      <point x="374" y="0" type="line"/>
      <point x="576" y="0" type="line"/>
      <point x="439" y="286" type="line"/>
    </contour>
  </outline>
</glyph>
<glyph name="en-cy" format="2">
  <advance width="582"/>
  <unicode hex="043D"/>
  <anchor x="291" y="0" name="bottom"/>
  <anchor x="550" y="0" name="bottomright"/>
  <anchor x="291" y="534" name="top"/>
  <outline>
    <contour>
      <point x="342" y="0" type="line"/>
      <point x="540" y="0" type="line"/>
      <point x="540" y="534" type="line"/>
      <point x="342" y="534" type="line"/>
      <point x="342" y="341" type="line"/>
      <point x="240" y="341" type="line"/>
      <point x="240" y="534" type="line"/>
      <point x="42" y="534" type="line"/>
      <point x="42" y="0" type="line"/>
      <point x="240" y="0" type="line"/>
      <point x="240" y="199" type="line"/>
      <point x="342" y="199" type="line"/>
    </contour>
  </outline>
</glyph>
<glyph name="pe-cy" format="2">
  <advance width="578"/>
  <unicode hex="043F"/>
  <anchor x="289" y="0" name="bottom"/>
  <anchor x="546" y="0" name="bottomright"/>
  <anchor x="289" y="534" name="top"/>
  <outline>
    <contour>
      <point x="338" y="0" type="line"/>
      <point x="536" y="0" type="line"/>
      <point x="536" y="534" type="line"/>
      <point x="42" y="534" type="line"/>
      <point x="42" y="0" type="line"/>
      <point x="240" y="0" type="line"/>
      <point x="240" y="391" type="line"/>
      <point x="338" y="391" type="line"/>
    </contour>
  </outline>
</glyph>
<glyph name="te-cy" format="2">
  <advance width="485"/>
  <unicode hex="0442"/>
  <anchor x="242.5" y="0" name="bottom"/>
  <anchor x="352" y="0" name="bottomright"/>
  <anchor x="242.5" y="534" name="top"/>
  <outline>
    <contour>
      <point x="495" y="534" type="line"/>
      <point x="0" y="534" type="line"/>
      <point x="0" y="391" type="line"/>
      <point x="144" y="391" type="line"/>
      <point x="144" y="0" type="line"/>
      <point x="342" y="0" type="line"/>
      <point x="342" y="391" type="line"/>
      <point x="470" y="391" type="line"/>
    </contour>
  </outline>
</glyph>
<glyph name="hardsign-cy" format="2">
  <advance width="623"/>
  <unicode hex="044A"/>
  <anchor x="360" y="0" name="bottom"/>
  <anchor x="360" y="534" name="top"/>
  <outline>
    <contour>
      <point x="139" y="395" type="line"/>
      <point x="327" y="534" type="line"/>
      <point x="-5" y="534" type="line"/>
      <point x="-5" y="395" type="line"/>
    </contour>
    <component base="softsign-cy" xOffset="97"/>
  </outline>
</glyph>
<glyph name="ereversed-cy" format="2">
  <advance width="487"/>
  <unicode hex="044D"/>
  <anchor x="243.5" y="0" name="bottom"/>
  <anchor x="227" y="534" name="top"/>
  <outline>
    <contour>
      <point x="207" y="554" type="curve" smooth="yes"/>
      <point x="125" y="554"/>
      <point x="60" y="530"/>
      <point x="8" y="488" type="curve"/>
      <point x="90" y="382" type="line"/>
      <point x="125" y="405"/>
      <point x="155" y="414"/>
      <point x="190" y="414" type="curve" smooth="yes"/>
      <point x="240" y="414"/>
      <point x="273" y="385"/>
      <point x="272" y="298" type="curve"/>
      <point x="273" y="245" type="line"/>
      <point x="273" y="147"/>
      <point x="230" y="120"/>
      <point x="180" y="120" type="curve" smooth="yes"/>
      <point x="147" y="120"/>
      <point x="120" y="128"/>
      <point x="82" y="151" type="curve"/>
      <point x="0" y="41" type="line"/>
      <point x="54" y="2"/>
      <point x="112" y="-20"/>
      <point x="189" y="-20" type="curve" smooth="yes"/>
      <point x="370" y="-20"/>
      <point x="470" y="96"/>
      <point x="470" y="263" type="curve" smooth="yes"/>
      <point x="470" y="442"/>
      <point x="367" y="554"/>
    </contour>
    <contour>
      <point x="286" y="323" type="line"/>
      <point x="97" y="323" type="line"/>
      <point x="97" y="219" type="line"/>
      <point x="287" y="219" type="line"/>
    </contour>
  </outline>
</glyph>
<glyph name="Eiotified-cy" format="2">
  <advance width="869"/>
  <unicode hex="0464"/>
  <anchor x="434.5" y="0" name="bottom"/>
  <anchor x="434.5" y="696" name="top"/>
  <outline>
    <contour>
      <point x="249" y="696" type="line"/>
      <point x="43" y="696" type="line"/>
      <point x="43" y="0" type="line"/>
      <point x="249" y="0" type="line"/>
      <point x="249" y="280" type="line"/>
      <point x="378" y="280" type="line"/>
      <point x="378" y="428" type="line"/>
      <point x="249" y="428" type="line"/>
    </contour>
    <component base="E-cy" xOffset="290"/>
  </outline>
</glyph>
<glyph name="eiotified-cy" format="2">
  <advance width="761"/>
  <unicode hex="0465"/>
  <anchor x="380.5" y="0" name="bottom"/>
  <anchor x="380.5" y="534" name="top"/>
  <outline>
    <contour>
      <point x="240" y="534" type="line"/>
      <point x="42" y="534" type="line"/>
      <point x="42" y="0" type="line"/>
      <point x="240" y="0" type="line"/>
      <point x="240" y="207" type="line"/>
      <point x="307" y="207" type="line"/>
      <point x="308" y="333" type="line"/>
      <point x="240" y="333" type="line"/>
    </contour>
    <component base="e-cy" xOffset="272"/>
  </outline>
</glyph>
<glyph name="Yuslittleiotified-cy" format="2">
  <advance width="964"/>
  <unicode hex="0468"/>
  <anchor x="482" y="0" name="bottom"/>
  <anchor x="482" y="696" name="top"/>
  <outline>
    <contour>
      <point x="474" y="239" type="line"/>
      <point x="474" y="382" type="line"/>
      <point x="249" y="382" type="line"/>
      <point x="249" y="694" type="line"/>
      <point x="43" y="694" type="line"/>
      <point x="43" y="-2" type="line"/>
      <point x="249" y="-2" type="line"/>
      <point x="249" y="239" type="line"/>
    </contour>
    <component base="Yuslittle-cy" xOffset="285"/>
  </outline>
</glyph>
<glyph name="Yusbig-cy" format="2">
  <advance width="842"/>
  <unicode hex="046A"/>
  <anchor x="421" y="0" name="bottom"/>
  <anchor x="421" y="696" name="top"/>
  <outline>
    <contour>
      <point x="-15" y="0" type="line"/>
      <point x="194" y="0" type="line"/>
      <point x="299" y="248" type="line"/>
      <point x="330" y="248" type="line"/>
      <point x="330" y="0" type="line"/>
      <point x="516" y="0" type="line"/>
      <point x="516" y="248" type="line"/>
      <point x="547" y="248" type="line"/>
      <point x="648" y="0" type="line"/>
      <point x="857" y="0" type="line"/>
      <point x="688" y="387" type="line"/>
      <point x="156" y="387" type="line"/>
    </contour>
    <contour>
      <point x="283" y="319" type="line"/>
      <point x="555" y="320" type="line"/>
      <point x="747" y="576" type="line"/>
      <point x="747" y="696" type="line"/>
      <point x="606" y="696" type="line"/>
      <point x="423" y="387" type="line"/>
      <point x="238" y="696" type="line"/>
      <point x="97" y="696" type="line"/>
      <point x="97" y="576" type="line"/>
    </contour>
    <contour>
      <point x="235" y="563" type="line"/>
      <point x="624" y="563" type="line"/>
      <point x="624" y="696" type="line"/>
      <point x="235" y="696" type="line"/>
    </contour>
  </outline>
</glyph>
<glyph name="Yusbigiotified-cy" format="2">
  <advance width="1031"/>
  <unicode hex="046C"/>
  <anchor x="515.5" y="0" name="bottom"/>
  <anchor x="515.5" y="696" name="top"/>
  <outline>
    <contour>
      <point x="272" y="0" type="line"/>
      <point x="481" y="0" type="line"/>
      <point x="532" y="248" type="line"/>
      <point x="567" y="248" type="line"/>
      <point x="567" y="0" type="line"/>
      <point x="753" y="0" type="line"/>
      <point x="753" y="248" type="line"/>
      <point x="788" y="248" type="line"/>
      <point x="839" y="0" type="line"/>
      <point x="1046" y="0" type="line"/>
      <point x="925" y="387" type="line"/>
      <point x="393" y="387" type="line"/>
    </contour>
    <contour>
      <point x="510" y="319" type="line"/>
      <point x="802" y="320" type="line"/>
      <point x="964" y="576" type="line"/>
      <point x="964" y="696" type="line"/>
      <point x="833" y="696" type="line"/>
      <point x="660" y="387" type="line"/>
      <point x="485" y="696" type="line"/>
      <point x="354" y="696" type="line"/>
      <point x="354" y="576" type="line"/>
    </contour>
    <contour>
      <point x="492" y="563" type="line"/>
      <point x="811" y="563" type="line"/>
      <point x="841" y="696" type="line"/>
      <point x="462" y="696" type="line"/>
    </contour>
    <contour>
      <point x="43" y="0" type="line"/>
      <point x="249" y="0" type="line"/>
      <point x="249" y="244" type="line"/>
      <point x="484" y="244" type="line"/>
      <point x="484" y="387" type="line"/>
      <point x="249" y="387" type="line"/>
      <point x="249" y="696" type="line"/>
      <point x="43" y="696" type="line"/>
    </contour>
  </outline>
</glyph>
<glyph name="Gheupturn-cy" format="2">
  <advance width="511"/>
  <unicode hex="0490"/>
  <anchor x="146" y="0" name="bottom"/>
  <anchor x="259" y="0" name="bottomright"/>
  <anchor x="286" y="696" name="top"/>
  <outline>
    <contour>
      <point x="328" y="686" type="line"/>
      <point x="516" y="696" type="line"/>
      <point x="516" y="854" type="line"/>
      <point x="328" y="854" type="line"/>
    </contour>
    <component base="Ge-cy"/>
  </outline>
</glyph>
<glyph name="gheupturn-cy" format="2">
  <advance width="436"/>
  <unicode hex="0491"/>
  <anchor x="141" y="0" name="bottom"/>
  <anchor x="250" y="0" name="bottomright"/>
  <anchor x="244" y="534" name="top"/>
  <outline>
    <contour>
      <point x="271" y="524" type="line"/>
      <point x="446" y="534" type="line"/>
      <point x="446" y="696" type="line"/>
      <point x="271" y="696" type="line"/>
    </contour>
    <component base="ge-cy"/>
  </outline>
</glyph>
<glyph name="Ghestroke-cy" format="2">
  <advance width="521"/>
  <unicode hex="0492"/>
  <anchor x="156" y="0" name="bottom"/>
  <anchor x="269" y="0" name="bottomright"/>
  <anchor x="296" y="696" name="top"/>
  <outline>
    <contour>
      <point x="392" y="433" type="line"/>
      <point x="-13" y="433" type="line"/>
      <point x="-13" y="317" type="line"/>
      <point x="53" y="317" type="line"/>
      <point x="392" y="317" type="line"/>
    </contour>
    <component base="Ge-cy" xOffset="10"/>
  </outline>
</glyph>
<glyph name="ghestroke-cy" format="2">
  <advance width="446"/>
  <unicode hex="0493"/>
  <anchor x="151" y="0" name="bottom"/>
  <anchor x="260" y="0" name="bottomright"/>
  <anchor x="254" y="534" name="top"/>
  <outline>
    <contour>
      <point x="355" y="309" type="line"/>
      <point x="52" y="309" type="line"/>
      <point x="0" y="309" type="line"/>
      <point x="0" y="209" type="line"/>
      <point x="355" y="209" type="line"/>
    </contour>
    <component base="ge-cy" xOffset="10"/>
  </outline>
</glyph>
<glyph name="ghemiddlehook-cy" format="2">
  <advance width="555"/>
  <unicode hex="0495"/>
  <anchor x="277.5" y="-215" name="bottom"/>
  <anchor x="277.5" y="534" name="top"/>
  <outline>
    <contour>
      <point x="337" y="0" type="line"/>
      <point x="535" y="0" type="line"/>
      <point x="535" y="194" type="line" smooth="yes"/>
      <point x="535" y="296"/>
      <point x="480" y="354"/>
      <point x="391" y="354" type="curve" smooth="yes"/>
      <point x="321" y="354"/>
      <point x="270" y="327"/>
      <point x="216" y="274" type="curve"/>
      <point x="240" y="172" type="line"/>
      <point x="263" y="196"/>
      <point x="286" y="210"/>
      <point x="307" y="210" type="curve" smooth="yes"/>
      <point x="325" y="210"/>
      <point x="337" y="200"/>
      <point x="337" y="158" type="curve" smooth="yes"/>
    </contour>
    <contour>
      <point x="42" y="0" type="line"/>
      <point x="240" y="0" type="line"/>
      <point x="240" y="534" type="line"/>
      <point x="42" y="534" type="line"/>
    </contour>
    <contour>
      <point x="240" y="397" type="line"/>
      <point x="423" y="397" type="line"/>
      <point x="446" y="534" type="line"/>
      <point x="42" y="534" type="line"/>
    </contour>
    <component base="hookHELPER" xOffset="133"/>
  </outline>
</glyph>
<glyph name="Kastroke-cy" format="2">
  <advance width="660"/>
  <unicode hex="049E"/>
  <anchor x="338" y="0" name="bottom"/>
  <anchor x="605" y="0" name="bottomright"/>
  <anchor x="338" y="696" name="top"/>
  <outline>
    <contour>
      <point x="10" y="514" type="line"/>
      <point x="335" y="514" type="line"/>
      <point x="335" y="630" type="line"/>
      <point x="59" y="630" type="line"/>
      <point x="10" y="630" type="line"/>
    </contour>
    <component base="Ka-cy" xOffset="16"/>
  </outline>
</glyph>
<glyph name="Kabashkir-cy" format="2">
  <advance width="770"/>
  <unicode hex="04A0"/>
  <anchor x="448" y="0" name="bottom"/>
  <anchor x="715" y="0" name="bottomright"/>
  <anchor x="448" y="696" name="top"/>
  <outline>
    <contour>
      <point x="355" y="696" type="line"/>
      <point x="0" y="696" type="line"/>
      <point x="0" y="546" type="line"/>
      <point x="189" y="546" type="line"/>
    </contour>
    <component base="Ka-cy" xOffset="126"/>
  </outline>
</glyph>
<glyph name="kabashkir-cy" format="2">
  <advance width="663"/>
  <unicode hex="04A1"/>
  <anchor x="380" y="0" name="bottom"/>
  <anchor x="603" y="0" name="bottomright"/>
  <anchor x="380" y="534" name="top"/>
  <outline>
    <contour>
      <point x="139" y="395" type="line"/>
      <point x="337" y="534" type="line"/>
      <point x="-5" y="534" type="line"/>
      <point x="-5" y="395" type="line"/>
    </contour>
    <component base="ka-cy" xOffset="97"/>
  </outline>
</glyph>
<glyph name="Enghe-cy" format="2">
  <advance width="793"/>
  <unicode hex="04A4"/>
  <anchor x="329" y="0" name="bottom"/>
  <anchor x="624" y="0" name="bottomright"/>
  <anchor x="329" y="348" name="center"/>
  <anchor x="329" y="696" name="top"/>
  <anchor x="43" y="696" name="topleft"/>
  <outline>
    <contour>
      <point x="428" y="696" type="line"/>
      <point x="594" y="546" type="line"/>
      <point x="773" y="546" type="line"/>
      <point x="793" y="696" type="line"/>
    </contour>
    <component base="H"/>
  </outline>
</glyph>
<glyph name="enghe-cy" format="2">
  <advance width="689"/>
  <unicode hex="04A5"/>
  <anchor x="291" y="0" name="bottom"/>
  <anchor x="550" y="0" name="bottomright"/>
  <anchor x="291" y="534" name="top"/>
  <outline>
    <contour>
      <point x="540" y="395" type="line"/>
      <point x="670" y="395" type="line"/>
      <point x="694" y="534" type="line"/>
      <point x="342" y="534" type="line"/>
    </contour>
    <component base="en-cy"/>
  </outline>
</glyph>
<glyph name="pemiddlehook-cy" format="2">
  <advance width="850"/>
  <unicode hex="04A7"/>
  <anchor x="425" y="-215" name="bottom"/>
  <anchor x="546" y="0" name="bottomright"/>
  <anchor x="425" y="534" name="top"/>
  <outline>
    <contour>
      <point x="632" y="0" type="line"/>
      <point x="830" y="0" type="line"/>
      <point x="830" y="194" type="line" smooth="yes"/>
      <point x="830" y="296"/>
      <point x="775" y="354"/>
      <point x="686" y="354" type="curve" smooth="yes"/>
      <point x="616" y="354"/>
      <point x="565" y="327"/>
      <point x="511" y="274" type="curve"/>
      <point x="535" y="172" type="line"/>
      <point x="558" y="196"/>
      <point x="581" y="210"/>
      <point x="602" y="210" type="curve" smooth="yes"/>
      <point x="620" y="210"/>
      <point x="632" y="200"/>
      <point x="632" y="158" type="curve" smooth="yes"/>
    </contour>
    <component base="pe-cy"/>
    <component base="hookHELPER" xOffset="428"/>
  </outline>
</glyph>
<glyph name="ustrait-cy" format="2">
  <advance width="526"/>
  <unicode hex="04AF"/>
  <anchor x="263" y="-215" name="bottom"/>
  <anchor x="263" y="534" name="top"/>
  <outline>
    <contour>
      <point x="541" y="534" type="line"/>
      <point x="339" y="534" type="line"/>
      <point x="267" y="160" type="line"/>
      <point x="202" y="534" type="line"/>
      <point x="-15" y="534" type="line"/>
      <point x="167" y="0" type="line"/>
      <point x="167" y="-227" type="line"/>
      <point x="359" y="-207" type="line"/>
      <point x="359" y="0" type="line"/>
    </contour>
  </outline>
</glyph>
<glyph name="Ustraitstroke-cy" format="2">
  <advance width="620"/>
  <unicode hex="04B0"/>
  <anchor x="310" y="0" name="bottom"/>
  <anchor x="310" y="696" name="top"/>
  <anchor x="-10" y="696" name="topleft"/>
  <outline>
    <contour>
      <point x="522" y="320" type="line"/>
      <point x="208" y="320" type="line"/>
      <point x="99" y="320" type="line"/>
      <point x="99" y="214" type="line"/>
      <point x="413" y="214" type="line"/>
      <point x="522" y="214" type="line"/>
    </contour>
    <component base="Y"/>
  </outline>
</glyph>
<glyph name="ustraitstroke-cy" format="2">
  <advance width="526"/>
  <unicode hex="04B1"/>
  <anchor x="263" y="-215" name="bottom"/>
  <anchor x="263" y="534" name="top"/>
  <outline>
    <contour>
      <point x="167" y="-10" type="line"/>
      <point x="359" y="-10" type="line"/>
      <point x="451" y="-10" type="line"/>
      <point x="451" y="90" type="line"/>
      <point x="75" y="90" type="line"/>
      <point x="75" y="-10" type="line"/>
    </contour>
    <component base="ustrait-cy"/>
  </outline>
</glyph>
<glyph name="Tetse-cy" format="2">
  <advance width="830"/>
  <unicode hex="04B4"/>
  <anchor x="415" y="-215" name="bottom"/>
  <anchor x="750" y="0" name="bottomright"/>
  <anchor x="415" y="696" name="top"/>
  <outline>
    <contour>
      <point x="490" y="696" type="line"/>
      <point x="5" y="696" type="line"/>
      <point x="5" y="546" type="line"/>
      <point x="174" y="546" type="line"/>
      <point x="380" y="546" type="line"/>
      <point x="469" y="546" type="line"/>
    </contour>
    <component base="Tse-cy" xOffset="131"/>
  </outline>
</glyph>
<glyph name="tetse-cy" format="2">
  <advance width="717"/>
  <unicode hex="04B5"/>
  <anchor x="358.5" y="-215" name="bottom"/>
  <anchor x="642" y="0" name="bottomright"/>
  <anchor x="358.5" y="534" name="top"/>
  <outline>
    <contour>
      <point x="405" y="534" type="line"/>
      <point x="0" y="534" type="line"/>
      <point x="0" y="395" type="line"/>
      <point x="144" y="395" type="line"/>
      <point x="342" y="395" type="line"/>
      <point x="380" y="395" type="line"/>
    </contour>
    <component base="tse-cy" xOffset="102"/>
  </outline>
</glyph>
<glyph name="Cheverticalstroke-cy" format="2">
  <advance width="623"/>
  <unicode hex="04B8"/>
  <anchor x="311.5" y="0.0" name="bottom"/>
  <anchor x="354" y="0" name="bottomleft"/>
  <anchor x="590" y="0" name="bottomright"/>
  <anchor x="293" y="696" name="top"/>
  <outline>
    <contour>
      <point x="334" y="555" type="line"/>
      <point x="268" y="555" type="line"/>
      <point x="268" y="125" type="line"/>
      <point x="334" y="125" type="line"/>
    </contour>
    <component base="Che-cy"/>
  </outline>
</glyph>
<glyph name="cheverticalstroke-cy" format="2">
  <advance width="550"/>
  <unicode hex="04B9"/>
  <anchor x="275" y="0" name="bottom"/>
  <anchor x="300" y="0" name="bottomleft"/>
  <anchor x="518" y="0" name="bottomright"/>
  <anchor x="262" y="534" name="top"/>
  <outline>
    <contour>
      <point x="284" y="402" type="line"/>
      <point x="237" y="402" type="line"/>
      <point x="237" y="82" type="line"/>
      <point x="284" y="82" type="line"/>
    </contour>
    <component base="che-cy"/>
  </outline>
</glyph>
<glyph name="Shha-cy" format="2">
  <advance width="639"/>
  <unicode hex="04BA"/>
  <anchor x="319.5" y="0" name="bottom"/>
  <anchor x="629" y="0" name="bottomright"/>
  <anchor x="319.5" y="696" name="top"/>
  <outline>
    <contour>
      <point x="392" y="481" type="curve" smooth="yes"/>
      <point x="328" y="481"/>
      <point x="280" y="461"/>
      <point x="237" y="424" type="curve"/>
      <point x="238" y="298" type="line"/>
      <point x="261" y="320"/>
      <point x="289" y="335"/>
      <point x="334" y="335" type="curve" smooth="yes"/>
      <point x="390" y="335"/>
      <point x="413" y="302"/>
      <point x="413" y="225" type="curve" smooth="yes"/>
      <point x="413" y="0" type="line"/>
      <point x="619" y="0" type="line"/>
      <point x="619" y="225" type="line" smooth="yes"/>
      <point x="619" y="383"/>
      <point x="540" y="481"/>
    </contour>
    <contour>
      <point x="249" y="696" type="line"/>
      <point x="43" y="696" type="line"/>
      <point x="43" y="0" type="line"/>
      <point x="249" y="0" type="line"/>
    </contour>
  </outline>
</glyph>
<glyph name="cheabkhasian-cy" format="2">
  <advance width="703"/>
  <unicode hex="04BD"/>
  <anchor x="440" y="0" name="bottom"/>
  <anchor x="601" y="11" name="ogonek"/>
  <anchor x="431" y="534" name="top"/>
  <outline>
    <contour>
      <point x="-10" y="356" type="curve" smooth="yes"/>
      <point x="-10" y="267"/>
      <point x="49" y="207"/>
      <point x="178" y="207" type="curve" smooth="yes"/>
      <point x="204" y="207" type="line"/>
      <point x="204" y="333" type="line"/>
      <point x="167" y="333" type="line" smooth="yes"/>
      <point x="140" y="333"/>
      <point x="126" y="346"/>
      <point x="126" y="373" type="curve" smooth="yes"/>
      <point x="126" y="395"/>
      <point x="133" y="414"/>
      <point x="139" y="428" type="curve"/>
      <point x="27" y="470" type="line"/>
      <point x="12" y="446"/>
      <point x="-10" y="407"/>
    </contour>
    <component base="e" xOffset="146"/>
  </outline>
</glyph>
<glyph name="Kahook-cy" format="2">
  <advance width="651"/>
  <unicode hex="04C3"/>
  <anchor x="325.5" y="-215" name="bottom"/>
  <anchor x="325.5" y="696" name="top"/>
  <outline>
    <contour>
      <point x="43" y="0" type="line"/>
      <point x="249" y="0" type="line"/>
      <point x="249" y="283" type="line"/>
      <point x="334" y="283" type="line"/>
      <point x="465" y="382" type="line"/>
      <point x="631" y="696" type="line"/>
      <point x="433" y="696" type="line"/>
      <point x="304" y="428" type="line"/>
      <point x="249" y="428" type="line"/>
      <point x="249" y="696" type="line"/>
      <point x="43" y="696" type="line"/>
    </contour>
    <contour>
      <point x="413" y="0" type="line"/>
      <point x="619" y="0" type="line"/>
      <point x="619" y="193" type="line" smooth="yes"/>
      <point x="619" y="361"/>
      <point x="540" y="428"/>
      <point x="392" y="428" type="curve"/>
      <point x="334" y="283" type="line"/>
      <point x="390" y="283"/>
      <point x="413" y="254"/>
      <point x="413" y="193" type="curve" smooth="yes"/>
    </contour>
    <component base="hookHELPER.case" xOffset="201"/>
  </outline>
</glyph>
<glyph name="kahook-cy" format="2">
  <advance width="568"/>
  <unicode hex="04C4"/>
  <anchor x="284" y="-215" name="bottom"/>
  <anchor x="284" y="534" name="top"/>
  <outline>
    <contour>
      <point x="558" y="534" type="line"/>
      <point x="375" y="534" type="line"/>
      <point x="272" y="321" type="line"/>
      <point x="240" y="321" type="line"/>
      <point x="240" y="534" type="line"/>
      <point x="42" y="534" type="line"/>
      <point x="42" y="0" type="line"/>
      <point x="240" y="0" type="line"/>
      <point x="240" y="211" type="line"/>
      <point x="310" y="210" type="line"/>
      <point x="419" y="278" type="line"/>
    </contour>
    <contour>
      <point x="374" y="322" type="curve"/>
      <point x="310" y="210" type="line"/>
      <point x="338" y="210"/>
      <point x="350" y="197"/>
      <point x="350" y="168" type="curve" smooth="yes"/>
      <point x="350" y="0" type="line"/>
      <point x="548" y="0" type="line"/>
      <point x="548" y="162" type="line" smooth="yes"/>
      <point x="548" y="264"/>
      <point x="493" y="322"/>
    </contour>
    <component base="hookHELPER" xOffset="146"/>
  </outline>
</glyph>
<glyph name="chekhakassian-cy" format="2">
  <advance width="550"/>
  <unicode hex="04CC"/>
  <anchor x="275" y="-215" name="bottom"/>
  <anchor x="275" y="534" name="top"/>
  <outline>
    <contour>
      <point x="321" y="220" type="curve"/>
      <point x="321" y="340" type="line"/>
      <point x="305" y="324"/>
      <point x="278" y="310"/>
      <point x="249" y="310" type="curve" smooth="yes"/>
      <point x="228" y="310"/>
      <point x="213" y="320"/>
      <point x="213" y="362" type="curve" smooth="yes"/>
      <point x="213" y="534" type="line"/>
      <point x="15" y="534" type="line"/>
      <point x="15" y="336" type="line" smooth="yes"/>
      <point x="15" y="234"/>
      <point x="61" y="166"/>
      <point x="167" y="166" type="curve" smooth="yes"/>
      <point x="229" y="166"/>
      <point x="283" y="188"/>
    </contour>
    <contour>
      <point x="310" y="534" type="line"/>
      <point x="310" y="0" type="line"/>
      <point x="508" y="0" type="line"/>
      <point x="508" y="534" type="line"/>
    </contour>
    <contour>
      <point x="235" y="132" type="line"/>
      <point x="235" y="-175" type="line"/>
      <point x="365" y="-175" type="line"/>
      <point x="385" y="0" type="line"/>
      <point x="425" y="0" type="line"/>
      <point x="447" y="132" type="line"/>
    </contour>
  </outline>
</glyph>
<glyph name="Gestrokehook-cy" format="2">
  <advance width="521"/>
  <unicode hex="04FA"/>
  <anchor x="156" y="0" name="bottom"/>
  <anchor x="269" y="0" name="bottomright"/>
  <anchor x="296" y="696" name="top"/>
  <outline>
    <contour>
      <point x="53" y="154" type="line"/>
      <point x="53" y="0" type="line"/>
      <point x="344" y="0" type="line"/>
      <point x="344" y="154" type="line"/>
    </contour>
    <component base="Ghestroke-cy"/>
    <component base="hookHELPER.case" xOffset="-74"/>
  </outline>
</glyph>
<glyph name="gestrokehook-cy" format="2">
  <advance width="446"/>
  <unicode hex="04FB"/>
  <anchor x="223" y="-215" name="bottom"/>
  <anchor x="260" y="0" name="bottomright"/>
  <anchor x="223" y="534" name="top"/>
  <outline>
    <contour>
      <point x="72" y="142" type="line"/>
      <point x="72" y="0" type="line"/>
      <point x="335" y="0" type="line"/>
      <point x="335" y="142" type="line"/>
    </contour>
    <component base="ghestroke-cy"/>
    <component base="hookHELPER" xOffset="-67"/>
  </outline>
</glyph>
<glyph name="Hahook-cy" format="2">
  <advance width="636"/>
  <unicode hex="04FC"/>
  <anchor x="303" y="0" name="bottom"/>
  <anchor x="546" y="0" name="bottomright"/>
  <anchor x="303" y="696" name="top"/>
  <outline>
    <contour>
      <point x="430" y="154" type="line"/>
      <point x="430" y="0" type="line"/>
      <point x="636" y="0" type="line"/>
      <point x="636" y="154" type="line"/>
    </contour>
    <component base="hookHELPER.case" xOffset="218"/>
    <component base="X"/>
  </outline>
</glyph>
<glyph name="hahook-cy" format="2">
  <advance width="558"/>
  <unicode hex="04FD"/>
  <anchor x="279" y="-215" name="bottom"/>
  <anchor x="478" y="0" name="bottomright"/>
  <anchor x="279" y="534" name="top"/>
  <outline>
    <contour>
      <point x="346" y="142" type="line"/>
      <point x="346" y="0" type="line"/>
      <point x="558" y="0" type="line"/>
      <point x="558" y="142" type="line"/>
    </contour>
    <component base="hookHELPER" xOffset="156"/>
    <component base="x"/>
  </outline>
</glyph>
<glyph name="hastroke-cy" format="2">
  <advance width="528"/>
  <unicode hex="04FF"/>
  <anchor x="264" y="0" name="bottom"/>
  <anchor x="264" y="534" name="top"/>
  <outline>
    <contour>
      <point x="203" y="534" type="line"/>
      <point x="-6" y="534" type="line"/>
      <point x="143" y="280" type="line"/>
      <point x="257" y="199" type="line"/>
      <point x="327" y="0" type="line"/>
      <point x="548" y="0" type="line"/>
      <point x="383" y="286" type="line"/>
      <point x="265" y="367" type="line"/>
    </contour>
    <contour>
      <point x="519" y="534" type="line"/>
      <point x="322" y="534" type="line"/>
      <point x="265" y="367" type="line"/>
      <point x="143" y="280" type="line"/>
      <point x="-20" y="0" type="line"/>
      <point x="193" y="0" type="line"/>
      <point x="257" y="199" type="line"/>
      <point x="383" y="286" type="line"/>
    </contour>
    <component base="hyphen" xScale="1.3" yScale="0.75" xOffset="-6" yOffset="48"/>
  </outline>
</glyph>
<glyph name="Komidzje-cy" format="2">
  <advance width="501"/>
  <unicode hex="0506"/>
  <anchor x="423" y="0" name="_bottom"/>
  <anchor x="250.5" y="-215" name="bottom"/>
  <anchor x="250.5" y="696" name="top"/>
  <outline>
    <contour>
      <point x="155" y="696" type="curve" smooth="yes"/>
      <point x="20" y="696" type="line"/>
      <point x="20" y="555" type="line"/>
      <point x="150" y="555" type="line" smooth="yes"/>
      <point x="211" y="555"/>
      <point x="244" y="530"/>
      <point x="244" y="475" type="curve" smooth="yes"/>
      <point x="244" y="414"/>
      <point x="216" y="386"/>
      <point x="160" y="386" type="curve" smooth="yes"/>
      <point x="60" y="386" type="line"/>
      <point x="60" y="248" type="line"/>
      <point x="258" y="248" type="line"/>
      <point x="394" y="311"/>
      <point x="454" y="365"/>
      <point x="454" y="475" type="curve" smooth="yes"/>
      <point x="454" y="628"/>
      <point x="354" y="696"/>
    </contour>
    <contour>
      <point x="323" y="300" type="line"/>
      <point x="137" y="262" type="line"/>
      <point x="273" y="0" type="line"/>
      <point x="501" y="0" type="line"/>
    </contour>
    <component base="descStraight-cy.case" xOffset="259"/>
  </outline>
</glyph>
<glyph name="Kominje-cy" format="2">
  <advance width="935"/>
  <unicode hex="050A"/>
  <anchor x="467.5" y="0" name="bottom"/>
  <anchor x="467.5" y="696" name="top"/>
  <outline>
    <contour>
      <point x="43" y="0" type="line"/>
      <point x="249" y="0" type="line"/>
      <point x="249" y="281" type="line"/>
      <point x="408" y="281" type="line"/>
      <point x="408" y="234" type="line"/>
      <point x="614" y="234" type="line"/>
      <point x="614" y="696" type="line"/>
      <point x="408" y="696" type="line"/>
      <point x="408" y="439" type="line"/>
      <point x="249" y="439" type="line"/>
      <point x="249" y="696" type="line"/>
      <point x="43" y="696" type="line"/>
    </contour>
    <contour>
      <point x="639" y="-20" type="curve" smooth="yes"/>
      <point x="776" y="-20"/>
      <point x="915" y="54"/>
      <point x="915" y="244" type="curve" smooth="yes"/>
      <point x="915" y="292"/>
      <point x="912" y="337"/>
      <point x="908" y="379" type="curve"/>
      <point x="711" y="379" type="line"/>
      <point x="715" y="338"/>
      <point x="717" y="297"/>
      <point x="717" y="259" type="curve" smooth="yes"/>
      <point x="717" y="158"/>
      <point x="689" y="122"/>
      <point x="655" y="122" type="curve" smooth="yes"/>
      <point x="630" y="122"/>
      <point x="614" y="137"/>
      <point x="614" y="190" type="curve" smooth="yes"/>
      <point x="614" y="534" type="line"/>
      <point x="408" y="534" type="line"/>
      <point x="408" y="191" type="line" smooth="yes"/>
      <point x="408" y="39"/>
      <point x="512" y="-20"/>
    </contour>
  </outline>
</glyph>
<glyph name="Lha-cy" format="2">
  <advance width="899"/>
  <unicode hex="0514"/>
  <anchor x="449.5" y="0" name="bottom"/>
  <anchor x="839" y="0" name="bottomright"/>
  <anchor x="449.5" y="696" name="top"/>
  <outline>
    <contour>
      <point x="43" y="-20" type="line"/>
      <point x="212" y="14"/>
      <point x="266" y="141"/>
      <point x="282" y="348" type="curve" smooth="yes"/>
      <point x="298" y="555" type="line"/>
      <point x="121" y="696" type="line"/>
      <point x="93" y="364" type="line" smooth="yes"/>
      <point x="80" y="207"/>
      <point x="66" y="150"/>
      <point x="-5" y="120" type="curve"/>
    </contour>
    <contour>
      <point x="278" y="548" type="line"/>
      <point x="421" y="548" type="line"/>
      <point x="421" y="696" type="line"/>
      <point x="121" y="696" type="line"/>
    </contour>
    <component base="X" xOffset="293"/>
  </outline>
</glyph>
<glyph name="lha-cy" format="2">
  <advance width="806"/>
  <unicode hex="0515"/>
  <anchor x="403" y="0" name="bottom"/>
  <anchor x="756" y="0" name="bottomright"/>
  <anchor x="403" y="534" name="top"/>
  <outline>
    <contour>
      <point x="87" y="534" type="line"/>
      <point x="242" y="397" type="line"/>
      <point x="446" y="397" type="line"/>
      <point x="446" y="534" type="line"/>
    </contour>
    <contour>
      <point x="260" y="397" type="line"/>
      <point x="87" y="534" type="line"/>
      <point x="77" y="324" type="line" smooth="yes"/>
      <point x="70" y="167"/>
      <point x="59" y="157"/>
      <point x="0" y="127" type="curve"/>
      <point x="48" y="-13" type="line"/>
      <point x="219" y="20"/>
      <point x="245" y="101"/>
      <point x="256" y="317" type="curve" smooth="yes"/>
    </contour>
    <component base="x" xOffset="278"/>
  </outline>
</glyph>
<glyph name="rha-cy" format="2">
  <advance width="868"/>
  <unicode hex="0517"/>
  <anchor x="434" y="-215" name="bottom"/>
  <anchor x="434" y="534" name="top"/>
  <outline>
    <contour>
      <point x="870" y="534" type="line"/>
      <point x="687" y="534" type="line"/>
      <point x="559" y="303" type="line"/>
      <point x="559" y="212" type="line"/>
      <point x="676" y="0" type="line"/>
      <point x="878" y="0" type="line"/>
      <point x="721" y="272" type="line"/>
    </contour>
    <component base="p"/>
  </outline>
</glyph>
<glyph name="aleutka-cy" format="2">
  <advance width="566"/>
  <unicode hex="051F"/>
  <anchor x="283" y="0" name="bottom"/>
  <anchor x="506" y="0" name="bottomright"/>
  <anchor x="283" y="534" name="top"/>
  <outline>
    <contour>
      <point x="255" y="417" type="line"/>
      <point x="527" y="293" type="line"/>
      <point x="563" y="370" type="line"/>
      <point x="291" y="494" type="line"/>
    </contour>
    <component base="ka-cy"/>
  </outline>
</glyph>
<glyph name="Elmiddlehook-cy" format="2">
  <advance width="1000"/>
  <unicode hex="0520"/>
  <anchor x="500" y="-215" name="bottom"/>
  <anchor x="620" y="0" name="bottomright"/>
  <anchor x="500" y="696" name="top"/>
  <outline>
    <contour>
      <point x="753" y="481" type="curve" smooth="yes"/>
      <point x="689" y="481"/>
      <point x="641" y="461"/>
      <point x="598" y="424" type="curve"/>
      <point x="599" y="298" type="line"/>
      <point x="622" y="320"/>
      <point x="650" y="335"/>
      <point x="695" y="335" type="curve" smooth="yes"/>
      <point x="751" y="335"/>
      <point x="774" y="302"/>
      <point x="774" y="225" type="curve" smooth="yes"/>
      <point x="774" y="0" type="line"/>
      <point x="980" y="0" type="line"/>
      <point x="980" y="225" type="line" smooth="yes"/>
      <point x="980" y="383"/>
      <point x="901" y="481"/>
    </contour>
    <component base="El-cy"/>
    <component base="hookHELPER.case" xOffset="562"/>
  </outline>
</glyph>
<glyph name="elmiddlehook-cy" format="2">
  <advance width="840"/>
  <unicode hex="0521"/>
  <anchor x="420" y="-215" name="bottom"/>
  <anchor x="535" y="0" name="bottomright"/>
  <anchor x="420" y="534" name="top"/>
  <outline>
    <contour>
      <point x="622" y="0" type="line"/>
      <point x="820" y="0" type="line"/>
      <point x="820" y="194" type="line" smooth="yes"/>
      <point x="820" y="296"/>
      <point x="765" y="354"/>
      <point x="676" y="354" type="curve" smooth="yes"/>
      <point x="606" y="354"/>
      <point x="555" y="327"/>
      <point x="501" y="274" type="curve"/>
      <point x="525" y="172" type="line"/>
      <point x="548" y="196"/>
      <point x="571" y="210"/>
      <point x="592" y="210" type="curve" smooth="yes"/>
      <point x="610" y="210"/>
      <point x="622" y="200"/>
      <point x="622" y="158" type="curve" smooth="yes"/>
    </contour>
    <component base="el-cy"/>
    <component base="hookHELPER" xOffset="418"/>
  </outline>
</glyph>
<glyph name="enmiddlehook-cy" format="2">
  <advance width="855"/>
  <unicode hex="0523"/>
  <anchor x="427.5" y="-215" name="bottom"/>
  <anchor x="550" y="0" name="bottomright"/>
  <anchor x="427.5" y="534" name="top"/>
  <outline>
    <contour>
      <point x="637" y="0" type="line"/>
      <point x="835" y="0" type="line"/>
      <point x="835" y="194" type="line" smooth="yes"/>
      <point x="835" y="296"/>
      <point x="780" y="354"/>
      <point x="691" y="354" type="curve" smooth="yes"/>
      <point x="621" y="354"/>
      <point x="570" y="327"/>
      <point x="516" y="274" type="curve"/>
      <point x="540" y="172" type="line"/>
      <point x="563" y="196"/>
      <point x="586" y="210"/>
      <point x="607" y="210" type="curve" smooth="yes"/>
      <point x="625" y="210"/>
      <point x="637" y="200"/>
      <point x="637" y="158" type="curve" smooth="yes"/>
    </contour>
    <component base="en-cy"/>
    <component base="hookHELPER" xOffset="433"/>
  </outline>
</glyph>
<glyph name="dche-cy" format="2">
  <advance width="647"/>
  <unicode hex="052D"/>
  <anchor x="118" y="0" name="_bottom"/>
  <anchor x="323.5" y="-215" name="bottom"/>
  <anchor x="323.5" y="534" name="top"/>
  <outline>
    <contour>
      <point x="89" y="142" type="curve"/>
      <point x="230" y="135" type="line"/>
      <point x="298" y="164"/>
      <point x="363" y="231"/>
      <point x="378" y="379" type="curve"/>
      <point x="381" y="410" type="line"/>
      <point x="429" y="410" type="line"/>
      <point x="429" y="142" type="line"/>
      <point x="89" y="142" type="line"/>
      <point x="89" y="0" type="line"/>
      <point x="600" y="0" type="line"/>
      <point x="600" y="534" type="line"/>
      <point x="228" y="534" type="line"/>
      <point x="213" y="363" type="line" smooth="yes"/>
      <point x="198" y="196"/>
      <point x="115" y="162"/>
    </contour>
    <contour>
      <point x="548" y="218" type="line"/>
      <point x="548" y="330" type="line"/>
      <point x="278" y="330" type="line" smooth="yes"/>
      <point x="204" y="330"/>
      <point x="175" y="347"/>
      <point x="175" y="432" type="curve" smooth="yes"/>
      <point x="175" y="534" type="line"/>
      <point x="15" y="534" type="line"/>
      <point x="15" y="425" type="line" smooth="yes"/>
      <point x="15" y="308"/>
      <point x="83" y="218"/>
      <point x="255" y="218" type="curve" smooth="yes"/>
    </contour>
    <component base="descStraight-cy" xScale="-1" xOffset="282"/>
    <component base="descStraight-cy" xOffset="415"/>
  </outline>
</glyph>
<glyph name="acutemacron" format="2">
  <unicode hex="1DC7"/>
  <anchor x="273" y="534" name="_top"/>
  <anchor x="275" y="792" name="top"/>
  <outline>
    <contour>
      <point x="120" y="564" type="line"/>
      <point x="291" y="658" type="line"/>
      <point x="226" y="792" type="line"/>
      <point x="55" y="652" type="line"/>
    </contour>
    <contour>
      <point x="214" y="658" type="line"/>
      <point x="491" y="658" type="line"/>
      <point x="491" y="792" type="line"/>
      <point x="226" y="792" type="line"/>
    </contour>
  </outline>
</glyph>
<glyph name="psilivaria" format="2">
  <advance width="455"/>
  <unicode hex="1FCD"/>
  <anchor x="229" y="534" name="_top"/>
  <outline>
    <contour>
      <point x="377" y="855" type="line"/>
      <point x="218" y="816" type="line"/>
      <point x="314" y="573" type="line"/>
      <point x="422" y="594" type="line"/>
    </contour>
    <component base="psili"/>
  </outline>
</glyph>
<glyph name="psilioxia" format="2">
  <advance width="455"/>
  <unicode hex="1FCE"/>
  <anchor x="196" y="534" name="_top"/>
  <outline>
    <contour>
      <point x="273" y="855" type="line"/>
      <point x="228" y="594" type="line"/>
      <point x="336" y="573" type="line"/>
      <point x="432" y="816" type="line"/>
    </contour>
    <component base="psili" xOffset="10"/>
  </outline>
</glyph>
<glyph name="psiliperispomeni" format="2">
  <advance width="462"/>
  <unicode hex="1FCF"/>
  <anchor x="211" y="534" name="_top"/>
  <anchor x="427" y="981" name="_topleft"/>
  <anchor x="213" y="1000" name="top"/>
  <outline>
    <contour>
      <point x="159" y="583" type="line"/>
      <point x="246" y="583" type="line"/>
      <point x="273" y="631" type="line" smooth="yes"/>
      <point x="293" y="666"/>
      <point x="303" y="688"/>
      <point x="303" y="719" type="curve" smooth="yes"/>
      <point x="303" y="771"/>
      <point x="265" y="810"/>
      <point x="211" y="810" type="curve" smooth="yes"/>
      <point x="157" y="810"/>
      <point x="119" y="768"/>
      <point x="119" y="719" type="curve" smooth="yes"/>
      <point x="119" y="685"/>
      <point x="135" y="661"/>
      <point x="169" y="644" type="curve"/>
    </contour>
    <component base="perispomeni" xOffset="-20" yOffset="197"/>
  </outline>
</glyph>
<glyph name="dasiavaria" format="2">
  <advance width="455"/>
  <unicode hex="1FDD"/>
  <anchor x="243" y="534" name="_top"/>
  <outline>
    <contour>
      <point x="377" y="855" type="line"/>
      <point x="218" y="816" type="line"/>
      <point x="314" y="573" type="line"/>
      <point x="422" y="594" type="line"/>
    </contour>
    <component base="dasia"/>
  </outline>
</glyph>
<glyph name="dasiaoxia" format="2">
  <advance width="455"/>
  <unicode hex="1FDE"/>
  <anchor x="223" y="534" name="_top"/>
  <outline>
    <contour>
      <point x="273" y="855" type="line"/>
      <point x="228" y="594" type="line"/>
      <point x="336" y="573" type="line"/>
      <point x="432" y="816" type="line"/>
    </contour>
    <component base="dasia"/>
  </outline>
</glyph>
<glyph name="drachma" format="2">
  <advance width="1338"/>
  <unicode hex="20AF"/>
  <anchor x="1041" y="-215" name="bottom"/>
  <anchor x="1045" y="534" name="top"/>
  <outline>
    <contour>
      <point x="124" y="0" type="line"/>
      <point x="385" y="0" type="line" smooth="yes"/>
      <point x="574" y="0"/>
      <point x="738" y="73"/>
      <point x="738" y="347" type="curve" smooth="yes"/>
      <point x="738" y="627"/>
      <point x="559" y="686"/>
      <point x="373" y="686" type="curve" smooth="yes"/>
      <point x="220" y="686" type="line"/>
      <point x="221" y="543" type="line"/>
      <point x="398" y="543" type="line" smooth="yes"/>
      <point x="481" y="543"/>
      <point x="526" y="499"/>
      <point x="526" y="347" type="curve" smooth="yes"/>
      <point x="526" y="193"/>
      <point x="485" y="145"/>
      <point x="397" y="145" type="curve" smooth="yes"/>
      <point x="191" y="145" type="line"/>
    </contour>
    <contour>
      <point x="124" y="0" type="line"/>
      <point x="325" y="145" type="line"/>
      <point x="391" y="182"/>
      <point x="402" y="219"/>
      <point x="402" y="269" type="curve" smooth="yes"/>
      <point x="402" y="479" type="line"/>
      <point x="208" y="481" type="line"/>
      <point x="208" y="249" type="line" smooth="yes"/>
      <point x="208" y="196"/>
      <point x="206" y="159"/>
      <point x="124" y="138" type="curve"/>
    </contour>
    <component base="rho" xOffset="749"/>
    <component base="hookaboveHELPER2.case" yOffset="-10"/>
  </outline>
</glyph>
<glyph name="rupeeIndian" format="2">
  <advance width="548"/>
  <unicode hex="20B9"/>
  <outline>
    <contour>
      <point x="40" y="232" type="line"/>
      <point x="276" y="232" type="line"/>
      <point x="412" y="275"/>
      <point x="472" y="339"/>
      <point x="472" y="434" type="curve" smooth="yes"/>
      <point x="472" y="504"/>
      <point x="441" y="560"/>
      <point x="384" y="585" type="curve"/>
      <point x="528" y="585" type="line"/>
      <point x="528" y="680" type="line"/>
      <point x="40" y="680" type="line"/>
      <point x="40" y="575" type="line"/>
      <point x="178" y="575" type="line" smooth="yes"/>
      <point x="239" y="575"/>
      <point x="272" y="548"/>
      <point x="272" y="458" type="curve" smooth="yes"/>
      <point x="272" y="359"/>
      <point x="244" y="337"/>
      <point x="178" y="337" type="curve" smooth="yes"/>
      <point x="40" y="337" type="line"/>
    </contour>
    <contour>
      <point x="301" y="0" type="line"/>
      <point x="519" y="0" type="line"/>
      <point x="341" y="274" type="line"/>
      <point x="165" y="236" type="line"/>
    </contour>
    <contour>
      <point x="40" y="414" type="line"/>
      <point x="528" y="414" type="line"/>
      <point x="528" y="509" type="line"/>
      <point x="40" y="509" type="line"/>
    </contour>
  </outline>
</glyph>
<glyph name="liraTurkish" format="2">
  <advance width="605"/>
  <unicode hex="20BA"/>
  <outline>
    <contour>
      <point x="112" y="0" type="line"/>
      <point x="112" y="680" type="line"/>
      <point x="306" y="680" type="line"/>
      <point x="306" y="147" type="line"/>
      <point x="334" y="147" type="line" smooth="yes"/>
      <point x="408" y="147"/>
      <point x="449" y="185"/>
      <point x="475" y="258" type="curve"/>
      <point x="605" y="212" type="line"/>
      <point x="573" y="73"/>
      <point x="471" y="0"/>
      <point x="301" y="0" type="curve" smooth="yes"/>
    </contour>
    <contour>
      <point x="58" y="146" type="line"/>
      <point x="20" y="229" type="line"/>
      <point x="431" y="421" type="line"/>
      <point x="470" y="338" type="line"/>
    </contour>
    <contour>
      <point x="59" y="302" type="line"/>
      <point x="20" y="385" type="line"/>
      <point x="432" y="577" type="line"/>
      <point x="470" y="494" type="line"/>
    </contour>
  </outline>
</glyph>
<glyph name="numero" format="2">
  <advance width="1139"/>
  <unicode hex="2116"/>
  <anchor x="326" y="0" name="bottom"/>
  <anchor x="326" y="696" name="top"/>
  <outline>
    <contour>
      <point x="889" y="696" type="curve"/>
      <point x="751" y="696"/>
      <point x="664" y="612"/>
      <point x="664" y="479" type="curve" smooth="yes"/>
      <point x="664" y="335"/>
      <point x="753" y="260"/>
      <point x="890" y="260" type="curve"/>
      <point x="1029" y="260"/>
      <point x="1115" y="344"/>
      <point x="1115" y="477" type="curve" smooth="yes"/>
      <point x="1115" y="621"/>
      <point x="1026" y="696"/>
    </contour>
    <contour>
      <point x="889" y="574" type="curve"/>
      <point x="924" y="574"/>
      <point x="938" y="549"/>
      <point x="938" y="477" type="curve" smooth="yes"/>
      <point x="938" y="410"/>
      <point x="924" y="382"/>
      <point x="890" y="382" type="curve"/>
      <point x="855" y="382"/>
      <point x="841" y="407"/>
      <point x="841" y="479" type="curve" smooth="yes"/>
      <point x="841" y="546"/>
      <point x="855" y="574"/>
    </contour>
    <component base="N"/>
    <component base="minus" xOffset="624" yOffset="-257"/>
  </outline>
</glyph>
<glyph name="estimated" format="2">
  <advance width="946"/>
  <unicode hex="212E"/>
  <outline>
    <contour>
      <point x="472" y="716" type="curve" smooth="yes"/>
      <point x="251" y="716"/>
      <point x="71" y="557"/>
      <point x="71" y="347" type="curve" smooth="yes"/>
      <point x="71" y="137"/>
      <point x="244" y="-16"/>
      <point x="472" y="-16" type="curve" smooth="yes"/>
      <point x="611" y="-16"/>
      <point x="718" y="36"/>
      <point x="791" y="122" type="curve"/>
      <point x="733" y="122" type="line"/>
      <point x="677" y="56"/>
      <point x="567" y="24"/>
      <point x="473" y="24" type="curve" smooth="yes"/>
      <point x="379" y="24"/>
      <point x="260" y="57"/>
      <point x="218" y="121" type="curve"/>
      <point x="219" y="339" type="line"/>
      <point x="875" y="339" type="line"/>
      <point x="875" y="562"/>
      <point x="686" y="716"/>
    </contour>
    <contour>
      <point x="473" y="676" type="curve" smooth="yes"/>
      <point x="590" y="676"/>
      <point x="671" y="636"/>
      <point x="727" y="575" type="curve" smooth="yes"/>
      <point x="727" y="379" type="line"/>
      <point x="219" y="379" type="line"/>
      <point x="218" y="575" type="line"/>
      <point x="269" y="638"/>
      <point x="356" y="676"/>
    </contour>
  </outline>
</glyph>
<glyph name="Saltillo" format="2">
  <advance width="265"/>
  <unicode hex="A78B"/>
  <outline>
    <contour>
      <point x="62" y="326" type="line"/>
      <point x="203" y="326" type="line"/>
      <point x="225" y="696" type="line"/>
      <point x="40" y="696" type="line"/>
    </contour>
  </outline>
</glyph>
<glyph name="saltillo" format="2">
  <advance width="250"/>
  <unicode hex="A78C"/>
  <outline>
    <contour>
      <point x="62" y="366" type="line"/>
      <point x="188" y="366" type="line"/>
      <point x="210" y="696" type="line"/>
      <point x="40" y="696" type="line"/>
    </contour>
  </outline>
</glyph>
<glyph name="uniA7AE" format="2">
  <advance width="429"/>
  <unicode hex="A7AE"/>
  <anchor x="214.5" y="0" name="bottom"/>
  <anchor x="214.5" y="696" name="top"/>
  <outline>
    <contour>
      <point x="111" y="0" type="line"/>
      <point x="318" y="0" type="line"/>
      <point x="318" y="696" type="line"/>
      <point x="111" y="696" type="line"/>
    </contour>
    <contour>
      <point x="20" y="0" type="line"/>
      <point x="409" y="0" type="line"/>
      <point x="409" y="148" type="line"/>
      <point x="20" y="148" type="line"/>
    </contour>
    <contour>
      <point x="20" y="550" type="line"/>
      <point x="409" y="550" type="line"/>
      <point x="409" y="696" type="line"/>
      <point x="20" y="696" type="line"/>
    </contour>
  </outline>
</glyph>
<glyph name="globeWithMeridians" format="2">
  <advance width="1214"/>
  <unicode hex="1F310"/>
  <outline>
    <contour>
      <point x="607" y="-241" type="curve" smooth="yes"/>
      <point x="903" y="-241"/>
      <point x="1141" y="-6"/>
      <point x="1141" y="285" type="curve" smooth="yes"/>
      <point x="1141" y="576"/>
      <point x="903" y="811"/>
      <point x="607" y="811" type="curve" smooth="yes"/>
      <point x="311" y="811"/>
      <point x="73" y="576"/>
      <point x="73" y="285" type="curve" smooth="yes"/>
      <point x="73" y="-6"/>
      <point x="311" y="-241"/>
    </contour>
    <contour>
      <point x="470" y="-128" type="curve"/>
      <point x="407" y="-106"/>
      <point x="351" y="-69"/>
      <point x="306" y="-20" type="curve"/>
      <point x="328" y="-6"/>
      <point x="349" y="5"/>
      <point x="371" y="15" type="curve"/>
      <point x="397" y="-37"/>
      <point x="431" y="-86"/>
    </contour>
    <contour>
      <point x="245" y="67" type="curve"/>
      <point x="219" y="117"/>
      <point x="201" y="173"/>
      <point x="195" y="235" type="curve"/>
      <point x="307" y="235" type="line"/>
      <point x="311" y="193"/>
      <point x="319" y="151"/>
      <point x="332" y="112" type="curve"/>
      <point x="302" y="99"/>
      <point x="273" y="84"/>
    </contour>
    <contour>
      <point x="547" y="-76" type="line"/>
      <point x="519" y="-39"/>
      <point x="494" y="4"/>
      <point x="474" y="50" type="curve"/>
      <point x="498" y="55"/>
      <point x="522" y="58"/>
      <point x="547" y="60" type="curve"/>
    </contour>
    <contour>
      <point x="442" y="146" type="curve"/>
      <point x="435" y="175"/>
      <point x="430" y="205"/>
      <point x="427" y="235" type="curve"/>
      <point x="547" y="235" type="line"/>
      <point x="547" y="160" type="line"/>
      <point x="511" y="158"/>
      <point x="476" y="153"/>
    </contour>
    <contour>
      <point x="667" y="-78" type="curve"/>
      <point x="667" y="60" type="line"/>
      <point x="693" y="58"/>
      <point x="718" y="54"/>
      <point x="741" y="49" type="curve"/>
      <point x="721" y="2"/>
      <point x="696" y="-41"/>
    </contour>
    <contour>
      <point x="195" y="335" type="line"/>
      <point x="201" y="397"/>
      <point x="219" y="453"/>
      <point x="245" y="503" type="curve"/>
      <point x="273" y="486"/>
      <point x="302" y="471"/>
      <point x="332" y="458" type="curve"/>
      <point x="319" y="419"/>
      <point x="311" y="377"/>
      <point x="307" y="335" type="curve"/>
    </contour>
    <contour>
      <point x="747" y="-127" type="curve"/>
      <point x="785" y="-85"/>
      <point x="819" y="-37"/>
      <point x="845" y="15" type="curve"/>
      <point x="866" y="5"/>
      <point x="887" y="-7"/>
      <point x="908" y="-20" type="curve"/>
      <point x="864" y="-69"/>
      <point x="809" y="-105"/>
    </contour>
    <contour>
      <point x="427" y="335" type="line"/>
      <point x="430" y="365"/>
      <point x="435" y="395"/>
      <point x="442" y="424" type="curve"/>
      <point x="476" y="417"/>
      <point x="511" y="412"/>
      <point x="547" y="410" type="curve"/>
      <point x="547" y="335" type="line"/>
    </contour>
    <contour>
      <point x="773" y="145" type="curve"/>
      <point x="739" y="153"/>
      <point x="704" y="158"/>
      <point x="667" y="160" type="curve"/>
      <point x="667" y="235" type="line"/>
      <point x="789" y="235" type="line"/>
      <point x="786" y="205"/>
      <point x="781" y="175"/>
    </contour>
    <contour>
      <point x="371" y="555" type="curve"/>
      <point x="349" y="565"/>
      <point x="328" y="576"/>
      <point x="306" y="590" type="curve"/>
      <point x="351" y="639"/>
      <point x="407" y="676"/>
      <point x="470" y="698" type="curve"/>
      <point x="431" y="656"/>
      <point x="397" y="607"/>
    </contour>
    <contour>
      <point x="547" y="510" type="line"/>
      <point x="522" y="512"/>
      <point x="498" y="515"/>
      <point x="474" y="520" type="curve"/>
      <point x="494" y="566"/>
      <point x="519" y="609"/>
      <point x="547" y="646" type="curve"/>
    </contour>
    <contour>
      <point x="969" y="67" type="curve"/>
      <point x="942" y="84"/>
      <point x="913" y="99"/>
      <point x="884" y="111" type="curve"/>
      <point x="897" y="151"/>
      <point x="905" y="192"/>
      <point x="909" y="235" type="curve"/>
      <point x="1019" y="235" type="line"/>
      <point x="1013" y="173"/>
      <point x="995" y="117"/>
    </contour>
    <contour>
      <point x="667" y="335" type="line"/>
      <point x="667" y="410" type="line"/>
      <point x="704" y="412"/>
      <point x="739" y="417"/>
      <point x="773" y="425" type="curve"/>
      <point x="781" y="395"/>
      <point x="786" y="365"/>
      <point x="789" y="335" type="curve"/>
    </contour>
    <contour>
      <point x="667" y="510" type="curve"/>
      <point x="667" y="648" type="line"/>
      <point x="696" y="611"/>
      <point x="721" y="568"/>
      <point x="741" y="521" type="curve"/>
      <point x="718" y="516"/>
      <point x="693" y="512"/>
    </contour>
    <contour>
      <point x="909" y="335" type="line"/>
      <point x="905" y="378"/>
      <point x="897" y="419"/>
      <point x="884" y="459" type="curve"/>
      <point x="913" y="471"/>
      <point x="942" y="486"/>
      <point x="969" y="503" type="curve"/>
      <point x="995" y="453"/>
      <point x="1013" y="397"/>
      <point x="1019" y="335" type="curve"/>
    </contour>
    <contour>
      <point x="845" y="555" type="curve"/>
      <point x="819" y="607"/>
      <point x="785" y="655"/>
      <point x="747" y="697" type="curve"/>
      <point x="809" y="675"/>
      <point x="864" y="639"/>
      <point x="908" y="590" type="curve"/>
      <point x="887" y="577"/>
      <point x="866" y="565"/>
    </contour>
  </outline>
</glyph>
<glyph name="Hturned.sc.ss02" format="2">
  <advance width="541"/>
  <anchor x="270.5" y="0" name="bottom"/>
  <anchor x="270.5" y="571" name="top"/>
  <outline>
    <contour>
      <point x="303" y="0" type="line"/>
      <point x="498" y="0" type="line"/>
      <point x="498" y="571" type="line"/>
      <point x="303" y="571" type="line"/>
      <point x="303" y="348" type="line"/>
      <point x="205" y="348" type="line"/>
      <point x="205" y="571" type="line"/>
      <point x="12" y="571" type="line"/>
      <point x="12" y="198" type="line"/>
      <point x="303" y="198" type="line"/>
    </contour>
  </outline>
</glyph>
<glyph name="Hturned.ss02" format="2">
  <advance width="596"/>
  <anchor x="298" y="0" name="bottom"/>
  <anchor x="298" y="696" name="top"/>
  <outline>
    <contour>
      <point x="347" y="0" type="line"/>
      <point x="553" y="0" type="line"/>
      <point x="553" y="696" type="line"/>
      <point x="347" y="696" type="line"/>
      <point x="347" y="389" type="line"/>
      <point x="218" y="389" type="line"/>
      <point x="218" y="696" type="line"/>
      <point x="12" y="696" type="line"/>
      <point x="12" y="230" type="line"/>
      <point x="347" y="231" type="line"/>
    </contour>
  </outline>
</glyph>
<glyph name="Iotaafrican.sc" format="2">
  <advance width="400"/>
  <anchor x="200" y="0" name="bottom"/>
  <anchor x="132" y="571" name="top"/>
  <outline>
    <contour>
      <point x="231" y="571" type="line"/>
      <point x="33" y="571" type="line"/>
      <point x="33" y="209" type="line"/>
      <point x="231" y="209" type="line"/>
    </contour>
    <component base="hookHELPER" xScale="-1" xOffset="435" yOffset="209"/>
  </outline>
</glyph>
<glyph name="Rsmall.sc" format="2">
  <advance width="564"/>
  <anchor x="282" y="-215" name="bottom"/>
  <anchor x="282" y="571" name="top"/>
  <outline>
    <contour>
      <point x="226" y="122" type="line"/>
      <point x="378" y="122" type="line"/>
      <point x="492" y="185"/>
      <point x="541" y="227"/>
      <point x="541" y="314" type="curve" smooth="yes"/>
      <point x="541" y="445"/>
      <point x="453" y="501"/>
      <point x="276" y="501" type="curve" smooth="yes"/>
      <point x="210" y="501" type="line"/>
      <point x="210" y="369" type="line"/>
      <point x="271" y="369" type="line" smooth="yes"/>
      <point x="315" y="369"/>
      <point x="341" y="351"/>
      <point x="341" y="314" type="curve" smooth="yes"/>
      <point x="341" y="272"/>
      <point x="322" y="252"/>
      <point x="279" y="252" type="curve" smooth="yes"/>
      <point x="226" y="252" type="line"/>
    </contour>
    <contour>
      <point x="43" y="0" type="line"/>
      <point x="240" y="0" type="line"/>
      <point x="240" y="571" type="line"/>
      <point x="43" y="571" type="line"/>
    </contour>
    <contour>
      <point x="367" y="-70" type="line"/>
      <point x="584" y="-70" type="line"/>
      <point x="431" y="172" type="line"/>
      <point x="255" y="134" type="line"/>
    </contour>
  </outline>
</glyph>
<glyph name="TseHelper-cy" format="2">
  <advance width="652"/>
  <anchor x="327" y="0" name="bottom"/>
  <anchor x="619" y="0" name="bottomright"/>
  <outline>
    <contour>
      <point x="609" y="0" type="line"/>
      <point x="609" y="696" type="line"/>
      <point x="403" y="696" type="line"/>
      <point x="403" y="158" type="line"/>
      <point x="249" y="158" type="line"/>
      <point x="249" y="696" type="line"/>
      <point x="43" y="696" type="line"/>
      <point x="43" y="0" type="line"/>
    </contour>
  </outline>
</glyph>
<glyph name="acute.case.loclPLK" format="2">
  <advance width="296"/>
  <anchor x="114" y="696" name="_top"/>
  <outline>
    <contour>
      <point x="122" y="988" type="line"/>
      <point x="30" y="794" type="line"/>
      <point x="117" y="746" type="line"/>
      <point x="266" y="910" type="line"/>
    </contour>
  </outline>
</glyph>
<glyph name="acute.loclPLK" format="2">
  <advance width="295"/>
  <anchor x="114" y="534" name="_top"/>
  <outline>
    <contour>
      <point x="121" y="829" type="line"/>
      <point x="30" y="632" type="line"/>
      <point x="117" y="584" type="line"/>
      <point x="265" y="751" type="line"/>
    </contour>
  </outline>
</glyph>
<glyph name="acute.sc.loclPLK" format="2">
  <advance width="295"/>
  <anchor x="109" y="571" name="_top"/>
  <outline>
    <contour>
      <point x="121" y="876" type="line"/>
      <point x="30" y="679" type="line"/>
      <point x="117" y="631" type="line"/>
      <point x="265" y="798" type="line"/>
    </contour>
  </outline>
</glyph>
<glyph name="acutecomb.case" format="2">
  <anchor x="182" y="696" name="_top"/>
  <anchor x="184" y="984" name="top"/>
  <outline>
    <contour>
      <point x="261" y="984" type="line"/>
      <point x="30" y="848" type="line"/>
      <point x="80" y="749" type="line"/>
      <point x="334" y="840" type="line"/>
    </contour>
  </outline>
</glyph>
<glyph name="acutedbl" format="2">
  <advance width="324"/>
  <anchor x="102" y="534" name="_top"/>
  <anchor x="25" y="534" name="_topright"/>
  <outline>
    <contour>
      <point x="170" y="844" type="line"/>
      <point x="30" y="658" type="line"/>
      <point x="103" y="593" type="line"/>
      <point x="274" y="742" type="line"/>
    </contour>
  </outline>
</glyph>
<glyph name="ae.sc" format="2">
  <advance width="762"/>
  <anchor x="381" y="0" name="bottom"/>
  <anchor x="424" y="571" name="top"/>
  <outline>
    <contour>
      <point x="713" y="571" type="line"/>
      <point x="204" y="571" type="line"/>
      <point x="-30" y="0" type="line"/>
      <point x="185" y="0" type="line"/>
      <point x="320" y="433" type="line"/>
      <point x="373" y="0" type="line"/>
      <point x="742" y="0" type="line"/>
      <point x="742" y="135" type="line"/>
      <point x="540" y="135" type="line"/>
      <point x="490" y="437" type="line"/>
      <point x="693" y="437" type="line"/>
    </contour>
    <contour>
      <point x="356" y="236" type="line"/>
      <point x="244" y="236" type="line"/>
      <point x="202" y="101" type="line"/>
      <point x="375" y="101" type="line"/>
    </contour>
    <contour>
      <point x="705" y="354" type="line"/>
      <point x="489" y="354" type="line"/>
      <point x="511" y="224" type="line"/>
      <point x="705" y="224" type="line"/>
    </contour>
  </outline>
</glyph>
<glyph name="aleutka-cy.sc" format="2">
  <advance width="605"/>
  <anchor x="302.5" y="0.0" name="bottom"/>
  <anchor x="549" y="0" name="bottomright"/>
  <anchor x="325" y="571" name="top"/>
  <outline>
    <contour>
      <point x="259" y="477" type="line"/>
      <point x="540" y="316" type="line"/>
      <point x="579" y="388" type="line"/>
      <point x="299" y="549" type="line"/>
    </contour>
    <component base="ka-cy.sc"/>
  </outline>
</glyph>
<glyph name="archaicsampi.sc" format="2">
  <advance width="593"/>
  <anchor x="296.5" y="0" name="bottom"/>
  <anchor x="296.5" y="571" name="top"/>
  <outline>
    <contour>
      <point x="198" y="0" type="line"/>
      <point x="395" y="0" type="line"/>
      <point x="395" y="439" type="line"/>
      <point x="588" y="439" type="line"/>
      <point x="588" y="571" type="line"/>
      <point x="5" y="571" type="line"/>
      <point x="5" y="439" type="line"/>
      <point x="198" y="439" type="line"/>
    </contour>
    <contour>
      <point x="447" y="294" type="line"/>
      <point x="588" y="294" type="line"/>
      <point x="588" y="473" type="line"/>
      <point x="447" y="473" type="line"/>
    </contour>
    <contour>
      <point x="5" y="294" type="line"/>
      <point x="146" y="294" type="line"/>
      <point x="146" y="473" type="line"/>
      <point x="5" y="473" type="line"/>
    </contour>
  </outline>
</glyph>
<glyph name="astroke.sc" format="2">
  <advance width="528"/>
  <anchor x="264" y="0" name="bottom"/>
  <anchor x="264" y="571" name="top"/>
  <outline>
    <contour>
      <point x="349" y="646" type="line"/>
      <point x="153" y="-67" type="line"/>
      <point x="217" y="-83" type="line"/>
      <point x="412" y="629" type="line"/>
    </contour>
    <contour>
      <point x="381" y="571" type="line"/>
      <point x="148" y="571" type="line"/>
      <point x="-25" y="0" type="line"/>
      <point x="151" y="0" type="line"/>
      <point x="262" y="460" type="line"/>
      <point x="375" y="0" type="line"/>
      <point x="553" y="0" type="line"/>
    </contour>
    <contour>
      <point x="343" y="206" type="line"/>
      <point x="181" y="206" type="line"/>
      <point x="155" y="101" type="line"/>
      <point x="370" y="101" type="line"/>
    </contour>
  </outline>
</glyph>
<glyph name="caron.alt" format="2">
  <advance width="210"/>
  <anchor x="40" y="696" name="_topright"/>
  <outline>
    <contour>
      <point x="89" y="716" type="line"/>
      <point x="64" y="477" type="line"/>
      <point x="172" y="461" type="line"/>
      <point x="230" y="695" type="line"/>
    </contour>
  </outline>
</glyph>
<glyph name="caroncomb.case" format="2">
  <anchor x="234" y="696" name="_top"/>
  <anchor x="236" y="965" name="top"/>
  <outline>
    <contour>
      <point x="371" y="965" type="line"/>
      <point x="234" y="879" type="line"/>
      <point x="97" y="965" type="line"/>
      <point x="30" y="888" type="line"/>
      <point x="175" y="747" type="line"/>
      <point x="293" y="747" type="line"/>
      <point x="438" y="888" type="line"/>
    </contour>
  </outline>
</glyph>
<glyph name="cedilla.sc.ALT" format="2">
  <advance width="349"/>
  <anchor x="153" y="0" name="_bottom"/>
  <outline>
    <contour>
      <point x="209" y="16" type="line"/>
      <point x="105" y="16" type="line"/>
      <point x="88" y="-120" type="line"/>
      <point x="153" y="-120"/>
      <point x="182" y="-127"/>
      <point x="182" y="-149" type="curve" smooth="yes"/>
      <point x="182" y="-167"/>
      <point x="165" y="-173"/>
      <point x="137" y="-173" type="curve" smooth="yes"/>
      <point x="113" y="-173"/>
      <point x="93" y="-166"/>
      <point x="73" y="-155" type="curve"/>
      <point x="30" y="-241" type="line"/>
      <point x="58" y="-259"/>
      <point x="103" y="-275"/>
      <point x="155" y="-275" type="curve" smooth="yes"/>
      <point x="260" y="-275"/>
      <point x="319" y="-220"/>
      <point x="319" y="-151" type="curve" smooth="yes"/>
      <point x="319" y="-89"/>
      <point x="282" y="-52"/>
      <point x="209" y="-43" type="curve"/>
    </contour>
  </outline>
</glyph>
<glyph name="che-cy.sc" format="2">
  <advance width="559"/>
  <anchor x="279.5" y="0" name="bottom"/>
  <anchor x="303" y="0" name="bottomleft"/>
  <anchor x="516" y="0" name="bottomright"/>
  <anchor x="263" y="571" name="top"/>
  <outline>
    <contour>
      <point x="203" y="571" type="line"/>
      <point x="10" y="571" type="line"/>
      <point x="10" y="387" type="line" smooth="yes"/>
      <point x="10" y="249"/>
      <point x="78" y="164"/>
      <point x="206" y="164" type="curve" smooth="yes"/>
      <point x="258" y="164"/>
      <point x="299" y="180"/>
      <point x="332" y="209" type="curve"/>
      <point x="333" y="324" type="line"/>
      <point x="316" y="308"/>
      <point x="298" y="300"/>
      <point x="264" y="300" type="curve" smooth="yes"/>
      <point x="218" y="300"/>
      <point x="203" y="325"/>
      <point x="203" y="385" type="curve" smooth="yes"/>
    </contour>
    <contour>
      <point x="516" y="571" type="line"/>
      <point x="323" y="571" type="line"/>
      <point x="323" y="0" type="line"/>
      <point x="516" y="0" type="line"/>
    </contour>
  </outline>
</glyph>
<glyph name="cheverticalstroke-cy.sc" format="2">
  <advance width="578"/>
  <anchor x="279.5" y="0.0" name="bottom"/>
  <anchor x="303" y="0" name="bottomleft"/>
  <anchor x="516" y="0" name="bottomright"/>
  <anchor x="263" y="571" name="top"/>
  <outline>
    <contour>
      <point x="281" y="443" type="line"/>
      <point x="234" y="443" type="line"/>
      <point x="234" y="85" type="line"/>
      <point x="281" y="85" type="line"/>
    </contour>
    <component base="che-cy.sc"/>
  </outline>
</glyph>
<glyph name="circumflexcomb.case" format="2">
  <anchor x="234" y="696" name="_top"/>
  <anchor x="234" y="970" name="top"/>
  <anchor x="131" y="856" name="topleft"/>
  <anchor x="338" y="856" name="topright"/>
  <outline>
    <contour>
      <point x="97" y="752" type="line"/>
      <point x="234" y="838" type="line"/>
      <point x="371" y="752" type="line"/>
      <point x="438" y="829" type="line"/>
      <point x="293" y="970" type="line"/>
      <point x="175" y="970" type="line"/>
      <point x="30" y="829" type="line"/>
    </contour>
  </outline>
</glyph>
<glyph name="cstroke.sc" format="2">
  <advance width="522"/>
  <anchor x="301" y="0" name="bottom"/>
  <anchor x="320" y="571" name="top"/>
  <outline>
    <contour>
      <point x="376" y="646" type="line"/>
      <point x="180" y="-67" type="line"/>
      <point x="244" y="-83" type="line"/>
      <point x="439" y="629" type="line"/>
    </contour>
    <component base="c.sc"/>
  </outline>
</glyph>
<glyph name="daggerdbl.tf" format="2">
  <advance width="560"/>
  <outline>
    <contour>
      <point x="535" y="295" type="line"/>
      <point x="25" y="295" type="line"/>
      <point x="25" y="136" type="line"/>
      <point x="535" y="136" type="line"/>
    </contour>
    <component base="dagger.tf"/>
  </outline>
</glyph>
<glyph name="dasiaperispomeni.case" format="2">
  <advance width="458"/>
  <anchor x="493" y="696" name="_topleft"/>
  <anchor x="279" y="715" name="top"/>
  <outline>
    <contour>
      <point x="329" y="298" type="line"/>
      <point x="321" y="359" type="line"/>
      <point x="353" y="376"/>
      <point x="369" y="400"/>
      <point x="369" y="434" type="curve" smooth="yes"/>
      <point x="369" y="483"/>
      <point x="331" y="525"/>
      <point x="277" y="525" type="curve" smooth="yes"/>
      <point x="223" y="525"/>
      <point x="185" y="486"/>
      <point x="185" y="434" type="curve" smooth="yes"/>
      <point x="185" y="403"/>
      <point x="195" y="381"/>
      <point x="215" y="346" type="curve" smooth="yes"/>
      <point x="242" y="298" type="line"/>
    </contour>
    <component base="perispomeni" xOffset="46" yOffset="-88"/>
  </outline>
</glyph>
<glyph name="de-cy.sc" format="2">
  <advance width="566"/>
  <anchor x="493" y="0" name="_bottom"/>
  <anchor x="283" y="-215" name="bottom"/>
  <anchor x="283" y="571" name="top"/>
  <outline>
    <contour>
      <point x="22" y="139" type="curve"/>
      <point x="150" y="138" type="line"/>
      <point x="224" y="163"/>
      <point x="261" y="252"/>
      <point x="273" y="405" type="curve" smooth="yes"/>
      <point x="276" y="434" type="line"/>
      <point x="318" y="434" type="line"/>
      <point x="318" y="142" type="line"/>
      <point x="27" y="142" type="line"/>
      <point x="27" y="0" type="line"/>
      <point x="501" y="0" type="line"/>
      <point x="501" y="571" type="line"/>
      <point x="118" y="571" type="line"/>
      <point x="93" y="377" type="line" smooth="yes"/>
      <point x="74" y="231"/>
      <point x="49" y="171"/>
    </contour>
    <component base="descStraight-cy" xOffset="329"/>
    <component base="descStraight-cy" xScale="-1" xOffset="227"/>
  </outline>
</glyph>
<glyph name="delta.sc" format="2">
  <advance width="535"/>
  <anchor x="267.5" y="0" name="bottom"/>
  <anchor x="267.5" y="571" name="top"/>
  <outline>
    <contour>
      <point x="266" y="434" type="line"/>
      <point x="323" y="137" type="line"/>
      <point x="208" y="137" type="line"/>
    </contour>
    <contour>
      <point x="385" y="571" type="line"/>
      <point x="151" y="571" type="line"/>
      <point x="-25" y="0" type="line"/>
      <point x="560" y="0" type="line"/>
    </contour>
  </outline>
</glyph>
<glyph name="descStraight-cy.case" format="2">
  <advance width="242"/>
  <anchor x="164" y="0" name="_bottom"/>
  <anchor x="-43" y="0" name="_bottomleft"/>
  <anchor x="172" y="0" name="_bottomright"/>
  <outline>
    <contour>
      <point x="242" y="154" type="line"/>
      <point x="30" y="154" type="line"/>
      <point x="32" y="0" type="line"/>
      <point x="85" y="0" type="line"/>
      <point x="105" y="-175" type="line"/>
      <point x="242" y="-175" type="line"/>
    </contour>
  </outline>
</glyph>
<glyph name="descTail-cy.case" format="2">
  <advance width="242"/>
  <anchor x="164" y="0" name="_bottom"/>
  <anchor x="-43" y="0" name="_bottomleft"/>
  <anchor x="172" y="0" name="_bottomright"/>
  <outline>
    <contour>
      <point x="282" y="154" type="line"/>
      <point x="30" y="154" type="line"/>
      <point x="32" y="0" type="line"/>
      <point x="85" y="0" type="line"/>
      <point x="45" y="-175" type="line"/>
      <point x="182" y="-175" type="line"/>
    </contour>
  </outline>
</glyph>
<glyph name="dzzhe-cy.sc" format="2">
  <advance width="968"/>
  <anchor x="63" y="0" name="_bottom"/>
  <anchor x="484" y="-215" name="bottom"/>
  <anchor x="484" y="571" name="top"/>
  <outline>
    <contour>
      <point x="490" y="0" type="line"/>
      <point x="629" y="0" type="line"/>
      <point x="629" y="142" type="line"/>
      <point x="490" y="142" type="line"/>
    </contour>
    <contour>
      <point x="394" y="230" type="line"/>
      <point x="615" y="230" type="line"/>
      <point x="615" y="359" type="line"/>
      <point x="394" y="359" type="line"/>
    </contour>
    <contour>
      <point x="511" y="0" type="line"/>
      <point x="684" y="0" type="line"/>
      <point x="684" y="230" type="line"/>
      <point x="722" y="230" type="line"/>
      <point x="786" y="0" type="line"/>
      <point x="983" y="0" type="line"/>
      <point x="873" y="315" type="line"/>
      <point x="967" y="571" type="line"/>
      <point x="780" y="571" type="line"/>
      <point x="718" y="359" type="line"/>
      <point x="684" y="359" type="line"/>
      <point x="684" y="571" type="line"/>
      <point x="511" y="571" type="line"/>
    </contour>
    <contour>
      <point x="150" y="142" type="line"/>
      <point x="214" y="177"/>
      <point x="246" y="252"/>
      <point x="256" y="375" type="curve" smooth="yes"/>
      <point x="261" y="434" type="line"/>
      <point x="283" y="434" type="line"/>
      <point x="283" y="142" type="line"/>
    </contour>
    <contour>
      <point x="22" y="0" type="line"/>
      <point x="456" y="0" type="line"/>
      <point x="456" y="571" type="line"/>
      <point x="113" y="571" type="line"/>
      <point x="88" y="377" type="line" smooth="yes"/>
      <point x="69" y="231"/>
      <point x="49" y="174"/>
      <point x="22" y="142" type="curve"/>
    </contour>
    <component base="descStraight-cy" xScale="-1" xOffset="227"/>
    <component base="descStraight-cy" xOffset="324"/>
  </outline>
</glyph>
<glyph name="e.sc" format="2">
  <advance width="473"/>
  <anchor x="245" y="0" name="bottom"/>
  <anchor x="406" y="0" name="ogonek"/>
  <anchor x="248" y="571" name="top"/>
  <outline>
    <contour>
      <point x="453" y="571" type="line"/>
      <point x="43" y="571" type="line"/>
      <point x="43" y="0" type="line"/>
      <point x="446" y="0" type="line"/>
      <point x="446" y="135" type="line"/>
      <point x="240" y="135" type="line"/>
      <point x="240" y="226" type="line"/>
      <point x="410" y="226" type="line"/>
      <point x="410" y="356" type="line"/>
      <point x="240" y="356" type="line"/>
      <point x="240" y="437" type="line"/>
      <point x="433" y="437" type="line"/>
    </contour>
  </outline>
</glyph>
<glyph name="eiotified-cy.sc" format="2">
  <advance width="771"/>
  <anchor x="385.5" y="0" name="bottom"/>
  <anchor x="385.5" y="571" name="top"/>
  <outline>
    <contour>
      <point x="240" y="571" type="line"/>
      <point x="43" y="571" type="line"/>
      <point x="43" y="0" type="line"/>
      <point x="240" y="0" type="line"/>
      <point x="240" y="216" type="line"/>
      <point x="345" y="216" type="line"/>
      <point x="345" y="359" type="line"/>
      <point x="240" y="359" type="line"/>
    </contour>
    <component base="e-cy.sc" xOffset="254"/>
  </outline>
</glyph>
<glyph name="el-cy.sc" format="2">
  <advance width="581"/>
  <anchor x="290.5" y="0" name="bottom"/>
  <anchor x="548" y="0" name="bottomright"/>
  <anchor x="290.5" y="571" name="top"/>
  <outline>
    <contour>
      <point x="102" y="571" type="line"/>
      <point x="262" y="429" type="line"/>
      <point x="340" y="429" type="line"/>
      <point x="340" y="0" type="line"/>
      <point x="538" y="0" type="line"/>
      <point x="538" y="571" type="line"/>
    </contour>
    <contour>
      <point x="263" y="433" type="line"/>
      <point x="102" y="571" type="line"/>
      <point x="76" y="324" type="line" smooth="yes"/>
      <point x="60" y="169"/>
      <point x="54" y="157"/>
      <point x="-5" y="127" type="curve"/>
      <point x="43" y="-13" type="line"/>
      <point x="214" y="20"/>
      <point x="229" y="102"/>
      <point x="251" y="317" type="curve" smooth="yes"/>
    </contour>
  </outline>
</glyph>
<glyph name="estroke.sc" format="2">
  <advance width="473"/>
  <anchor x="245" y="0" name="bottom"/>
  <anchor x="406" y="0" name="ogonek"/>
  <anchor x="248" y="571" name="top"/>
  <outline>
    <contour>
      <point x="379" y="646" type="line"/>
      <point x="183" y="-67" type="line"/>
      <point x="247" y="-83" type="line"/>
      <point x="442" y="629" type="line"/>
    </contour>
    <component base="e.sc"/>
  </outline>
</glyph>
<glyph name="eth.sc" format="2">
  <advance width="611"/>
  <anchor x="307" y="0" name="bottom"/>
  <anchor x="318" y="286" name="center"/>
  <anchor x="283" y="571" name="top"/>
  <outline>
    <contour>
      <point x="10" y="242" type="line"/>
      <point x="328" y="242" type="line"/>
      <point x="328" y="344" type="line"/>
      <point x="61" y="344" type="line"/>
      <point x="10" y="344" type="line"/>
    </contour>
    <component base="d.sc" xOffset="18"/>
  </outline>
</glyph>
<glyph name="euro.tf" format="2">
  <advance width="560"/>
  <outline>
    <contour>
      <point x="385" y="716" type="curve"/>
      <point x="234" y="716"/>
      <point x="116" y="614"/>
      <point x="80" y="448" type="curve"/>
      <point x="80" y="245" type="line"/>
      <point x="110" y="78"/>
      <point x="215" y="-20"/>
      <point x="379" y="-20" type="curve" smooth="yes"/>
      <point x="438" y="-20"/>
      <point x="486" y="-9"/>
      <point x="544" y="17" type="curve"/>
      <point x="544" y="162" type="line"/>
      <point x="499" y="135"/>
      <point x="451" y="118"/>
      <point x="400" y="118" type="curve" smooth="yes"/>
      <point x="330" y="118"/>
      <point x="290" y="155"/>
      <point x="276" y="249" type="curve"/>
      <point x="276" y="442" type="line"/>
      <point x="294" y="537"/>
      <point x="328" y="579"/>
      <point x="396" y="579" type="curve"/>
      <point x="436" y="579"/>
      <point x="470" y="567"/>
      <point x="506" y="542" type="curve"/>
      <point x="574" y="658" type="line"/>
      <point x="529" y="688"/>
      <point x="474" y="716"/>
    </contour>
    <contour>
      <point x="480" y="318" type="line"/>
      <point x="25" y="318" type="line"/>
      <point x="0" y="223" type="line"/>
      <point x="455" y="223" type="line"/>
    </contour>
    <contour>
      <point x="518" y="473" type="line"/>
      <point x="25" y="473" type="line"/>
      <point x="0" y="378" type="line"/>
      <point x="493" y="378" type="line"/>
    </contour>
  </outline>
</glyph>
<glyph name="ge-cy.sc" format="2">
  <advance width="458"/>
  <anchor x="142" y="0" name="bottom"/>
  <anchor x="248" y="0" name="bottomright"/>
  <anchor x="253" y="571" name="top"/>
  <outline>
    <contour>
      <point x="43" y="571" type="line"/>
      <point x="43" y="0" type="line"/>
      <point x="240" y="0" type="line"/>
      <point x="240" y="468" type="line"/>
    </contour>
    <contour>
      <point x="463" y="571" type="line"/>
      <point x="43" y="571" type="line"/>
      <point x="226" y="423" type="line"/>
      <point x="444" y="423" type="line"/>
    </contour>
  </outline>
</glyph>
<glyph name="gestrokehook-cy.sc" format="2">
  <advance width="454"/>
  <anchor x="138" y="0" name="bottom"/>
  <anchor x="244" y="0" name="bottomright"/>
  <anchor x="249" y="571" name="top"/>
  <outline>
    <contour>
      <point x="39" y="142" type="line"/>
      <point x="39" y="0" type="line"/>
      <point x="322" y="0" type="line"/>
      <point x="322" y="142" type="line"/>
    </contour>
    <component base="ghestroke-cy.sc"/>
    <component base="hookHELPER" xOffset="-80"/>
  </outline>
</glyph>
<glyph name="ghestroke-cy.sc" format="2">
  <advance width="454"/>
  <anchor x="138" y="0" name="bottom"/>
  <anchor x="244" y="0" name="bottomright"/>
  <anchor x="249" y="571" name="top"/>
  <outline>
    <contour>
      <point x="352" y="346" type="line"/>
      <point x="39" y="346" type="line"/>
      <point x="-13" y="346" type="line"/>
      <point x="-13" y="240" type="line"/>
      <point x="352" y="240" type="line"/>
    </contour>
    <component base="ge-cy.sc" xOffset="-4"/>
  </outline>
</glyph>
<glyph name="gheupturn-cy.sc" format="2">
  <advance width="458"/>
  <anchor x="142" y="0" name="bottom"/>
  <anchor x="248" y="0" name="bottomright"/>
  <anchor x="253" y="571" name="top"/>
  <outline>
    <contour>
      <point x="276" y="551" type="line"/>
      <point x="463" y="571" type="line"/>
      <point x="463" y="733" type="line"/>
      <point x="276" y="733" type="line"/>
    </contour>
    <component base="ge-cy.sc"/>
  </outline>
</glyph>
<glyph name="glottalstop.sc" format="2">
  <advance width="492"/>
  <anchor x="246" y="0" name="bottom"/>
  <anchor x="246" y="571" name="top"/>
  <outline>
    <contour>
      <point x="122" y="0" type="line"/>
      <point x="320" y="0" type="line"/>
      <point x="320" y="183" type="line"/>
      <point x="350" y="194" type="line" smooth="yes"/>
      <point x="431" y="224"/>
      <point x="472" y="272"/>
      <point x="472" y="364" type="curve" smooth="yes"/>
      <point x="472" y="496"/>
      <point x="370" y="587"/>
      <point x="215" y="587" type="curve" smooth="yes"/>
      <point x="122" y="587"/>
      <point x="55" y="554"/>
      <point x="0" y="497" type="curve"/>
      <point x="91" y="402" type="line"/>
      <point x="123" y="429"/>
      <point x="150" y="445"/>
      <point x="192" y="445" type="curve" smooth="yes"/>
      <point x="238" y="445"/>
      <point x="269" y="415"/>
      <point x="269" y="362" type="curve" smooth="yes"/>
      <point x="269" y="301"/>
      <point x="229" y="271"/>
      <point x="162" y="251" type="curve" smooth="yes"/>
      <point x="122" y="239" type="line"/>
    </contour>
  </outline>
</glyph>
<glyph name="gravecomb.case" format="2">
  <anchor x="182" y="696" name="_top"/>
  <anchor x="184" y="984" name="top"/>
  <outline>
    <contour>
      <point x="103" y="984" type="line"/>
      <point x="30" y="840" type="line"/>
      <point x="284" y="749" type="line"/>
      <point x="334" y="848" type="line"/>
    </contour>
  </outline>
</glyph>
<glyph name="gravedbl" format="2">
  <advance width="324"/>
  <anchor x="231" y="534" name="_top"/>
  <anchor x="298" y="534" name="_topleft"/>
  <outline>
    <contour>
      <point x="154" y="844" type="line"/>
      <point x="50" y="742" type="line"/>
      <point x="221" y="593" type="line"/>
      <point x="294" y="658" type="line"/>
    </contour>
  </outline>
</glyph>
<glyph name="gstroke.sc" format="2">
  <advance width="594"/>
  <anchor x="297" y="0" name="bottom"/>
  <anchor x="297" y="571" name="top"/>
  <outline>
    <contour>
      <point x="332" y="587" type="curve" smooth="yes"/>
      <point x="151" y="587"/>
      <point x="20" y="478"/>
      <point x="20" y="287" type="curve" smooth="yes"/>
      <point x="20" y="93"/>
      <point x="107" y="-18"/>
      <point x="319" y="-18" type="curve" smooth="yes"/>
      <point x="393" y="-18"/>
      <point x="485" y="7"/>
      <point x="551" y="52" type="curve"/>
      <point x="551" y="350" type="line"/>
      <point x="293" y="350" type="line"/>
      <point x="307" y="251" type="line"/>
      <point x="383" y="251" type="line"/>
      <point x="383" y="129" type="line"/>
      <point x="362" y="123"/>
      <point x="339" y="118"/>
      <point x="311" y="118" type="curve" smooth="yes"/>
      <point x="249" y="118"/>
      <point x="222" y="152"/>
      <point x="222" y="286" type="curve" smooth="yes"/>
      <point x="222" y="395"/>
      <point x="263" y="452"/>
      <point x="345" y="452" type="curve" smooth="yes"/>
      <point x="389" y="452"/>
      <point x="419" y="437"/>
      <point x="454" y="408" type="curve"/>
      <point x="553" y="509" type="line"/>
      <point x="505" y="551"/>
      <point x="425" y="587"/>
    </contour>
    <component base="hyphen" xScale="0.85" yScale="0.5" xOffset="275" yOffset="36"/>
  </outline>
</glyph>
<glyph name="h.sc" format="2">
  <advance width="596"/>
  <anchor x="298" y="0" name="bottom"/>
  <anchor x="562" y="0" name="bottomright"/>
  <anchor x="298" y="286" name="center"/>
  <anchor x="298" y="571" name="top"/>
  <outline>
    <contour>
      <point x="553" y="571" type="line"/>
      <point x="355" y="571" type="line"/>
      <point x="355" y="370" type="line"/>
      <point x="241" y="370" type="line"/>
      <point x="241" y="571" type="line"/>
      <point x="43" y="571" type="line"/>
      <point x="43" y="0" type="line"/>
      <point x="241" y="0" type="line"/>
      <point x="241" y="220" type="line"/>
      <point x="355" y="220" type="line"/>
      <point x="355" y="0" type="line"/>
      <point x="553" y="0" type="line"/>
    </contour>
  </outline>
</glyph>
<glyph name="hardsign-cy.sc" format="2">
  <advance width="657"/>
  <anchor x="382.5" y="0.0" name="bottom"/>
  <anchor x="382.5" y="571.0" name="top"/>
  <outline>
    <contour>
      <point x="152" y="427" type="line"/>
      <point x="348" y="571" type="line"/>
      <point x="0" y="571" type="line"/>
      <point x="0" y="427" type="line"/>
    </contour>
    <component base="softsign-cy.sc" xOffset="108"/>
  </outline>
</glyph>
<glyph name="hastroke-cy.sc" format="2">
  <advance width="537"/>
  <anchor x="268.5" y="0" name="bottom"/>
  <anchor x="268.5" y="571" name="top"/>
  <outline>
    <contour>
      <point x="211" y="571" type="line"/>
      <point x="1" y="571" type="line"/>
      <point x="160" y="303" type="line"/>
      <point x="264" y="201" type="line"/>
      <point x="336" y="0" type="line"/>
      <point x="547" y="0" type="line"/>
      <point x="371" y="308" type="line"/>
      <point x="266" y="402" type="line"/>
    </contour>
    <contour>
      <point x="538" y="571" type="line"/>
      <point x="330" y="571" type="line"/>
      <point x="266" y="402" type="line"/>
      <point x="160" y="303" type="line"/>
      <point x="-10" y="0" type="line"/>
      <point x="198" y="0" type="line"/>
      <point x="265" y="201" type="line"/>
      <point x="371" y="308" type="line"/>
    </contour>
    <component base="hyphen" xScale="1.3" yScale="0.8" xOffset="2" yOffset="51"/>
  </outline>
</glyph>
<glyph name="hbar.sc" format="2">
  <advance width="604"/>
  <anchor x="302" y="0" name="bottom"/>
  <anchor x="566" y="0" name="bottomright"/>
  <anchor x="302" y="286" name="center"/>
  <anchor x="302" y="571" name="top"/>
  <outline>
    <contour>
      <point x="604" y="506" type="line"/>
      <point x="557" y="506" type="line"/>
      <point x="0" y="506" type="line"/>
      <point x="0" y="415" type="line"/>
      <point x="47" y="415" type="line"/>
      <point x="604" y="415" type="line"/>
    </contour>
    <component base="h.sc" xOffset="4"/>
  </outline>
</glyph>
<glyph name="heta.sc" format="2">
  <advance width="448"/>
  <anchor x="224" y="0" name="bottom"/>
  <anchor x="224" y="571" name="top"/>
  <outline>
    <contour>
      <point x="448" y="219" type="line"/>
      <point x="448" y="370" type="line"/>
      <point x="240" y="370" type="line"/>
      <point x="240" y="571" type="line"/>
      <point x="43" y="571" type="line"/>
      <point x="43" y="0" type="line"/>
      <point x="240" y="0" type="line"/>
      <point x="240" y="219" type="line"/>
    </contour>
  </outline>
</glyph>
<glyph name="i.sc" format="2">
  <advance width="284"/>
  <anchor x="142" y="0" name="bottom"/>
  <anchor x="210" y="0" name="ogonek"/>
  <anchor x="142" y="571" name="top"/>
  <outline>
    <contour>
      <point x="241" y="571" type="line"/>
      <point x="43" y="571" type="line"/>
      <point x="43" y="0" type="line"/>
      <point x="241" y="0" type="line"/>
    </contour>
  </outline>
</glyph>
<glyph name="ia-cy.sc" format="2">
  <advance width="549"/>
  <anchor x="274.5" y="0" name="bottom"/>
  <anchor x="274.5" y="571" name="top"/>
  <outline>
    <contour>
      <point x="289" y="198" type="line"/>
      <point x="119" y="231" type="line"/>
      <point x="-15" y="0" type="line"/>
      <point x="198" y="0" type="line"/>
    </contour>
    <contour>
      <point x="128" y="214" type="curve"/>
      <point x="273" y="186" type="line"/>
      <point x="322" y="186" type="line"/>
      <point x="322" y="315" type="line"/>
      <point x="284" y="315" type="line" smooth="yes"/>
      <point x="247" y="315"/>
      <point x="219" y="335"/>
      <point x="219" y="374" type="curve" smooth="yes"/>
      <point x="219" y="414"/>
      <point x="243" y="439"/>
      <point x="285" y="439" type="curve" smooth="yes"/>
      <point x="309" y="439" type="line"/>
      <point x="309" y="0" type="line"/>
      <point x="506" y="0" type="line"/>
      <point x="506" y="571" type="line"/>
      <point x="278" y="571" type="line" smooth="yes"/>
      <point x="103" y="571"/>
      <point x="15" y="511"/>
      <point x="15" y="379" type="curve" smooth="yes"/>
      <point x="15" y="286"/>
      <point x="56" y="242"/>
    </contour>
  </outline>
</glyph>
<glyph name="ii-cy.sc" format="2">
  <advance width="588"/>
  <anchor x="294" y="0" name="bottom"/>
  <anchor x="555" y="0" name="bottomright"/>
  <anchor x="294" y="571" name="top"/>
  <outline>
    <contour>
      <point x="545" y="571" type="line"/>
      <point x="320" y="571" type="line"/>
      <point x="202" y="189" type="line"/>
      <point x="215" y="251"/>
      <point x="232" y="315"/>
      <point x="232" y="420" type="curve" smooth="yes"/>
      <point x="232" y="571" type="line"/>
      <point x="43" y="571" type="line"/>
      <point x="43" y="0" type="line"/>
      <point x="275" y="0" type="line"/>
      <point x="387" y="384" type="line"/>
      <point x="373" y="313"/>
      <point x="358" y="255"/>
      <point x="358" y="144" type="curve" smooth="yes"/>
      <point x="358" y="0" type="line"/>
      <point x="545" y="0" type="line"/>
    </contour>
  </outline>
</glyph>
<glyph name="j.sc" format="2">
  <advance width="301"/>
  <anchor x="150.5" y="-215" name="bottom"/>
  <anchor x="162" y="571" name="top"/>
  <outline>
    <contour>
      <point x="260" y="571" type="line"/>
      <point x="63" y="571" type="line"/>
      <point x="63" y="101" type="line" smooth="yes"/>
      <point x="63" y="42"/>
      <point x="56" y="-3"/>
      <point x="-20" y="-30" type="curve"/>
      <point x="33" y="-168" type="line"/>
      <point x="139" y="-134"/>
      <point x="260" y="-77"/>
      <point x="260" y="95" type="curve" smooth="yes"/>
    </contour>
  </outline>
</glyph>
<glyph name="k.sc" format="2">
  <advance width="598"/>
  <anchor x="304" y="0" name="bottom"/>
  <anchor x="301" y="571" name="top"/>
  <outline>
    <contour>
      <point x="603" y="571" type="line"/>
      <point x="402" y="571" type="line"/>
      <point x="245" y="305" type="line"/>
      <point x="396" y="0" type="line"/>
      <point x="618" y="0" type="line"/>
      <point x="443" y="321" type="line"/>
    </contour>
    <contour>
      <point x="240" y="571" type="line"/>
      <point x="43" y="571" type="line"/>
      <point x="43" y="0" type="line"/>
      <point x="240" y="0" type="line"/>
    </contour>
  </outline>
</glyph>
<glyph name="ka-cy.sc" format="2">
  <advance width="605"/>
  <anchor x="302.5" y="0" name="bottom"/>
  <anchor x="549" y="0" name="bottomright"/>
  <anchor x="325" y="571" name="top"/>
  <outline>
    <contour>
      <point x="604" y="571" type="line"/>
      <point x="407" y="571" type="line"/>
      <point x="275" y="359" type="line"/>
      <point x="241" y="359" type="line"/>
      <point x="241" y="571" type="line"/>
      <point x="43" y="571" type="line"/>
      <point x="43" y="0" type="line"/>
      <point x="241" y="0" type="line"/>
      <point x="241" y="230" type="line"/>
      <point x="279" y="230" type="line"/>
      <point x="403" y="0" type="line"/>
      <point x="620" y="0" type="line"/>
      <point x="440" y="315" type="line"/>
    </contour>
  </outline>
</glyph>
<glyph name="kabashkir-cy.sc" format="2">
  <advance width="712"/>
  <anchor x="409.5" y="0.0" name="bottom"/>
  <anchor x="656" y="0" name="bottomright"/>
  <anchor x="432" y="571" name="top"/>
  <outline>
    <contour>
      <point x="150" y="427" type="line"/>
      <point x="348" y="571" type="line"/>
      <point x="0" y="571" type="line"/>
      <point x="0" y="427" type="line"/>
    </contour>
    <component base="ka-cy.sc" xOffset="107"/>
  </outline>
</glyph>
<glyph name="kastroke-cy.sc" format="2">
  <advance width="623"/>
  <anchor x="320.5" y="0.0" name="bottom"/>
  <anchor x="567" y="0" name="bottomright"/>
  <anchor x="343" y="571" name="top"/>
  <outline>
    <contour>
      <point x="10" y="422" type="line"/>
      <point x="312" y="422" type="line"/>
      <point x="312" y="524" type="line"/>
      <point x="61" y="524" type="line"/>
      <point x="10" y="524" type="line"/>
    </contour>
    <component base="ka-cy.sc" xOffset="18"/>
  </outline>
</glyph>
<glyph name="kaverticalstroke-cy.sc" format="2">
  <advance width="597"/>
  <anchor x="298.5" y="0" name="bottom"/>
  <anchor x="298.5" y="571" name="top"/>
  <outline>
    <contour>
      <point x="592" y="571" type="line"/>
      <point x="404" y="571" type="line"/>
      <point x="324" y="355" type="line"/>
      <point x="230" y="355" type="line"/>
      <point x="230" y="571" type="line"/>
      <point x="43" y="571" type="line"/>
      <point x="43" y="0" type="line"/>
      <point x="230" y="0" type="line"/>
      <point x="230" y="236" type="line"/>
      <point x="328" y="236" type="line"/>
      <point x="397" y="0" type="line"/>
      <point x="607" y="0" type="line"/>
      <point x="479" y="323" type="line"/>
    </contour>
    <contour>
      <point x="315" y="473" type="line"/>
      <point x="255" y="473" type="line"/>
      <point x="255" y="118" type="line"/>
      <point x="315" y="118" type="line"/>
    </contour>
  </outline>
</glyph>
<glyph name="koppa.sc" format="2">
  <advance width="499"/>
  <anchor x="249.5" y="0" name="bottom"/>
  <anchor x="249.5" y="571" name="top"/>
  <outline>
    <contour>
      <point x="113" y="0" type="line"/>
      <point x="324" y="0" type="line"/>
      <point x="489" y="226" type="line"/>
      <point x="318" y="280" type="line"/>
    </contour>
    <contour>
      <point x="52" y="226" type="line"/>
      <point x="489" y="226" type="line"/>
      <point x="447" y="368" type="line"/>
      <point x="10" y="368" type="line"/>
    </contour>
    <contour>
      <point x="181" y="334" type="line"/>
      <point x="394" y="571" type="line"/>
      <point x="183" y="571" type="line"/>
      <point x="10" y="368" type="line"/>
    </contour>
  </outline>
</glyph>
<glyph name="koppaArchaic.sc" format="2">
  <advance width="614"/>
  <anchor x="307" y="-215" name="bottom"/>
  <anchor x="429" y="0" name="ogonek"/>
  <anchor x="307" y="571" name="top"/>
  <anchor x="96" y="571" name="topleft"/>
  <anchor x="537" y="571" name="topright"/>
  <outline>
    <contour>
      <point x="208" y="-215" type="line"/>
      <point x="406" y="-215" type="line"/>
      <point x="406" y="15" type="line"/>
      <point x="208" y="15" type="line"/>
    </contour>
    <component base="o.sc"/>
  </outline>
</glyph>
<glyph name="l.sc" format="2">
  <advance width="475"/>
  <anchor x="244" y="0" name="bottom"/>
  <anchor x="384" y="336" name="center"/>
  <anchor x="141" y="571" name="top"/>
  <anchor x="261" y="571" name="topright"/>
  <outline>
    <contour>
      <point x="240" y="571" type="line"/>
      <point x="43" y="571" type="line"/>
      <point x="43" y="0" type="line"/>
      <point x="445" y="0" type="line"/>
      <point x="465" y="148" type="line"/>
      <point x="240" y="148" type="line"/>
    </contour>
  </outline>
</glyph>
<glyph name="lambda.sc" format="2">
  <advance width="553"/>
  <anchor x="276.5" y="0" name="bottom"/>
  <anchor x="276.5" y="571" name="top"/>
  <outline>
    <contour>
      <point x="406" y="571" type="line"/>
      <point x="173" y="571" type="line"/>
      <point x="0" y="0" type="line"/>
      <point x="206" y="0" type="line"/>
      <point x="288" y="436" type="line"/>
      <point x="370" y="0" type="line"/>
      <point x="578" y="0" type="line"/>
    </contour>
  </outline>
</glyph>
<glyph name="lha-cy.sc" format="2">
  <advance width="793"/>
  <anchor x="396.5" y="0" name="bottom"/>
  <anchor x="740" y="0" name="bottomright"/>
  <anchor x="396.5" y="571" name="top"/>
  <outline>
    <contour>
      <point x="102" y="571" type="line"/>
      <point x="262" y="432" type="line"/>
      <point x="340" y="432" type="line"/>
      <point x="340" y="571" type="line"/>
    </contour>
    <contour>
      <point x="263" y="433" type="line"/>
      <point x="102" y="571" type="line"/>
      <point x="76" y="324" type="line" smooth="yes"/>
      <point x="60" y="169"/>
      <point x="54" y="157"/>
      <point x="-5" y="127" type="curve"/>
      <point x="43" y="-13" type="line"/>
      <point x="214" y="20"/>
      <point x="229" y="102"/>
      <point x="251" y="317" type="curve" smooth="yes"/>
    </contour>
    <component base="x.sc" xOffset="256"/>
  </outline>
</glyph>
<glyph name="lozenge.tosf" format="2">
  <advance width="560"/>
  <outline>
    <contour>
      <point x="387" y="680" type="line"/>
      <point x="173" y="680" type="line"/>
      <point x="3" y="339" type="line"/>
      <point x="173" y="0" type="line"/>
      <point x="387" y="0" type="line"/>
      <point x="557" y="339" type="line"/>
    </contour>
    <contour>
      <point x="280" y="543" type="line"/>
      <point x="362" y="340" type="line"/>
      <point x="280" y="136" type="line"/>
      <point x="198" y="340" type="line"/>
    </contour>
  </outline>
</glyph>
<glyph name="lslash.sc" format="2">
  <advance width="520"/>
  <anchor x="289" y="0" name="bottom"/>
  <anchor x="429" y="336" name="center"/>
  <anchor x="186" y="571" name="top"/>
  <anchor x="306" y="571" name="topright"/>
  <outline>
    <contour>
      <point x="373" y="474" type="line"/>
      <point x="88" y="297" type="line"/>
      <point x="0" y="243" type="line"/>
      <point x="57" y="149" type="line"/>
      <point x="431" y="381" type="line"/>
    </contour>
    <component base="l.sc" xOffset="45"/>
  </outline>
</glyph>
<glyph name="m.sc" format="2">
  <advance width="706"/>
  <anchor x="353" y="0" name="bottom"/>
  <anchor x="657" y="0" name="bottomright"/>
  <anchor x="356" y="571" name="top"/>
  <outline>
    <contour>
      <point x="650" y="571" type="line"/>
      <point x="410" y="571" type="line"/>
      <point x="355" y="207" type="line"/>
      <point x="301" y="571" type="line"/>
      <point x="57" y="571" type="line"/>
      <point x="15" y="0" type="line"/>
      <point x="210" y="0" type="line"/>
      <point x="211" y="189" type="line" smooth="yes"/>
      <point x="212" y="265"/>
      <point x="206" y="307"/>
      <point x="196" y="436" type="curve"/>
      <point x="258" y="55" type="line"/>
      <point x="446" y="55" type="line"/>
      <point x="507" y="440" type="line"/>
      <point x="497" y="325"/>
      <point x="496" y="256"/>
      <point x="496" y="186" type="curve" smooth="yes"/>
      <point x="497" y="0" type="line"/>
      <point x="691" y="0" type="line"/>
    </contour>
  </outline>
</glyph>
<glyph name="nhookleft.sc" format="2">
  <advance width="588"/>
  <anchor x="294" y="0" name="bottom"/>
  <anchor x="293" y="571" name="top"/>
  <outline>
    <contour>
      <point x="11" y="-227" type="curve" smooth="yes"/>
      <point x="124" y="-227"/>
      <point x="216" y="-157"/>
      <point x="216" y="-16" type="curve" smooth="yes"/>
      <point x="216" y="1" type="line"/>
      <point x="43" y="1" type="line"/>
      <point x="43" y="-39" type="line" smooth="yes"/>
      <point x="43" y="-74"/>
      <point x="25" y="-92"/>
      <point x="-9" y="-92" type="curve" smooth="yes"/>
      <point x="-38" y="-92"/>
      <point x="-54" y="-84"/>
      <point x="-77" y="-72" type="curve"/>
      <point x="-141" y="-182" type="line"/>
      <point x="-105" y="-208"/>
      <point x="-56" y="-227"/>
    </contour>
    <component base="n.sc"/>
  </outline>
</glyph>
<glyph name="nje-cy.sc" format="2">
  <advance width="849"/>
  <anchor x="424.5" y="0" name="bottom"/>
  <anchor x="424.5" y="571" name="top"/>
  <outline>
    <contour>
      <point x="240" y="571" type="line"/>
      <point x="43" y="571" type="line"/>
      <point x="43" y="0" type="line"/>
      <point x="240" y="0" type="line"/>
      <point x="240" y="253" type="line"/>
      <point x="366" y="253" type="line"/>
      <point x="366" y="387" type="line"/>
      <point x="240" y="387" type="line"/>
    </contour>
    <contour>
      <point x="548" y="571" type="line"/>
      <point x="351" y="571" type="line"/>
      <point x="351" y="0" type="line"/>
      <point x="594" y="0" type="line" smooth="yes"/>
      <point x="738" y="0"/>
      <point x="839" y="66"/>
      <point x="839" y="199" type="curve" smooth="yes"/>
      <point x="839" y="325"/>
      <point x="740" y="387"/>
      <point x="573" y="387" type="curve" smooth="yes"/>
      <point x="535" y="387" type="line"/>
      <point x="535" y="253" type="line"/>
      <point x="558" y="253" type="line" smooth="yes"/>
      <point x="620" y="253"/>
      <point x="635" y="233"/>
      <point x="635" y="199" type="curve" smooth="yes"/>
      <point x="635" y="167"/>
      <point x="620" y="137"/>
      <point x="569" y="137" type="curve" smooth="yes"/>
      <point x="548" y="137" type="line"/>
    </contour>
  </outline>
</glyph>
<glyph name="o.sc" format="2">
  <advance width="614"/>
  <anchor x="307" y="0" name="bottom"/>
  <anchor x="429" y="0" name="ogonek"/>
  <anchor x="307" y="571" name="top"/>
  <anchor x="96" y="571" name="topleft"/>
  <anchor x="537" y="571" name="topright"/>
  <outline>
    <contour>
      <point x="307" y="587" type="curve" smooth="yes"/>
      <point x="120" y="587"/>
      <point x="20" y="469"/>
      <point x="20" y="288" type="curve" smooth="yes"/>
      <point x="20" y="98"/>
      <point x="120" y="-18"/>
      <point x="307" y="-18" type="curve" smooth="yes"/>
      <point x="494" y="-18"/>
      <point x="594" y="103"/>
      <point x="594" y="287" type="curve" smooth="yes"/>
      <point x="594" y="473"/>
      <point x="494" y="587"/>
    </contour>
    <contour>
      <point x="307" y="450" type="curve" smooth="yes"/>
      <point x="367" y="450"/>
      <point x="390" y="406"/>
      <point x="390" y="287" type="curve" smooth="yes"/>
      <point x="390" y="165"/>
      <point x="370" y="118"/>
      <point x="307" y="118" type="curve" smooth="yes"/>
      <point x="245" y="118"/>
      <point x="224" y="165"/>
      <point x="224" y="288" type="curve" smooth="yes"/>
      <point x="224" y="406"/>
      <point x="246" y="450"/>
    </contour>
  </outline>
</glyph>
<glyph name="obarred-cy.sc" format="2">
  <advance width="614"/>
  <anchor x="307" y="0" name="bottom"/>
  <anchor x="307" y="571" name="top"/>
  <outline>
    <contour>
      <point x="307" y="587" type="curve" smooth="yes"/>
      <point x="120" y="587"/>
      <point x="20" y="469"/>
      <point x="20" y="288" type="curve" smooth="yes"/>
      <point x="20" y="98"/>
      <point x="120" y="-18"/>
      <point x="307" y="-18" type="curve" smooth="yes"/>
      <point x="494" y="-18"/>
      <point x="594" y="103"/>
      <point x="594" y="287" type="curve" smooth="yes"/>
      <point x="594" y="473"/>
      <point x="494" y="587"/>
    </contour>
    <contour>
      <point x="307" y="450" type="curve" smooth="yes"/>
      <point x="367" y="450"/>
      <point x="394" y="406"/>
      <point x="394" y="287" type="curve" smooth="yes"/>
      <point x="394" y="165"/>
      <point x="370" y="118"/>
      <point x="307" y="118" type="curve" smooth="yes"/>
      <point x="245" y="118"/>
      <point x="219" y="165"/>
      <point x="219" y="288" type="curve" smooth="yes"/>
      <point x="219" y="406"/>
      <point x="246" y="450"/>
    </contour>
    <contour>
      <point x="491" y="336" type="line"/>
      <point x="123" y="336" type="line"/>
      <point x="122" y="240" type="line"/>
      <point x="491" y="240" type="line"/>
    </contour>
  </outline>
</glyph>
<glyph name="pe-cy.sc" format="2">
  <advance width="596"/>
  <anchor x="298" y="0" name="bottom"/>
  <anchor x="563" y="0" name="bottomright"/>
  <anchor x="298" y="571" name="top"/>
  <outline>
    <contour>
      <point x="553" y="571" type="line"/>
      <point x="43" y="571" type="line"/>
      <point x="43" y="0" type="line"/>
      <point x="240" y="0" type="line"/>
      <point x="240" y="427" type="line"/>
      <point x="356" y="427" type="line"/>
      <point x="356" y="0" type="line"/>
      <point x="553" y="0" type="line"/>
    </contour>
  </outline>
</glyph>
<glyph name="product.tosf" format="2">
  <advance width="560"/>
  <outline>
    <contour>
      <point x="570" y="534" type="line"/>
      <point x="570" y="680" type="line"/>
      <point x="-10" y="680" type="line"/>
      <point x="-10" y="534" type="line"/>
      <point x="55" y="534" type="line"/>
      <point x="55" y="-227" type="line"/>
      <point x="240" y="-207" type="line"/>
      <point x="240" y="534" type="line"/>
      <point x="320" y="534" type="line"/>
      <point x="320" y="-227" type="line"/>
      <point x="505" y="-207" type="line"/>
      <point x="505" y="534" type="line"/>
    </contour>
  </outline>
</glyph>
<glyph name="psiliperispomeni.case" format="2">
  <advance width="458"/>
  <anchor x="493" y="696" name="_topleft"/>
  <anchor x="279" y="715" name="top"/>
  <outline>
    <contour>
      <point x="225" y="298" type="line"/>
      <point x="312" y="298" type="line"/>
      <point x="339" y="346" type="line" smooth="yes"/>
      <point x="359" y="381"/>
      <point x="369" y="403"/>
      <point x="369" y="434" type="curve" smooth="yes"/>
      <point x="369" y="486"/>
      <point x="331" y="525"/>
      <point x="277" y="525" type="curve" smooth="yes"/>
      <point x="223" y="525"/>
      <point x="185" y="483"/>
      <point x="185" y="434" type="curve" smooth="yes"/>
      <point x="185" y="400"/>
      <point x="201" y="376"/>
      <point x="235" y="359" type="curve"/>
    </contour>
    <component base="perispomeni" xOffset="46" yOffset="-88"/>
  </outline>
</glyph>
<glyph name="psilivaria.case" format="2">
  <advance width="458"/>
  <anchor x="490" y="696" name="_topleft"/>
  <anchor x="252" y="713" name="top"/>
  <outline>
    <contour>
      <point x="350" y="428" type="line"/>
      <point x="458" y="449" type="line"/>
      <point x="413" y="710" type="line"/>
      <point x="254" y="671" type="line"/>
    </contour>
    <contour>
      <point x="73" y="433" type="line"/>
      <point x="167" y="433" type="line"/>
      <point x="217" y="534" type="line" smooth="yes"/>
      <point x="234" y="569"/>
      <point x="244" y="591"/>
      <point x="244" y="622" type="curve" smooth="yes"/>
      <point x="244" y="674"/>
      <point x="206" y="713"/>
      <point x="152" y="713" type="curve" smooth="yes"/>
      <point x="98" y="713"/>
      <point x="60" y="671"/>
      <point x="60" y="622" type="curve" smooth="yes"/>
      <point x="60" y="588"/>
      <point x="76" y="564"/>
      <point x="98" y="547" type="curve"/>
    </contour>
  </outline>
</glyph>
<glyph name="r.sc" format="2">
  <advance width="564"/>
  <anchor x="286" y="0" name="bottom"/>
  <anchor x="288" y="571" name="top"/>
  <outline>
    <contour>
      <point x="276" y="571" type="curve" smooth="yes"/>
      <point x="43" y="571" type="line"/>
      <point x="43" y="0" type="line"/>
      <point x="241" y="0" type="line"/>
      <point x="241" y="439" type="line"/>
      <point x="278" y="439" type="line" smooth="yes"/>
      <point x="319" y="439"/>
      <point x="341" y="421"/>
      <point x="341" y="384" type="curve" smooth="yes"/>
      <point x="341" y="342"/>
      <point x="322" y="322"/>
      <point x="279" y="322" type="curve" smooth="yes"/>
      <point x="226" y="322" type="line"/>
      <point x="226" y="192" type="line"/>
      <point x="358" y="192" type="line"/>
      <point x="492" y="233"/>
      <point x="541" y="295"/>
      <point x="541" y="388" type="curve" smooth="yes"/>
      <point x="541" y="509"/>
      <point x="453" y="571"/>
    </contour>
    <contour>
      <point x="431" y="242" type="line"/>
      <point x="255" y="204" type="line"/>
      <point x="367" y="0" type="line"/>
      <point x="584" y="0" type="line"/>
    </contour>
  </outline>
</glyph>
<glyph name="rhoStrokeSymbol.sc" format="2">
  <advance width="572"/>
  <anchor x="160" y="0" name="bottom"/>
  <anchor x="295" y="571" name="top"/>
  <outline>
    <contour>
      <point x="10" y="138" type="line"/>
      <point x="10" y="52" type="line"/>
      <point x="61" y="52" type="line"/>
      <point x="376" y="52" type="line"/>
      <point x="376" y="138" type="line"/>
    </contour>
    <component base="rho.sc" xOffset="18"/>
  </outline>
</glyph>
<glyph name="rstroke.sc" format="2">
  <advance width="595"/>
  <anchor x="317" y="0" name="bottom"/>
  <anchor x="319" y="571" name="top"/>
  <outline>
    <contour>
      <point x="321" y="192" type="line"/>
      <point x="293" y="322" type="line"/>
      <point x="74" y="322" type="line"/>
      <point x="10" y="322" type="line"/>
      <point x="10" y="192" type="line"/>
    </contour>
    <component base="r.sc" xOffset="31"/>
  </outline>
</glyph>
<glyph name="rupeeIndian.tf" format="2">
  <advance width="560"/>
  <outline>
    <contour>
      <point x="296" y="0" type="line"/>
      <point x="514" y="0" type="line"/>
      <point x="336" y="290" type="line"/>
      <point x="160" y="252" type="line"/>
    </contour>
    <contour>
      <point x="55" y="430" type="line"/>
      <point x="523" y="430" type="line"/>
      <point x="523" y="525" type="line"/>
      <point x="55" y="525" type="line"/>
    </contour>
    <contour>
      <point x="523" y="696" type="line"/>
      <point x="55" y="696" type="line"/>
      <point x="55" y="591" type="line"/>
      <point x="173" y="591" type="line" smooth="yes"/>
      <point x="234" y="591"/>
      <point x="267" y="564"/>
      <point x="267" y="474" type="curve" smooth="yes"/>
      <point x="267" y="375"/>
      <point x="239" y="353"/>
      <point x="173" y="353" type="curve" smooth="yes"/>
      <point x="55" y="353" type="line"/>
      <point x="55" y="248" type="line"/>
      <point x="271" y="248" type="line"/>
      <point x="407" y="291"/>
      <point x="467" y="355"/>
      <point x="467" y="450" type="curve" smooth="yes"/>
      <point x="467" y="520"/>
      <point x="436" y="576"/>
      <point x="379" y="601" type="curve"/>
      <point x="523" y="601" type="line"/>
    </contour>
  </outline>
</glyph>
<glyph name="rupeeIndian.tosf" format="2">
  <advance width="560"/>
  <outline>
    <contour>
      <point x="301" y="0" type="line"/>
      <point x="514" y="0" type="line"/>
      <point x="336" y="274" type="line"/>
      <point x="165" y="236" type="line"/>
    </contour>
    <contour>
      <point x="55" y="414" type="line"/>
      <point x="523" y="414" type="line"/>
      <point x="523" y="509" type="line"/>
      <point x="55" y="509" type="line"/>
    </contour>
    <contour>
      <point x="523" y="680" type="line"/>
      <point x="55" y="680" type="line"/>
      <point x="55" y="575" type="line"/>
      <point x="173" y="575" type="line" smooth="yes"/>
      <point x="234" y="575"/>
      <point x="267" y="548"/>
      <point x="267" y="458" type="curve" smooth="yes"/>
      <point x="267" y="359"/>
      <point x="239" y="337"/>
      <point x="173" y="337" type="curve" smooth="yes"/>
      <point x="55" y="337" type="line"/>
      <point x="55" y="232" type="line"/>
      <point x="271" y="232" type="line"/>
      <point x="407" y="275"/>
      <point x="467" y="339"/>
      <point x="467" y="434" type="curve" smooth="yes"/>
      <point x="467" y="504"/>
      <point x="436" y="560"/>
      <point x="379" y="585" type="curve"/>
      <point x="523" y="585" type="line"/>
    </contour>
  </outline>
</glyph>
<glyph name="sampi.sc" format="2">
  <advance width="520"/>
  <anchor x="260" y="0" name="bottom"/>
  <anchor x="260" y="571" name="top"/>
  <outline>
    <contour>
      <point x="379" y="0" type="line"/>
      <point x="545" y="0" type="line"/>
      <point x="311" y="571" type="line"/>
      <point x="150" y="571" type="line"/>
      <point x="250" y="382" type="line"/>
    </contour>
    <contour>
      <point x="-25" y="0" type="line"/>
      <point x="141" y="0" type="line"/>
      <point x="311" y="506" type="line"/>
      <point x="187" y="504" type="line"/>
    </contour>
    <contour>
      <point x="191" y="0" type="line"/>
      <point x="287" y="0" type="line"/>
      <point x="392" y="335" type="line"/>
      <point x="313" y="376" type="line"/>
    </contour>
  </outline>
</glyph>
<glyph name="sha-cy.sc" format="2">
  <advance width="805"/>
  <anchor x="403" y="0" name="bottom"/>
  <anchor x="772" y="0" name="bottomright"/>
  <anchor x="402.5" y="571" name="top"/>
  <outline>
    <contour>
      <point x="762" y="571" type="line"/>
      <point x="569" y="571" type="line"/>
      <point x="569" y="150" type="line"/>
      <point x="494" y="150" type="line"/>
      <point x="494" y="571" type="line"/>
      <point x="311" y="571" type="line"/>
      <point x="311" y="150" type="line"/>
      <point x="236" y="150" type="line"/>
      <point x="236" y="571" type="line"/>
      <point x="43" y="571" type="line"/>
      <point x="43" y="0" type="line"/>
      <point x="762" y="0" type="line"/>
    </contour>
  </outline>
</glyph>
<glyph name="t.sc" format="2">
  <advance width="490"/>
  <anchor x="246" y="0" name="bottom"/>
  <anchor x="354" y="0" name="bottomright"/>
  <anchor x="246" y="286" name="center"/>
  <anchor x="246" y="571" name="top"/>
  <outline>
    <contour>
      <point x="495" y="571" type="line"/>
      <point x="5" y="571" type="line"/>
      <point x="5" y="427" type="line"/>
      <point x="146" y="427" type="line"/>
      <point x="146" y="0" type="line"/>
      <point x="344" y="0" type="line"/>
      <point x="344" y="427" type="line"/>
      <point x="475" y="427" type="line"/>
    </contour>
  </outline>
</glyph>
<glyph name="tbar.sc" format="2">
  <advance width="490"/>
  <anchor x="246" y="0" name="bottom"/>
  <anchor x="354" y="0" name="bottomright"/>
  <anchor x="246" y="286" name="center"/>
  <anchor x="246" y="571" name="top"/>
  <outline>
    <contour>
      <point x="420" y="245" type="line"/>
      <point x="420" y="349" type="line"/>
      <point x="344" y="349" type="line"/>
      <point x="70" y="349" type="line"/>
      <point x="70" y="245" type="line"/>
      <point x="146" y="245" type="line"/>
    </contour>
    <component base="t.sc"/>
  </outline>
</glyph>
<glyph name="tdiagonalstroke.sc" format="2">
  <advance width="497"/>
  <anchor x="248.5" y="0" name="bottom"/>
  <anchor x="248.5" y="571" name="top"/>
  <outline>
    <contour>
      <point x="133" y="-83" type="line"/>
      <point x="502" y="618" type="line"/>
      <point x="454" y="644" type="line"/>
      <point x="84" y="-58" type="line"/>
    </contour>
    <contour>
      <point x="495" y="571" type="line"/>
      <point x="5" y="571" type="line"/>
      <point x="5" y="447" type="line"/>
      <point x="166" y="447" type="line"/>
      <point x="166" y="0" type="line"/>
      <point x="324" y="0" type="line"/>
      <point x="324" y="447" type="line"/>
      <point x="475" y="447" type="line"/>
    </contour>
  </outline>
</glyph>
<glyph name="thook.sc" format="2">
  <advance width="570"/>
  <anchor x="285" y="0" name="bottom"/>
  <anchor x="285" y="571" name="top"/>
  <outline>
    <contour>
      <point x="575" y="571" type="line"/>
      <point x="197" y="571" type="line"/>
      <point x="197" y="427" type="line"/>
      <point x="226" y="427" type="line"/>
      <point x="226" y="0" type="line"/>
      <point x="424" y="0" type="line"/>
      <point x="424" y="427" type="line"/>
      <point x="555" y="427" type="line"/>
    </contour>
    <contour>
      <point x="0" y="409" type="curve" smooth="yes"/>
      <point x="0" y="359"/>
      <point x="18" y="324"/>
      <point x="45" y="288" type="curve"/>
      <point x="160" y="340" type="line"/>
      <point x="152" y="358"/>
      <point x="145" y="374"/>
      <point x="145" y="393" type="curve" smooth="yes"/>
      <point x="145" y="415"/>
      <point x="159" y="427"/>
      <point x="183" y="427" type="curve" smooth="yes"/>
      <point x="199" y="427" type="line"/>
      <point x="199" y="571" type="line"/>
      <point x="178" y="571" type="line" smooth="yes"/>
      <point x="75" y="571"/>
      <point x="0" y="510"/>
    </contour>
  </outline>
</glyph>
<glyph name="tonos.case" format="2">
  <advance width="257"/>
  <anchor x="297" y="696" name="_topleft"/>
  <outline>
    <contour>
      <point x="98" y="735" type="line"/>
      <point x="60" y="474" type="line"/>
      <point x="181" y="453" type="line"/>
      <point x="277" y="696" type="line"/>
    </contour>
  </outline>
</glyph>
